SplineFontDB: 3.2
FontName: Reijima-BlackItalic
FullName: Reijima Black Italic
FamilyName: Reijima Black
Weight: Black
Copyright: Copyright (c) 2019 by Coji Morishita. All rights reserved.
Version: 1.000
ItalicAngle: -9
UnderlinePosition: -100
UnderlineWidth: 50
Ascent: 860
Descent: 140
InvalidEm: 0
LayerCount: 2
Layer: 0 0 "Back" 1
Layer: 1 0 "Fore" 0
FSType: 8
OS2Version: 0
OS2_WeightWidthSlopeOnly: 0
OS2_UseTypoMetrics: 0
CreationTime: 1707357819
ModificationTime: 1707357819
OS2TypoAscent: 0
OS2TypoAOffset: 1
OS2TypoDescent: 0
OS2TypoDOffset: 1
OS2TypoLinegap: 0
OS2WinAscent: 0
OS2WinAOffset: 1
OS2WinDescent: 0
OS2WinDOffset: 1
HheadAscent: 0
HheadAOffset: 1
HheadDescent: 0
HheadDOffset: 1
OS2Vendor: 'PfEd'
DEI: 91125
Encoding: UnicodeFull
Compacted: 1
UnicodeInterp: none
NameList: AGL For New Fonts
DisplaySize: -48
AntiAlias: 1
FitToEm: 0
WinInfo: 0 27 9
BeginPrivate: 3
BlueValues 24 [-10 0 520 530 730 750 ]
OtherBlues 12 [-220 -220 ]
ForceBold 4 true
EndPrivate
BeginChars: 1114125 955

StartChar: .notdef
Encoding: 1114112 -1 0
Width: 477
LayerCount: 2
Fore
SplineSet
328 -140 m 1
 17 -140 l 1
 176 860 l 1
 487 860 l 1
 328 -140 l 1
239 793 m 1
 234 760 l 1
 297 760 l 1
 291 723 l 1
 227 723 l 1
 221 690 l 1
 384 690 l 1
 389 723 l 1
 325 723 l 1
 331 760 l 1
 395 760 l 1
 400 793 l 1
 239 793 l 1
217 664 m 1
 201 560 l 1
 364 560 l 1
 369 594 l 1
 304 594 l 1
 315 664 l 1
 217 664 l 1
271 594 m 1
 239 594 l 1
 244 630 l 1
 277 630 l 1
 271 594 l 1
197 533 m 1
 191 500 l 1
 256 500 l 1
 250 463 l 1
 185 463 l 1
 180 430 l 1
 278 430 l 1
 289 500 l 1
 354 500 l 1
 359 533 l 1
 197 533 l 1
317 473 m 1
 307 407 l 1
 177 407 l 1
 171 373 l 1
 334 373 l 1
 350 473 l 1
 317 473 l 1
232 351 m 1
 224 295 l 1
 257 295 l 1
 261 318 l 1
 293 318 l 1
 285 271 l 1
 187 271 l 1
 200 351 l 1
 168 351 l 1
 150 238 l 1
 313 238 l 1
 330 351 l 1
 232 351 l 1
140 178 m 1
 122 65 l 1
 285 65 l 1
 303 178 l 1
 140 178 l 1
258 98 m 1
 160 98 l 1
 167 145 l 1
 265 145 l 1
 258 98 l 1
119 42 m 1
 114 9 l 1
 182 9 l 1
 106 -38 l 1
 101 -71 l 1
 264 -71 l 1
 269 -38 l 1
 169 -38 l 1
 245 9 l 1
 276 9 l 1
 281 42 l 1
 119 42 l 1
EndSplineSet
EndChar

StartChar: A
Encoding: 65 65 2
Width: 688
Flags: W
LayerCount: 2
Fore
SplineSet
422 0 m 1
 414 135 l 1
 228 135 l 1
 177 0 l 1
 -39 0 l 1
 283 730 l 1
 547 730 l 1
 638 0 l 1
 422 0 l 1
289 300 m 1
 405 300 l 1
 389 560 l 1
 387 560 l 1
 289 300 l 1
EndSplineSet
EndChar

StartChar: Aacute
Encoding: 193 193 3
Width: 704
Flags: W
LayerCount: 2
Fore
SplineSet
422 0 m 1
 414 135 l 1
 228 135 l 1
 177 0 l 1
 -39 0 l 1
 283 730 l 1
 547 730 l 1
 638 0 l 1
 422 0 l 1
289 300 m 1
 405 300 l 1
 389 560 l 1
 387 560 l 1
 289 300 l 1
510 770 m 1
 343 770 l 1
 435 980 l 1
 661 980 l 1
 510 770 l 1
EndSplineSet
EndChar

StartChar: Abreve
Encoding: 258 258 4
Width: 704
Flags: W
LayerCount: 2
Fore
SplineSet
422 0 m 1
 414 135 l 1
 228 135 l 1
 177 0 l 1
 -39 0 l 1
 283 730 l 1
 547 730 l 1
 638 0 l 1
 422 0 l 1
289 300 m 1
 405 300 l 1
 389 560 l 1
 387 560 l 1
 289 300 l 1
286 788 m 0
 252 808 227 834 212 867 c 0
 196 900 191 938 198 980 c 1
 365 980 l 1
 364 949 368 927 378 912 c 0
 389 897 406 890 429 890 c 0
 452 890 471 897 486 912 c 0
 501 927 513 949 522 980 c 1
 688 980 l 1
 681 938 665 900 639 867 c 0
 613 834 580 808 540 788 c 0
 499 770 456 760 409 760 c 0
 362 760 321 770 286 788 c 0
EndSplineSet
EndChar

StartChar: uni1EAE
Encoding: 7854 7854 5
Width: 688
Flags: W
LayerCount: 2
Fore
SplineSet
298 788 m 0
 264 808 239 834 224 867 c 0
 208 900 203 938 210 980 c 1
 346 980 l 1
 433 1180 l 1
 659 1180 l 1
 508 970 l 1
 376 970 l 1
 376 943 381 922 392 910 c 0
 402 896 418 890 440 890 c 0
 463 890 482 897 497 912 c 0
 512 927 524 949 533 980 c 1
 700 980 l 1
 693 938 677 900 650 867 c 0
 624 834 591 808 550 788 c 0
 510 770 467 760 420 760 c 0
 373 760 332 770 298 788 c 0
422 0 m 1
 414 135 l 1
 228 135 l 1
 177 0 l 1
 -39 0 l 1
 283 730 l 1
 547 730 l 1
 638 0 l 1
 422 0 l 1
289 300 m 1
 405 300 l 1
 389 560 l 1
 387 560 l 1
 289 300 l 1
EndSplineSet
EndChar

StartChar: uni1EB6
Encoding: 7862 7862 6
Width: 704
Flags: W
LayerCount: 2
Fore
SplineSet
422 0 m 1
 414 135 l 1
 228 135 l 1
 177 0 l 1
 -39 0 l 1
 283 730 l 1
 547 730 l 1
 638 0 l 1
 422 0 l 1
289 300 m 1
 405 300 l 1
 389 560 l 1
 387 560 l 1
 289 300 l 1
223 -50 m 1
 409 -50 l 1
 379 -240 l 1
 193 -240 l 1
 223 -50 l 1
286 788 m 0
 252 808 227 834 212 867 c 0
 196 900 191 938 198 980 c 1
 365 980 l 1
 364 949 368 927 378 912 c 0
 389 897 406 890 429 890 c 0
 452 890 471 897 486 912 c 0
 501 927 513 949 522 980 c 1
 688 980 l 1
 681 938 665 900 639 867 c 0
 613 834 580 808 540 788 c 0
 499 770 456 760 409 760 c 0
 362 760 321 770 286 788 c 0
EndSplineSet
EndChar

StartChar: uni1EB0
Encoding: 7856 7856 7
Width: 688
Flags: W
LayerCount: 2
Fore
SplineSet
495 910 m 0
 510 922 522 943 531 970 c 1
 398 970 l 1
 314 1180 l 1
 539 1180 l 1
 563 980 l 1
 700 980 l 1
 693 938 677 900 650 867 c 0
 624 834 591 808 550 788 c 0
 510 770 467 760 420 760 c 0
 373 760 332 770 298 788 c 0
 264 808 239 834 224 867 c 0
 208 900 203 938 210 980 c 1
 376 980 l 1
 375 949 379 927 390 912 c 0
 400 897 417 890 440 890 c 0
 462 890 480 896 495 910 c 0
422 0 m 1
 414 135 l 1
 228 135 l 1
 177 0 l 1
 -39 0 l 1
 283 730 l 1
 547 730 l 1
 638 0 l 1
 422 0 l 1
289 300 m 1
 405 300 l 1
 389 560 l 1
 387 560 l 1
 289 300 l 1
EndSplineSet
EndChar

StartChar: uni1EB2
Encoding: 7858 7858 8
Width: 688
Flags: W
LayerCount: 2
Fore
SplineSet
495 910 m 0
 510 922 522 943 531 970 c 1
 463 970 l 1
 474 995 480 1015 482 1030 c 0
 484 1042 482 1050 477 1054 c 0
 472 1058 460 1060 443 1060 c 0
 421 1060 396 1058 368 1054 c 0
 340 1049 313 1043 287 1035 c 1
 294 1170 l 1
 323 1176 355 1181 390 1184 c 0
 425 1188 458 1190 488 1190 c 0
 539 1190 577 1187 604 1182 c 0
 630 1176 648 1166 656 1153 c 0
 666 1140 668 1120 664 1095 c 0
 661 1078 656 1058 650 1038 c 0
 642 1016 634 997 625 980 c 1
 700 980 l 1
 693 938 677 900 650 867 c 0
 624 834 591 808 550 788 c 0
 510 770 467 760 420 760 c 0
 373 760 332 770 298 788 c 0
 264 808 239 834 224 867 c 0
 208 900 203 938 210 980 c 1
 376 980 l 1
 375 949 379 927 390 912 c 0
 400 897 417 890 440 890 c 0
 462 890 480 896 495 910 c 0
422 0 m 1
 414 135 l 1
 228 135 l 1
 177 0 l 1
 -39 0 l 1
 283 730 l 1
 547 730 l 1
 638 0 l 1
 422 0 l 1
289 300 m 1
 405 300 l 1
 389 560 l 1
 387 560 l 1
 289 300 l 1
EndSplineSet
EndChar

StartChar: uni1EB4
Encoding: 7860 7860 9
Width: 704
Flags: W
LayerCount: 2
Fore
SplineSet
422 0 m 1
 414 135 l 1
 228 135 l 1
 177 0 l 1
 -39 0 l 1
 283 730 l 1
 547 730 l 1
 638 0 l 1
 422 0 l 1
289 300 m 1
 405 300 l 1
 389 560 l 1
 387 560 l 1
 289 300 l 1
286 788 m 0
 252 808 227 834 212 867 c 0
 196 900 191 938 198 980 c 1
 365 980 l 1
 364 949 368 927 378 912 c 0
 389 897 406 890 429 890 c 0
 452 890 471 897 486 912 c 0
 501 927 513 949 522 980 c 1
 688 980 l 1
 681 938 665 900 639 867 c 0
 613 834 580 808 540 788 c 0
 499 770 456 760 409 760 c 0
 362 760 321 770 286 788 c 0
415 1062 m 0
 393 1077 376 1085 363 1085 c 0
 354 1085 348 1081 344 1072 c 0
 339 1064 335 1047 331 1020 c 1
 186 1020 l 1
 198 1095 217 1150 242 1186 c 0
 268 1222 302 1240 343 1240 c 0
 385 1240 431 1223 480 1188 c 0
 502 1173 519 1165 532 1165 c 0
 541 1165 547 1169 552 1178 c 0
 556 1186 560 1203 564 1230 c 1
 709 1230 l 1
 697 1155 678 1100 653 1064 c 0
 628 1028 594 1010 552 1010 c 0
 510 1010 464 1027 415 1062 c 0
EndSplineSet
EndChar

StartChar: Acircumflex
Encoding: 194 194 10
Width: 704
Flags: W
LayerCount: 2
Fore
SplineSet
422 0 m 1
 414 135 l 1
 228 135 l 1
 177 0 l 1
 -39 0 l 1
 283 730 l 1
 547 730 l 1
 638 0 l 1
 422 0 l 1
289 300 m 1
 405 300 l 1
 389 560 l 1
 387 560 l 1
 289 300 l 1
310 980 m 1
 604 980 l 1
 689 770 l 1
 483 770 l 1
 447 910 l 1
 445 910 l 1
 365 770 l 1
 160 770 l 1
 310 980 l 1
EndSplineSet
EndChar

StartChar: uni1EA4
Encoding: 7844 7844 11
Width: 693
Flags: W
LayerCount: 2
Fore
SplineSet
443 910 m 1
 363 770 l 1
 157 770 l 1
 308 980 l 1
 581 980 l 1
 660 1160 l 1
 885 1160 l 1
 734 950 l 1
 614 950 l 1
 686 770 l 1
 480 770 l 1
 445 910 l 1
 443 910 l 1
283 730 m 1
 547 730 l 1
 638 0 l 1
 422 0 l 1
 414 135 l 1
 228 135 l 1
 177 0 l 1
 -39 0 l 1
 283 730 l 1
289 300 m 1
 405 300 l 1
 389 560 l 1
 387 560 l 1
 289 300 l 1
EndSplineSet
EndChar

StartChar: uni1EAC
Encoding: 7852 7852 12
Width: 704
Flags: W
LayerCount: 2
Fore
SplineSet
422 0 m 1
 414 135 l 1
 228 135 l 1
 177 0 l 1
 -39 0 l 1
 283 730 l 1
 547 730 l 1
 638 0 l 1
 422 0 l 1
289 300 m 1
 405 300 l 1
 389 560 l 1
 387 560 l 1
 289 300 l 1
223 -50 m 1
 409 -50 l 1
 379 -240 l 1
 193 -240 l 1
 223 -50 l 1
310 980 m 1
 604 980 l 1
 689 770 l 1
 483 770 l 1
 447 910 l 1
 445 910 l 1
 365 770 l 1
 160 770 l 1
 310 980 l 1
EndSplineSet
EndChar

StartChar: uni1EA6
Encoding: 7846 7846 13
Width: 693
Flags: W
LayerCount: 2
Fore
SplineSet
291 950 m 1
 170 950 l 1
 86 1160 l 1
 311 1160 l 1
 333 980 l 1
 606 980 l 1
 691 770 l 1
 485 770 l 1
 449 910 l 1
 447 910 l 1
 367 770 l 1
 161 770 l 1
 291 950 l 1
427 0 m 1
 419 135 l 1
 232 135 l 1
 182 0 l 1
 -34 0 l 1
 287 730 l 1
 552 730 l 1
 642 0 l 1
 427 0 l 1
294 300 m 1
 409 300 l 1
 394 560 l 1
 392 560 l 1
 294 300 l 1
EndSplineSet
EndChar

StartChar: uni1EA8
Encoding: 7848 7848 14
Width: 688
Flags: W
LayerCount: 2
Fore
SplineSet
363 770 m 1
 157 770 l 1
 308 980 l 1
 583 980 l 1
 587 991 590 1001 591 1010 c 0
 593 1022 591 1030 586 1034 c 0
 581 1038 569 1040 551 1040 c 0
 529 1040 504 1038 476 1034 c 0
 449 1029 422 1023 396 1015 c 1
 402 1150 l 1
 431 1156 463 1161 498 1164 c 0
 533 1168 566 1170 596 1170 c 0
 647 1170 685 1167 712 1162 c 0
 739 1156 756 1146 766 1133 c 0
 774 1120 777 1100 773 1075 c 0
 770 1056 765 1035 756 1012 c 0
 747 989 738 968 728 950 c 1
 614 950 l 1
 686 770 l 1
 480 770 l 1
 445 910 l 1
 443 910 l 1
 363 770 l 1
422 0 m 1
 414 135 l 1
 228 135 l 1
 177 0 l 1
 -39 0 l 1
 283 730 l 1
 547 730 l 1
 638 0 l 1
 422 0 l 1
289 300 m 1
 405 300 l 1
 389 560 l 1
 387 560 l 1
 289 300 l 1
EndSplineSet
EndChar

StartChar: uni1EAA
Encoding: 7850 7850 15
Width: 704
Flags: W
LayerCount: 2
Fore
SplineSet
422 0 m 1
 414 135 l 1
 228 135 l 1
 177 0 l 1
 -39 0 l 1
 283 730 l 1
 547 730 l 1
 638 0 l 1
 422 0 l 1
289 300 m 1
 405 300 l 1
 389 560 l 1
 387 560 l 1
 289 300 l 1
310 980 m 1
 604 980 l 1
 689 770 l 1
 483 770 l 1
 447 910 l 1
 445 910 l 1
 365 770 l 1
 160 770 l 1
 310 980 l 1
415 1062 m 0
 393 1077 376 1085 363 1085 c 0
 354 1085 348 1081 344 1072 c 0
 339 1064 335 1047 331 1020 c 1
 186 1020 l 1
 198 1095 217 1150 242 1186 c 0
 268 1222 302 1240 343 1240 c 0
 385 1240 431 1223 480 1188 c 0
 502 1173 519 1165 532 1165 c 0
 541 1165 547 1169 552 1178 c 0
 556 1186 560 1203 564 1230 c 1
 709 1230 l 1
 697 1155 678 1100 653 1064 c 0
 628 1028 594 1010 552 1010 c 0
 510 1010 464 1027 415 1062 c 0
EndSplineSet
EndChar

StartChar: uni0200
Encoding: 512 512 16
Width: 704
Flags: W
LayerCount: 2
Fore
SplineSet
422 0 m 1
 414 135 l 1
 228 135 l 1
 177 0 l 1
 -39 0 l 1
 283 730 l 1
 547 730 l 1
 638 0 l 1
 422 0 l 1
289 300 m 1
 405 300 l 1
 389 560 l 1
 387 560 l 1
 289 300 l 1
122 980 m 1
 348 980 l 1
 373 770 l 1
 207 770 l 1
 122 980 l 1
387 980 m 1
 612 980 l 1
 638 770 l 1
 471 770 l 1
 387 980 l 1
EndSplineSet
EndChar

StartChar: Adieresis
Encoding: 196 196 17
Width: 704
Flags: W
LayerCount: 2
Fore
SplineSet
422 0 m 1
 414 135 l 1
 228 135 l 1
 177 0 l 1
 -39 0 l 1
 283 730 l 1
 547 730 l 1
 638 0 l 1
 422 0 l 1
289 300 m 1
 405 300 l 1
 389 560 l 1
 387 560 l 1
 289 300 l 1
224 970 m 1
 410 970 l 1
 380 780 l 1
 194 780 l 1
 224 970 l 1
489 970 m 1
 675 970 l 1
 645 780 l 1
 459 780 l 1
 489 970 l 1
EndSplineSet
EndChar

StartChar: uni1EA0
Encoding: 7840 7840 18
Width: 704
Flags: W
LayerCount: 2
Fore
SplineSet
422 0 m 1
 414 135 l 1
 228 135 l 1
 177 0 l 1
 -39 0 l 1
 283 730 l 1
 547 730 l 1
 638 0 l 1
 422 0 l 1
289 300 m 1
 405 300 l 1
 389 560 l 1
 387 560 l 1
 289 300 l 1
223 -50 m 1
 409 -50 l 1
 379 -240 l 1
 193 -240 l 1
 223 -50 l 1
EndSplineSet
EndChar

StartChar: Agrave
Encoding: 192 192 19
Width: 704
Flags: W
LayerCount: 2
Fore
SplineSet
422 0 m 1
 414 135 l 1
 228 135 l 1
 177 0 l 1
 -39 0 l 1
 283 730 l 1
 547 730 l 1
 638 0 l 1
 422 0 l 1
289 300 m 1
 405 300 l 1
 389 560 l 1
 387 560 l 1
 289 300 l 1
266 980 m 1
 492 980 l 1
 517 770 l 1
 351 770 l 1
 266 980 l 1
EndSplineSet
EndChar

StartChar: uni1EA2
Encoding: 7842 7842 20
Width: 704
Flags: W
LayerCount: 2
Fore
SplineSet
422 0 m 1
 414 135 l 1
 228 135 l 1
 177 0 l 1
 -39 0 l 1
 283 730 l 1
 547 730 l 1
 638 0 l 1
 422 0 l 1
289 300 m 1
 405 300 l 1
 389 560 l 1
 387 560 l 1
 289 300 l 1
491 830 m 0
 493 842 491 850 486 854 c 0
 481 858 469 860 452 860 c 0
 430 860 405 858 377 854 c 0
 349 849 322 843 296 835 c 1
 303 970 l 1
 332 976 364 981 399 984 c 0
 434 988 467 990 497 990 c 0
 548 990 586 987 612 982 c 0
 639 976 656 966 666 953 c 0
 674 940 677 920 673 895 c 0
 670 876 665 855 656 832 c 0
 648 809 639 788 629 770 c 1
 472 770 l 1
 482 795 488 815 491 830 c 0
EndSplineSet
EndChar

StartChar: uni0202
Encoding: 514 514 21
Width: 704
Flags: W
LayerCount: 2
Fore
SplineSet
422 0 m 1
 414 135 l 1
 228 135 l 1
 177 0 l 1
 -39 0 l 1
 283 730 l 1
 547 730 l 1
 638 0 l 1
 422 0 l 1
289 300 m 1
 405 300 l 1
 389 560 l 1
 387 560 l 1
 289 300 l 1
567 962 m 0
 601 942 626 916 642 883 c 0
 657 850 662 812 655 770 c 1
 489 770 l 1
 490 801 485 823 474 838 c 0
 464 853 447 860 424 860 c 0
 401 860 382 853 366 838 c 0
 352 823 340 801 332 770 c 1
 165 770 l 1
 172 812 188 850 214 883 c 0
 241 916 274 942 314 962 c 0
 354 980 398 990 445 990 c 0
 492 990 533 980 567 962 c 0
EndSplineSet
EndChar

StartChar: Amacron
Encoding: 256 256 22
Width: 704
Flags: W
LayerCount: 2
Fore
SplineSet
422 0 m 1
 414 135 l 1
 228 135 l 1
 177 0 l 1
 -39 0 l 1
 283 730 l 1
 547 730 l 1
 638 0 l 1
 422 0 l 1
289 300 m 1
 405 300 l 1
 389 560 l 1
 387 560 l 1
 289 300 l 1
227 945 m 1
 638 945 l 1
 616 805 l 1
 204 805 l 1
 227 945 l 1
EndSplineSet
EndChar

StartChar: Aogonek
Encoding: 260 260 23
Width: 695
Flags: W
LayerCount: 2
Fore
SplineSet
696 -200 m 1
 659 -213 617 -220 570 -220 c 0
 503 -220 453 -208 420 -184 c 0
 387 -160 375 -126 382 -82 c 0
 387 -53 400 -26 422 1 c 1
 414 135 l 1
 228 135 l 1
 177 0 l 1
 -39 0 l 1
 283 730 l 1
 547 730 l 1
 638 0 l 1
 588 -19 561 -38 558 -57 c 0
 557 -66 560 -73 568 -78 c 0
 575 -83 587 -85 604 -85 c 0
 619 -85 635 -83 652 -80 c 0
 670 -76 687 -71 703 -65 c 1
 696 -200 l 1
289 300 m 1
 405 300 l 1
 389 560 l 1
 387 560 l 1
 289 300 l 1
EndSplineSet
EndChar

StartChar: Aring
Encoding: 197 197 24
Width: 688
Flags: W
LayerCount: 2
Fore
SplineSet
414 135 m 1
 228 135 l 1
 177 0 l 1
 -39 0 l 1
 282 728 l 1
 265 758 259 792 265 830 c 0
 270 861 282 889 301 915 c 0
 320 941 344 962 372 977 c 0
 400 992 429 1000 459 1000 c 0
 489 1000 516 992 538 977 c 0
 562 962 578 941 590 915 c 0
 600 889 604 861 599 830 c 0
 593 791 576 757 548 727 c 1
 638 0 l 1
 422 0 l 1
 414 135 l 1
400 869 m 0
 388 858 381 845 378 830 c 0
 375 815 378 802 388 791 c 0
 396 780 408 775 423 775 c 0
 438 775 452 780 464 791 c 0
 476 802 483 815 486 830 c 0
 489 845 486 858 476 869 c 0
 468 880 456 885 441 885 c 0
 426 885 412 880 400 869 c 0
289 300 m 1
 405 300 l 1
 389 560 l 1
 387 560 l 1
 289 300 l 1
EndSplineSet
EndChar

StartChar: Aringacute
Encoding: 506 506 25
Width: 688
Flags: W
LayerCount: 2
Fore
SplineSet
414 135 m 1
 228 135 l 1
 177 0 l 1
 -39 0 l 1
 282 728 l 1
 265 758 259 792 265 830 c 0
 269 855 278 878 291 900 c 0
 304 921 321 940 340 957 c 1
 432 1165 l 1
 657 1165 l 1
 527 984 l 1
 554 970 574 949 586 922 c 0
 600 894 604 863 599 830 c 0
 593 791 576 757 548 727 c 1
 638 0 l 1
 422 0 l 1
 414 135 l 1
400 869 m 0
 388 858 381 845 378 830 c 0
 375 815 378 802 388 791 c 0
 396 780 408 775 423 775 c 0
 438 775 452 780 464 791 c 0
 476 802 483 815 486 830 c 0
 489 845 486 858 476 869 c 0
 468 880 456 885 441 885 c 0
 426 885 412 880 400 869 c 0
289 300 m 1
 405 300 l 1
 389 560 l 1
 387 560 l 1
 289 300 l 1
EndSplineSet
EndChar

StartChar: Atilde
Encoding: 195 195 26
Width: 704
Flags: W
LayerCount: 2
Fore
SplineSet
422 0 m 1
 414 135 l 1
 228 135 l 1
 177 0 l 1
 -39 0 l 1
 283 730 l 1
 547 730 l 1
 638 0 l 1
 422 0 l 1
289 300 m 1
 405 300 l 1
 389 560 l 1
 387 560 l 1
 289 300 l 1
375 812 m 0
 353 827 336 835 323 835 c 0
 314 835 308 831 304 822 c 0
 299 814 295 797 291 770 c 1
 146 770 l 1
 158 845 177 900 202 936 c 0
 228 972 262 990 303 990 c 0
 345 990 391 973 440 938 c 0
 462 923 479 915 492 915 c 0
 501 915 507 919 512 928 c 0
 516 936 520 953 524 980 c 1
 669 980 l 1
 657 905 638 850 613 814 c 0
 588 778 554 760 512 760 c 0
 470 760 424 777 375 812 c 0
EndSplineSet
EndChar

StartChar: AE
Encoding: 198 198 27
Width: 889
Flags: W
LayerCount: 2
Fore
SplineSet
885 570 m 1
 640 570 l 1
 621 453 l 1
 847 453 l 1
 822 298 l 1
 597 298 l 1
 575 160 l 1
 820 160 l 1
 794 0 l 1
 353 0 l 1
 375 135 l 1
 234 135 l 1
 177 0 l 1
 -39 0 l 1
 312 730 l 1
 910 730 l 1
 885 570 l 1
302 300 m 1
 401 300 l 1
 444 570 l 1
 414 570 l 1
 302 300 l 1
EndSplineSet
EndChar

StartChar: AEacute
Encoding: 508 508 28
Width: 912
Flags: W
LayerCount: 2
Fore
SplineSet
885 570 m 1
 640 570 l 1
 621 453 l 1
 847 453 l 1
 822 298 l 1
 597 298 l 1
 575 160 l 1
 820 160 l 1
 794 0 l 1
 353 0 l 1
 375 135 l 1
 234 135 l 1
 177 0 l 1
 -39 0 l 1
 312 730 l 1
 910 730 l 1
 885 570 l 1
302 300 m 1
 401 300 l 1
 444 570 l 1
 414 570 l 1
 302 300 l 1
638 770 m 1
 471 770 l 1
 563 980 l 1
 789 980 l 1
 638 770 l 1
EndSplineSet
EndChar

StartChar: B
Encoding: 66 66 29
Width: 657
Flags: W
LayerCount: 2
Fore
SplineSet
592 329 m 0
 616 300 624 260 616 210 c 0
 605 141 570 89 511 54 c 0
 452 18 371 0 269 0 c 2
 14 0 l 1
 130 730 l 1
 375 730 l 2
 474 730 547 715 594 684 c 0
 641 653 659 609 650 550 c 0
 643 505 624 469 594 440 c 0
 563 411 524 393 477 386 c 1
 477 384 l 1
 530 377 568 358 592 329 c 0
301 575 m 1
 281 450 l 1
 340 450 l 2
 377 450 403 455 419 464 c 0
 435 473 445 489 448 512 c 0
 451 535 446 551 434 560 c 0
 420 570 396 575 360 575 c 2
 301 575 l 1
382 172 m 0
 402 184 414 203 418 228 c 0
 422 253 416 272 400 283 c 0
 383 294 355 300 316 300 c 2
 258 300 l 1
 235 155 l 1
 293 155 l 2
 332 155 361 161 382 172 c 0
EndSplineSet
EndChar

StartChar: C
Encoding: 67 67 30
Width: 677
Flags: W
LayerCount: 2
Fore
SplineSet
92 87 m 0
 39 152 23 244 42 365 c 0
 61 486 107 578 180 643 c 0
 253 708 347 740 464 740 c 0
 558 740 638 718 703 674 c 1
 600 519 l 1
 573 536 547 549 522 558 c 0
 498 566 473 570 447 570 c 0
 392 570 346 552 312 517 c 0
 276 482 254 431 243 365 c 0
 232 299 239 248 263 213 c 0
 287 178 327 160 382 160 c 0
 408 160 434 164 462 172 c 0
 488 181 519 194 552 211 c 1
 605 56 l 1
 526 12 439 -10 345 -10 c 0
 229 -10 145 22 92 87 c 0
EndSplineSet
EndChar

StartChar: Cacute
Encoding: 262 262 31
Width: 696
Flags: W
LayerCount: 2
Fore
SplineSet
92 87 m 0
 39 152 23 244 42 365 c 0
 61 486 107 578 180 643 c 0
 253 708 347 740 464 740 c 0
 558 740 638 718 703 674 c 1
 600 519 l 1
 573 536 547 549 522 558 c 0
 498 566 473 570 447 570 c 0
 392 570 346 552 312 517 c 0
 276 482 254 431 243 365 c 0
 232 299 239 248 263 213 c 0
 287 178 327 160 382 160 c 0
 408 160 434 164 462 172 c 0
 488 181 519 194 552 211 c 1
 605 56 l 1
 526 12 439 -10 345 -10 c 0
 229 -10 145 22 92 87 c 0
538 770 m 1
 371 770 l 1
 463 980 l 1
 689 980 l 1
 538 770 l 1
EndSplineSet
EndChar

StartChar: Ccaron
Encoding: 268 268 32
Width: 696
Flags: W
LayerCount: 2
Fore
SplineSet
92 87 m 0
 39 152 23 244 42 365 c 0
 61 486 107 578 180 643 c 0
 253 708 347 740 464 740 c 0
 558 740 638 718 703 674 c 1
 600 519 l 1
 573 536 547 549 522 558 c 0
 498 566 473 570 447 570 c 0
 392 570 346 552 312 517 c 0
 276 482 254 431 243 365 c 0
 232 299 239 248 263 213 c 0
 287 178 327 160 382 160 c 0
 408 160 434 164 462 172 c 0
 488 181 519 194 552 211 c 1
 605 56 l 1
 526 12 439 -10 345 -10 c 0
 229 -10 145 22 92 87 c 0
211 980 m 1
 417 980 l 1
 452 840 l 1
 454 840 l 1
 534 980 l 1
 740 980 l 1
 589 770 l 1
 295 770 l 1
 211 980 l 1
EndSplineSet
EndChar

StartChar: Ccedilla
Encoding: 199 199 33
Width: 677
Flags: W
LayerCount: 2
Fore
SplineSet
605 56 m 1
 560 31 513 13 464 2 c 1
 479 -24 484 -52 479 -82 c 0
 472 -126 449 -160 408 -184 c 0
 367 -208 313 -220 246 -220 c 0
 199 -220 160 -213 127 -200 c 1
 163 -65 l 1
 177 -71 192 -76 209 -80 c 0
 226 -83 241 -85 256 -85 c 0
 272 -85 285 -83 294 -78 c 0
 303 -73 309 -66 310 -57 c 0
 313 -38 294 -19 253 -2 c 1
 168 14 107 53 71 116 c 0
 35 179 25 262 42 365 c 0
 61 486 107 578 180 643 c 0
 253 708 347 740 464 740 c 0
 558 740 638 718 703 674 c 1
 600 519 l 1
 573 536 547 549 522 558 c 0
 498 566 473 570 447 570 c 0
 392 570 346 552 312 517 c 0
 276 482 254 431 243 365 c 0
 232 299 239 248 263 213 c 0
 287 178 327 160 382 160 c 0
 408 160 434 164 462 172 c 0
 488 181 519 194 552 211 c 1
 605 56 l 1
EndSplineSet
EndChar

StartChar: Ccircumflex
Encoding: 264 264 34
Width: 696
Flags: W
LayerCount: 2
Fore
SplineSet
92 87 m 0
 39 152 23 244 42 365 c 0
 61 486 107 578 180 643 c 0
 253 708 347 740 464 740 c 0
 558 740 638 718 703 674 c 1
 600 519 l 1
 573 536 547 549 522 558 c 0
 498 566 473 570 447 570 c 0
 392 570 346 552 312 517 c 0
 276 482 254 431 243 365 c 0
 232 299 239 248 263 213 c 0
 287 178 327 160 382 160 c 0
 408 160 434 164 462 172 c 0
 488 181 519 194 552 211 c 1
 605 56 l 1
 526 12 439 -10 345 -10 c 0
 229 -10 145 22 92 87 c 0
338 980 m 1
 632 980 l 1
 717 770 l 1
 511 770 l 1
 475 910 l 1
 473 910 l 1
 393 770 l 1
 188 770 l 1
 338 980 l 1
EndSplineSet
EndChar

StartChar: Cdotaccent
Encoding: 266 266 35
Width: 696
Flags: W
LayerCount: 2
Fore
SplineSet
92 87 m 0
 39 152 23 244 42 365 c 0
 61 486 107 578 180 643 c 0
 253 708 347 740 464 740 c 0
 558 740 638 718 703 674 c 1
 600 519 l 1
 573 536 547 549 522 558 c 0
 498 566 473 570 447 570 c 0
 392 570 346 552 312 517 c 0
 276 482 254 431 243 365 c 0
 232 299 239 248 263 213 c 0
 287 178 327 160 382 160 c 0
 408 160 434 164 462 172 c 0
 488 181 519 194 552 211 c 1
 605 56 l 1
 526 12 439 -10 345 -10 c 0
 229 -10 145 22 92 87 c 0
413 970 m 1
 599 970 l 1
 569 780 l 1
 383 780 l 1
 413 970 l 1
EndSplineSet
EndChar

StartChar: D
Encoding: 68 68 36
Width: 676
Flags: W
LayerCount: 2
Fore
SplineSet
355 730 m 2
 440 730 507 717 556 692 c 0
 605 667 638 627 655 574 c 0
 672 521 673 451 660 365 c 0
 647 279 623 209 590 156 c 0
 556 103 510 63 453 38 c 0
 396 13 325 0 240 0 c 2
 14 0 l 1
 130 730 l 1
 355 730 l 2
371 178 m 0
 394 191 413 212 426 240 c 0
 439 270 450 311 459 365 c 0
 468 419 470 460 466 490 c 0
 461 518 449 539 430 552 c 0
 411 564 382 570 343 570 c 2
 300 570 l 1
 235 160 l 1
 278 160 l 2
 317 160 348 166 371 178 c 0
EndSplineSet
EndChar

StartChar: uni01C4
Encoding: 452 452 37
Width: 1311
Flags: W
LayerCount: 2
Fore
SplineSet
355 730 m 2
 440 730 507 717 556 692 c 0
 605 667 638 627 655 574 c 0
 672 521 673 451 660 365 c 0
 647 279 623 209 590 156 c 0
 556 103 510 63 453 38 c 0
 396 13 325 0 240 0 c 2
 14 0 l 1
 130 730 l 1
 355 730 l 2
371 178 m 0
 394 191 413 212 426 240 c 0
 439 270 450 311 459 365 c 0
 468 419 470 460 466 490 c 0
 461 518 449 539 430 552 c 0
 411 564 382 570 343 570 c 2
 300 570 l 1
 235 160 l 1
 278 160 l 2
 317 160 348 166 371 178 c 0
695 165 m 1
 1057 563 l 1
 1058 565 l 1
 759 565 l 1
 785 730 l 1
 1314 730 l 1
 1288 565 l 1
 926 167 l 1
 926 165 l 1
 1225 165 l 1
 1199 0 l 1
 669 0 l 1
 695 165 l 1
820 980 m 1
 1026 980 l 1
 1061 840 l 1
 1063 840 l 1
 1143 980 l 1
 1349 980 l 1
 1198 770 l 1
 904 770 l 1
 820 980 l 1
EndSplineSet
EndChar

StartChar: Eth
Encoding: 208 208 38
Width: 740
Flags: W
LayerCount: 2
Fore
SplineSet
620 692 m 0
 669 667 702 627 719 574 c 0
 736 521 737 451 724 365 c 0
 711 279 687 209 653 156 c 0
 619 103 574 63 516 38 c 0
 460 13 388 0 303 0 c 2
 78 0 l 1
 125 295 l 1
 22 295 l 1
 44 435 l 1
 147 435 l 1
 194 730 l 1
 419 730 l 2
 504 730 571 717 620 692 c 0
435 178 m 0
 458 191 477 212 490 240 c 0
 503 270 514 311 523 365 c 0
 532 419 534 460 530 490 c 0
 525 518 513 539 494 552 c 0
 475 564 445 570 406 570 c 2
 364 570 l 1
 343 435 l 1
 461 435 l 1
 439 295 l 1
 321 295 l 1
 299 160 l 1
 341 160 l 2
 380 160 412 166 435 178 c 0
EndSplineSet
EndChar

StartChar: Dcaron
Encoding: 270 270 39
Width: 697
Flags: W
LayerCount: 2
Fore
SplineSet
355 730 m 2
 440 730 507 717 556 692 c 0
 605 667 638 627 655 574 c 0
 672 521 673 451 660 365 c 0
 647 279 623 209 590 156 c 0
 556 103 510 63 453 38 c 0
 396 13 325 0 240 0 c 2
 14 0 l 1
 130 730 l 1
 355 730 l 2
371 178 m 0
 394 191 413 212 426 240 c 0
 439 270 450 311 459 365 c 0
 468 419 470 460 466 490 c 0
 461 518 449 539 430 552 c 0
 411 564 382 570 343 570 c 2
 300 570 l 1
 235 160 l 1
 278 160 l 2
 317 160 348 166 371 178 c 0
180 980 m 1
 386 980 l 1
 421 840 l 1
 423 840 l 1
 503 980 l 1
 709 980 l 1
 558 770 l 1
 264 770 l 1
 180 980 l 1
EndSplineSet
EndChar

StartChar: Dcroat
Encoding: 272 272 40
Width: 759
Flags: W
LayerCount: 2
Fore
SplineSet
620 692 m 0
 669 667 702 627 719 574 c 0
 736 521 737 451 724 365 c 0
 711 279 687 209 653 156 c 0
 619 103 574 63 516 38 c 0
 460 13 388 0 303 0 c 2
 78 0 l 1
 125 295 l 1
 22 295 l 1
 44 435 l 1
 147 435 l 1
 194 730 l 1
 419 730 l 2
 504 730 571 717 620 692 c 0
435 178 m 0
 458 191 477 212 490 240 c 0
 503 270 514 311 523 365 c 0
 532 419 534 460 530 490 c 0
 525 518 513 539 494 552 c 0
 475 564 445 570 406 570 c 2
 364 570 l 1
 343 435 l 1
 461 435 l 1
 439 295 l 1
 321 295 l 1
 299 160 l 1
 341 160 l 2
 380 160 412 166 435 178 c 0
EndSplineSet
EndChar

StartChar: uni01C5
Encoding: 453 453 41
Width: 1263
Flags: W
LayerCount: 2
Fore
SplineSet
355 730 m 2
 440 730 507 717 556 692 c 0
 605 667 638 627 655 574 c 0
 672 521 673 451 660 365 c 0
 647 279 623 209 590 156 c 0
 556 103 510 63 453 38 c 0
 396 13 325 0 240 0 c 2
 14 0 l 1
 130 730 l 1
 355 730 l 2
371 178 m 0
 394 191 413 212 426 240 c 0
 439 270 450 311 459 365 c 0
 468 419 470 460 466 490 c 0
 461 518 449 539 430 552 c 0
 411 564 382 570 343 570 c 2
 300 570 l 1
 235 160 l 1
 278 160 l 2
 317 160 348 166 371 178 c 0
712 140 m 1
 962 378 l 1
 962 380 l 1
 750 380 l 1
 773 520 l 1
 1219 520 l 1
 1197 380 l 1
 947 142 l 1
 947 140 l 1
 1159 140 l 1
 1137 0 l 1
 690 0 l 1
 712 140 l 1
773 770 m 1
 979 770 l 1
 1014 630 l 1
 1016 630 l 1
 1096 770 l 1
 1302 770 l 1
 1151 560 l 1
 857 560 l 1
 773 770 l 1
EndSplineSet
EndChar

StartChar: E
Encoding: 69 69 42
Width: 589
Flags: W
LayerCount: 2
Fore
SplineSet
130 730 m 1
 610 730 l 1
 585 570 l 1
 300 570 l 1
 282 453 l 1
 546 453 l 1
 522 298 l 1
 257 298 l 1
 235 160 l 1
 520 160 l 1
 494 0 l 1
 14 0 l 1
 130 730 l 1
EndSplineSet
EndChar

StartChar: Eacute
Encoding: 201 201 43
Width: 610
Flags: W
LayerCount: 2
Fore
SplineSet
130 730 m 1
 610 730 l 1
 585 570 l 1
 300 570 l 1
 282 453 l 1
 546 453 l 1
 522 298 l 1
 257 298 l 1
 235 160 l 1
 520 160 l 1
 494 0 l 1
 14 0 l 1
 130 730 l 1
468 770 m 1
 301 770 l 1
 393 980 l 1
 619 980 l 1
 468 770 l 1
EndSplineSet
EndChar

StartChar: Ebreve
Encoding: 276 276 44
Width: 610
Flags: W
LayerCount: 2
Fore
SplineSet
130 730 m 1
 610 730 l 1
 585 570 l 1
 300 570 l 1
 282 453 l 1
 546 453 l 1
 522 298 l 1
 257 298 l 1
 235 160 l 1
 520 160 l 1
 494 0 l 1
 14 0 l 1
 130 730 l 1
244 788 m 0
 210 808 185 834 170 867 c 0
 154 900 149 938 156 980 c 1
 323 980 l 1
 322 949 326 927 336 912 c 0
 347 897 364 890 387 890 c 0
 410 890 429 897 444 912 c 0
 459 927 471 949 480 980 c 1
 646 980 l 1
 639 938 623 900 597 867 c 0
 571 834 538 808 498 788 c 0
 457 770 414 760 367 760 c 0
 320 760 279 770 244 788 c 0
EndSplineSet
EndChar

StartChar: Ecaron
Encoding: 282 282 45
Width: 610
Flags: W
LayerCount: 2
Fore
SplineSet
130 730 m 1
 610 730 l 1
 585 570 l 1
 300 570 l 1
 282 453 l 1
 546 453 l 1
 522 298 l 1
 257 298 l 1
 235 160 l 1
 520 160 l 1
 494 0 l 1
 14 0 l 1
 130 730 l 1
141 980 m 1
 347 980 l 1
 382 840 l 1
 384 840 l 1
 464 980 l 1
 670 980 l 1
 519 770 l 1
 225 770 l 1
 141 980 l 1
EndSplineSet
EndChar

StartChar: Ecircumflex
Encoding: 202 202 46
Width: 610
Flags: W
LayerCount: 2
Fore
SplineSet
130 730 m 1
 610 730 l 1
 585 570 l 1
 300 570 l 1
 282 453 l 1
 546 453 l 1
 522 298 l 1
 257 298 l 1
 235 160 l 1
 520 160 l 1
 494 0 l 1
 14 0 l 1
 130 730 l 1
268 980 m 1
 562 980 l 1
 647 770 l 1
 441 770 l 1
 405 910 l 1
 403 910 l 1
 323 770 l 1
 118 770 l 1
 268 980 l 1
EndSplineSet
EndChar

StartChar: uni1EBE
Encoding: 7870 7870 47
Width: 602
Flags: W
LayerCount: 2
Fore
SplineSet
842 1160 m 1
 691 950 l 1
 570 950 l 1
 643 770 l 1
 437 770 l 1
 401 910 l 1
 399 910 l 1
 319 770 l 1
 113 770 l 1
 264 980 l 1
 538 980 l 1
 616 1160 l 1
 842 1160 l 1
16 0 m 1
 132 730 l 1
 612 730 l 1
 586 570 l 1
 302 570 l 1
 284 453 l 1
 548 453 l 1
 524 298 l 1
 259 298 l 1
 237 160 l 1
 521 160 l 1
 496 0 l 1
 16 0 l 1
EndSplineSet
EndChar

StartChar: uni1EC6
Encoding: 7878 7878 48
Width: 610
Flags: W
LayerCount: 2
Fore
SplineSet
130 730 m 1
 610 730 l 1
 585 570 l 1
 300 570 l 1
 282 453 l 1
 546 453 l 1
 522 298 l 1
 257 298 l 1
 235 160 l 1
 520 160 l 1
 494 0 l 1
 14 0 l 1
 130 730 l 1
181 -50 m 1
 367 -50 l 1
 337 -240 l 1
 151 -240 l 1
 181 -50 l 1
268 980 m 1
 562 980 l 1
 647 770 l 1
 441 770 l 1
 405 910 l 1
 403 910 l 1
 323 770 l 1
 118 770 l 1
 268 980 l 1
EndSplineSet
EndChar

StartChar: uni1EC0
Encoding: 7872 7872 49
Width: 602
Flags: W
LayerCount: 2
Fore
SplineSet
329 770 m 1
 123 770 l 1
 253 950 l 1
 132 950 l 1
 48 1160 l 1
 273 1160 l 1
 295 980 l 1
 568 980 l 1
 652 770 l 1
 447 770 l 1
 411 910 l 1
 409 910 l 1
 329 770 l 1
26 0 m 1
 141 730 l 1
 622 730 l 1
 596 570 l 1
 312 570 l 1
 293 453 l 1
 558 453 l 1
 533 298 l 1
 269 298 l 1
 247 160 l 1
 531 160 l 1
 506 0 l 1
 26 0 l 1
EndSplineSet
EndChar

StartChar: uni1EC2
Encoding: 7874 7874 50
Width: 595
Flags: W
LayerCount: 2
Fore
SplineSet
712 1012 m 0
 704 989 695 968 685 950 c 1
 570 950 l 1
 643 770 l 1
 437 770 l 1
 401 910 l 1
 399 910 l 1
 319 770 l 1
 113 770 l 1
 264 980 l 1
 540 980 l 1
 544 991 546 1001 547 1010 c 0
 549 1022 547 1030 542 1034 c 0
 537 1038 525 1040 508 1040 c 0
 486 1040 461 1038 433 1034 c 0
 405 1029 378 1023 352 1015 c 1
 359 1150 l 1
 388 1156 420 1161 455 1164 c 0
 490 1168 523 1170 553 1170 c 0
 604 1170 642 1167 668 1162 c 0
 695 1156 712 1146 722 1133 c 0
 730 1120 733 1100 729 1075 c 0
 726 1056 721 1035 712 1012 c 0
16 0 m 1
 132 730 l 1
 612 730 l 1
 586 570 l 1
 302 570 l 1
 284 453 l 1
 548 453 l 1
 524 298 l 1
 259 298 l 1
 237 160 l 1
 521 160 l 1
 496 0 l 1
 16 0 l 1
EndSplineSet
EndChar

StartChar: uni1EC4
Encoding: 7876 7876 51
Width: 610
Flags: W
LayerCount: 2
Fore
SplineSet
130 730 m 1
 610 730 l 1
 585 570 l 1
 300 570 l 1
 282 453 l 1
 546 453 l 1
 522 298 l 1
 257 298 l 1
 235 160 l 1
 520 160 l 1
 494 0 l 1
 14 0 l 1
 130 730 l 1
268 980 m 1
 562 980 l 1
 647 770 l 1
 441 770 l 1
 405 910 l 1
 403 910 l 1
 323 770 l 1
 118 770 l 1
 268 980 l 1
373 1062 m 0
 351 1077 334 1085 321 1085 c 0
 312 1085 306 1081 302 1072 c 0
 297 1064 293 1047 289 1020 c 1
 144 1020 l 1
 156 1095 175 1150 200 1186 c 0
 226 1222 260 1240 301 1240 c 0
 343 1240 389 1223 438 1188 c 0
 460 1173 477 1165 490 1165 c 0
 499 1165 505 1169 510 1178 c 0
 514 1186 518 1203 522 1230 c 1
 667 1230 l 1
 655 1155 636 1100 611 1064 c 0
 586 1028 552 1010 510 1010 c 0
 468 1010 422 1027 373 1062 c 0
EndSplineSet
EndChar

StartChar: uni0204
Encoding: 516 516 52
Width: 610
Flags: W
LayerCount: 2
Fore
SplineSet
130 730 m 1
 610 730 l 1
 585 570 l 1
 300 570 l 1
 282 453 l 1
 546 453 l 1
 522 298 l 1
 257 298 l 1
 235 160 l 1
 520 160 l 1
 494 0 l 1
 14 0 l 1
 130 730 l 1
80 980 m 1
 306 980 l 1
 331 770 l 1
 165 770 l 1
 80 980 l 1
345 980 m 1
 570 980 l 1
 596 770 l 1
 429 770 l 1
 345 980 l 1
EndSplineSet
EndChar

StartChar: Edieresis
Encoding: 203 203 53
Width: 610
Flags: W
LayerCount: 2
Fore
SplineSet
130 730 m 1
 610 730 l 1
 585 570 l 1
 300 570 l 1
 282 453 l 1
 546 453 l 1
 522 298 l 1
 257 298 l 1
 235 160 l 1
 520 160 l 1
 494 0 l 1
 14 0 l 1
 130 730 l 1
182 970 m 1
 368 970 l 1
 338 780 l 1
 152 780 l 1
 182 970 l 1
447 970 m 1
 633 970 l 1
 603 780 l 1
 417 780 l 1
 447 970 l 1
EndSplineSet
EndChar

StartChar: Edotaccent
Encoding: 278 278 54
Width: 610
Flags: W
LayerCount: 2
Fore
SplineSet
130 730 m 1
 610 730 l 1
 585 570 l 1
 300 570 l 1
 282 453 l 1
 546 453 l 1
 522 298 l 1
 257 298 l 1
 235 160 l 1
 520 160 l 1
 494 0 l 1
 14 0 l 1
 130 730 l 1
343 970 m 1
 529 970 l 1
 499 780 l 1
 313 780 l 1
 343 970 l 1
EndSplineSet
EndChar

StartChar: uni1EB8
Encoding: 7864 7864 55
Width: 610
Flags: W
LayerCount: 2
Fore
SplineSet
130 730 m 1
 610 730 l 1
 585 570 l 1
 300 570 l 1
 282 453 l 1
 546 453 l 1
 522 298 l 1
 257 298 l 1
 235 160 l 1
 520 160 l 1
 494 0 l 1
 14 0 l 1
 130 730 l 1
181 -50 m 1
 367 -50 l 1
 337 -240 l 1
 151 -240 l 1
 181 -50 l 1
EndSplineSet
EndChar

StartChar: Egrave
Encoding: 200 200 56
Width: 610
Flags: W
LayerCount: 2
Fore
SplineSet
130 730 m 1
 610 730 l 1
 585 570 l 1
 300 570 l 1
 282 453 l 1
 546 453 l 1
 522 298 l 1
 257 298 l 1
 235 160 l 1
 520 160 l 1
 494 0 l 1
 14 0 l 1
 130 730 l 1
224 980 m 1
 450 980 l 1
 475 770 l 1
 309 770 l 1
 224 980 l 1
EndSplineSet
EndChar

StartChar: uni1EBA
Encoding: 7866 7866 57
Width: 610
Flags: W
LayerCount: 2
Fore
SplineSet
130 730 m 1
 610 730 l 1
 585 570 l 1
 300 570 l 1
 282 453 l 1
 546 453 l 1
 522 298 l 1
 257 298 l 1
 235 160 l 1
 520 160 l 1
 494 0 l 1
 14 0 l 1
 130 730 l 1
449 830 m 0
 451 842 449 850 444 854 c 0
 439 858 427 860 410 860 c 0
 388 860 363 858 335 854 c 0
 307 849 280 843 254 835 c 1
 261 970 l 1
 290 976 322 981 357 984 c 0
 392 988 425 990 455 990 c 0
 506 990 544 987 570 982 c 0
 597 976 614 966 624 953 c 0
 632 940 635 920 631 895 c 0
 628 876 623 855 614 832 c 0
 606 809 597 788 587 770 c 1
 430 770 l 1
 440 795 446 815 449 830 c 0
EndSplineSet
EndChar

StartChar: uni0206
Encoding: 518 518 58
Width: 610
Flags: W
LayerCount: 2
Fore
SplineSet
130 730 m 1
 610 730 l 1
 585 570 l 1
 300 570 l 1
 282 453 l 1
 546 453 l 1
 522 298 l 1
 257 298 l 1
 235 160 l 1
 520 160 l 1
 494 0 l 1
 14 0 l 1
 130 730 l 1
525 962 m 0
 559 942 584 916 600 883 c 0
 615 850 620 812 613 770 c 1
 447 770 l 1
 448 801 443 823 432 838 c 0
 422 853 405 860 382 860 c 0
 359 860 340 853 324 838 c 0
 310 823 298 801 290 770 c 1
 123 770 l 1
 130 812 146 850 172 883 c 0
 199 916 232 942 272 962 c 0
 312 980 356 990 403 990 c 0
 450 990 491 980 525 962 c 0
EndSplineSet
EndChar

StartChar: Emacron
Encoding: 274 274 59
Width: 610
Flags: W
LayerCount: 2
Fore
SplineSet
130 730 m 1
 610 730 l 1
 585 570 l 1
 300 570 l 1
 282 453 l 1
 546 453 l 1
 522 298 l 1
 257 298 l 1
 235 160 l 1
 520 160 l 1
 494 0 l 1
 14 0 l 1
 130 730 l 1
185 945 m 1
 596 945 l 1
 574 805 l 1
 162 805 l 1
 185 945 l 1
EndSplineSet
EndChar

StartChar: Eogonek
Encoding: 280 280 60
Width: 595
Flags: W
LayerCount: 2
Fore
SplineSet
553 -200 m 1
 516 -213 474 -220 427 -220 c 0
 360 -220 310 -208 277 -184 c 0
 244 -160 231 -126 238 -82 c 0
 243 -54 256 -27 279 0 c 1
 14 0 l 1
 130 730 l 1
 610 730 l 1
 585 570 l 1
 300 570 l 1
 282 453 l 1
 546 453 l 1
 522 298 l 1
 257 298 l 1
 235 160 l 1
 520 160 l 1
 494 0 l 1
 444 -19 418 -38 415 -57 c 0
 414 -66 417 -73 424 -78 c 0
 432 -83 444 -85 460 -85 c 0
 475 -85 491 -83 509 -80 c 0
 527 -76 544 -71 560 -65 c 1
 553 -200 l 1
EndSplineSet
EndChar

StartChar: uni1EBC
Encoding: 7868 7868 61
Width: 610
Flags: W
LayerCount: 2
Fore
SplineSet
130 730 m 1
 610 730 l 1
 585 570 l 1
 300 570 l 1
 282 453 l 1
 546 453 l 1
 522 298 l 1
 257 298 l 1
 235 160 l 1
 520 160 l 1
 494 0 l 1
 14 0 l 1
 130 730 l 1
333 812 m 0
 311 827 294 835 281 835 c 0
 272 835 266 831 262 822 c 0
 257 814 253 797 249 770 c 1
 104 770 l 1
 116 845 135 900 160 936 c 0
 186 972 220 990 261 990 c 0
 303 990 349 973 398 938 c 0
 420 923 437 915 450 915 c 0
 459 915 465 919 470 928 c 0
 474 936 478 953 482 980 c 1
 627 980 l 1
 615 905 596 850 571 814 c 0
 546 778 512 760 470 760 c 0
 428 760 382 777 333 812 c 0
EndSplineSet
EndChar

StartChar: F
Encoding: 70 70 62
Width: 583
Flags: W
LayerCount: 2
Fore
SplineSet
130 730 m 1
 610 730 l 1
 584 565 l 1
 300 565 l 1
 278 430 l 1
 543 430 l 1
 518 270 l 1
 253 270 l 1
 210 0 l 1
 14 0 l 1
 130 730 l 1
EndSplineSet
EndChar

StartChar: G
Encoding: 71 71 63
Width: 745
Flags: W
LayerCount: 2
Fore
SplineSet
722 452 m 1
 658 50 l 1
 618 31 574 16 526 6 c 0
 477 -5 427 -10 375 -10 c 0
 294 -10 226 5 172 34 c 0
 117 64 79 107 56 164 c 0
 34 220 29 287 42 365 c 0
 55 443 81 510 120 566 c 0
 160 623 212 666 276 696 c 0
 339 725 412 740 493 740 c 0
 594 740 674 718 733 674 c 1
 636 524 l 1
 585 558 528 575 467 575 c 0
 340 575 265 505 243 365 c 0
 221 225 274 155 401 155 c 0
 428 155 454 159 481 166 c 1
 500 287 l 1
 358 287 l 1
 384 452 l 1
 722 452 l 1
EndSplineSet
EndChar

StartChar: Gbreve
Encoding: 286 286 64
Width: 767
Flags: W
LayerCount: 2
Fore
SplineSet
722 452 m 1
 658 50 l 1
 618 31 574 16 526 6 c 0
 477 -5 427 -10 375 -10 c 0
 294 -10 226 5 172 34 c 0
 117 64 79 107 56 164 c 0
 34 220 29 287 42 365 c 0
 55 443 81 510 120 566 c 0
 160 623 212 666 276 696 c 0
 339 725 412 740 493 740 c 0
 594 740 674 718 733 674 c 1
 636 524 l 1
 585 558 528 575 467 575 c 0
 340 575 265 505 243 365 c 0
 221 225 274 155 401 155 c 0
 428 155 454 159 481 166 c 1
 500 287 l 1
 358 287 l 1
 384 452 l 1
 722 452 l 1
334 788 m 0
 300 808 275 834 260 867 c 0
 244 900 239 938 246 980 c 1
 413 980 l 1
 412 949 416 927 426 912 c 0
 437 897 454 890 477 890 c 0
 500 890 519 897 534 912 c 0
 549 927 561 949 570 980 c 1
 736 980 l 1
 729 938 713 900 687 867 c 0
 661 834 628 808 588 788 c 0
 547 770 504 760 457 760 c 0
 410 760 369 770 334 788 c 0
EndSplineSet
EndChar

StartChar: Gcaron
Encoding: 486 486 65
Width: 767
Flags: W
LayerCount: 2
Fore
SplineSet
722 452 m 1
 658 50 l 1
 618 31 574 16 526 6 c 0
 477 -5 427 -10 375 -10 c 0
 294 -10 226 5 172 34 c 0
 117 64 79 107 56 164 c 0
 34 220 29 287 42 365 c 0
 55 443 81 510 120 566 c 0
 160 623 212 666 276 696 c 0
 339 725 412 740 493 740 c 0
 594 740 674 718 733 674 c 1
 636 524 l 1
 585 558 528 575 467 575 c 0
 340 575 265 505 243 365 c 0
 221 225 274 155 401 155 c 0
 428 155 454 159 481 166 c 1
 500 287 l 1
 358 287 l 1
 384 452 l 1
 722 452 l 1
231 980 m 1
 437 980 l 1
 472 840 l 1
 474 840 l 1
 554 980 l 1
 760 980 l 1
 609 770 l 1
 315 770 l 1
 231 980 l 1
EndSplineSet
EndChar

StartChar: Gcircumflex
Encoding: 284 284 66
Width: 767
Flags: W
LayerCount: 2
Fore
SplineSet
722 452 m 1
 658 50 l 1
 618 31 574 16 526 6 c 0
 477 -5 427 -10 375 -10 c 0
 294 -10 226 5 172 34 c 0
 117 64 79 107 56 164 c 0
 34 220 29 287 42 365 c 0
 55 443 81 510 120 566 c 0
 160 623 212 666 276 696 c 0
 339 725 412 740 493 740 c 0
 594 740 674 718 733 674 c 1
 636 524 l 1
 585 558 528 575 467 575 c 0
 340 575 265 505 243 365 c 0
 221 225 274 155 401 155 c 0
 428 155 454 159 481 166 c 1
 500 287 l 1
 358 287 l 1
 384 452 l 1
 722 452 l 1
358 980 m 1
 652 980 l 1
 737 770 l 1
 531 770 l 1
 495 910 l 1
 493 910 l 1
 413 770 l 1
 208 770 l 1
 358 980 l 1
EndSplineSet
EndChar

StartChar: uni0122
Encoding: 290 290 67
Width: 767
Flags: W
LayerCount: 2
Fore
SplineSet
722 452 m 1
 658 50 l 1
 618 31 574 16 526 6 c 0
 477 -5 427 -10 375 -10 c 0
 294 -10 226 5 172 34 c 0
 117 64 79 107 56 164 c 0
 34 220 29 287 42 365 c 0
 55 443 81 510 120 566 c 0
 160 623 212 666 276 696 c 0
 339 725 412 740 493 740 c 0
 594 740 674 718 733 674 c 1
 636 524 l 1
 585 558 528 575 467 575 c 0
 340 575 265 505 243 365 c 0
 221 225 274 155 401 155 c 0
 428 155 454 159 481 166 c 1
 500 287 l 1
 358 287 l 1
 384 452 l 1
 722 452 l 1
285 -250 m 1
 119 -250 l 1
 211 -40 l 1
 436 -40 l 1
 285 -250 l 1
EndSplineSet
EndChar

StartChar: Gdotaccent
Encoding: 288 288 68
Width: 767
Flags: W
LayerCount: 2
Fore
SplineSet
722 452 m 1
 658 50 l 1
 618 31 574 16 526 6 c 0
 477 -5 427 -10 375 -10 c 0
 294 -10 226 5 172 34 c 0
 117 64 79 107 56 164 c 0
 34 220 29 287 42 365 c 0
 55 443 81 510 120 566 c 0
 160 623 212 666 276 696 c 0
 339 725 412 740 493 740 c 0
 594 740 674 718 733 674 c 1
 636 524 l 1
 585 558 528 575 467 575 c 0
 340 575 265 505 243 365 c 0
 221 225 274 155 401 155 c 0
 428 155 454 159 481 166 c 1
 500 287 l 1
 358 287 l 1
 384 452 l 1
 722 452 l 1
433 970 m 1
 619 970 l 1
 589 780 l 1
 403 780 l 1
 433 970 l 1
EndSplineSet
EndChar

StartChar: H
Encoding: 72 72 69
Width: 706
Flags: W
LayerCount: 2
Fore
SplineSet
522 730 m 1
 718 730 l 1
 602 0 l 1
 406 0 l 1
 453 295 l 1
 257 295 l 1
 210 0 l 1
 14 0 l 1
 130 730 l 1
 326 730 l 1
 284 465 l 1
 480 465 l 1
 522 730 l 1
EndSplineSet
EndChar

StartChar: Hbar
Encoding: 294 294 70
Width: 802
Flags: W
LayerCount: 2
Fore
SplineSet
844 666 m 1
 822 526 l 1
 734 526 l 1
 650 0 l 1
 454 0 l 1
 501 295 l 1
 305 295 l 1
 258 0 l 1
 62 0 l 1
 146 526 l 1
 57 526 l 1
 80 666 l 1
 168 666 l 1
 178 730 l 1
 374 730 l 1
 364 666 l 1
 560 666 l 1
 570 730 l 1
 766 730 l 1
 756 666 l 1
 844 666 l 1
528 465 m 1
 538 526 l 1
 342 526 l 1
 332 465 l 1
 528 465 l 1
EndSplineSet
EndChar

StartChar: Hcircumflex
Encoding: 292 292 71
Width: 730
Flags: W
LayerCount: 2
Fore
SplineSet
522 730 m 1
 718 730 l 1
 602 0 l 1
 406 0 l 1
 453 295 l 1
 257 295 l 1
 210 0 l 1
 14 0 l 1
 130 730 l 1
 326 730 l 1
 284 465 l 1
 480 465 l 1
 522 730 l 1
323 980 m 1
 617 980 l 1
 702 770 l 1
 496 770 l 1
 460 910 l 1
 458 910 l 1
 378 770 l 1
 173 770 l 1
 323 980 l 1
EndSplineSet
EndChar

StartChar: I
Encoding: 73 73 72
Width: 336
Flags: W
LayerCount: 2
Fore
SplineSet
136 730 m 1
 342 730 l 1
 226 0 l 1
 21 0 l 1
 136 730 l 1
EndSplineSet
EndChar

StartChar: Iacute
Encoding: 205 205 73
Width: 354
Flags: W
LayerCount: 2
Fore
SplineSet
136 730 m 1
 342 730 l 1
 226 0 l 1
 21 0 l 1
 136 730 l 1
335 770 m 1
 168 770 l 1
 260 980 l 1
 486 980 l 1
 335 770 l 1
EndSplineSet
EndChar

StartChar: Ibreve
Encoding: 300 300 74
Width: 354
Flags: W
LayerCount: 2
Fore
SplineSet
136 730 m 1
 342 730 l 1
 226 0 l 1
 21 0 l 1
 136 730 l 1
112 788 m 0
 77 808 52 834 36 867 c 0
 21 900 16 938 23 980 c 1
 190 980 l 1
 189 949 193 927 204 912 c 0
 214 897 231 890 254 890 c 0
 277 890 296 897 311 912 c 0
 326 927 338 949 347 980 c 1
 513 980 l 1
 506 938 490 900 464 867 c 0
 438 834 405 808 364 788 c 0
 324 770 281 760 234 760 c 0
 187 760 146 770 112 788 c 0
EndSplineSet
EndChar

StartChar: Icircumflex
Encoding: 206 206 75
Width: 354
Flags: W
LayerCount: 2
Fore
SplineSet
136 730 m 1
 342 730 l 1
 226 0 l 1
 21 0 l 1
 136 730 l 1
135 980 m 1
 429 980 l 1
 514 770 l 1
 308 770 l 1
 272 910 l 1
 270 910 l 1
 190 770 l 1
 -15 770 l 1
 135 980 l 1
EndSplineSet
EndChar

StartChar: uni0208
Encoding: 520 520 76
Width: 354
Flags: W
LayerCount: 2
Fore
SplineSet
136 730 m 1
 342 730 l 1
 226 0 l 1
 21 0 l 1
 136 730 l 1
-53 980 m 1
 173 980 l 1
 198 770 l 1
 32 770 l 1
 -53 980 l 1
212 980 m 1
 437 980 l 1
 463 770 l 1
 296 770 l 1
 212 980 l 1
EndSplineSet
EndChar

StartChar: Idieresis
Encoding: 207 207 77
Width: 354
Flags: W
LayerCount: 2
Fore
SplineSet
136 730 m 1
 342 730 l 1
 226 0 l 1
 21 0 l 1
 136 730 l 1
49 970 m 1
 235 970 l 1
 205 780 l 1
 19 780 l 1
 49 970 l 1
314 970 m 1
 500 970 l 1
 470 780 l 1
 284 780 l 1
 314 970 l 1
EndSplineSet
EndChar

StartChar: Idotaccent
Encoding: 304 304 78
Width: 354
Flags: W
LayerCount: 2
Fore
SplineSet
136 730 m 1
 342 730 l 1
 226 0 l 1
 21 0 l 1
 136 730 l 1
210 970 m 1
 396 970 l 1
 366 780 l 1
 180 780 l 1
 210 970 l 1
EndSplineSet
EndChar

StartChar: uni1ECA
Encoding: 7882 7882 79
Width: 354
Flags: W
LayerCount: 2
Fore
SplineSet
136 730 m 1
 342 730 l 1
 226 0 l 1
 21 0 l 1
 136 730 l 1
48 -50 m 1
 234 -50 l 1
 204 -240 l 1
 18 -240 l 1
 48 -50 l 1
EndSplineSet
EndChar

StartChar: Igrave
Encoding: 204 204 80
Width: 354
Flags: W
LayerCount: 2
Fore
SplineSet
136 730 m 1
 342 730 l 1
 226 0 l 1
 21 0 l 1
 136 730 l 1
91 980 m 1
 317 980 l 1
 342 770 l 1
 176 770 l 1
 91 980 l 1
EndSplineSet
EndChar

StartChar: uni1EC8
Encoding: 7880 7880 81
Width: 354
Flags: W
LayerCount: 2
Fore
SplineSet
136 730 m 1
 342 730 l 1
 226 0 l 1
 21 0 l 1
 136 730 l 1
316 830 m 0
 318 842 316 850 311 854 c 0
 306 858 294 860 277 860 c 0
 255 860 230 858 202 854 c 0
 174 849 147 843 121 835 c 1
 128 970 l 1
 157 976 189 981 224 984 c 0
 259 988 292 990 322 990 c 0
 373 990 411 987 438 982 c 0
 464 976 482 966 490 953 c 0
 500 940 502 920 498 895 c 0
 495 876 490 855 482 832 c 0
 473 809 464 788 454 770 c 1
 297 770 l 1
 307 795 313 815 316 830 c 0
EndSplineSet
EndChar

StartChar: uni020A
Encoding: 522 522 82
Width: 354
Flags: W
LayerCount: 2
Fore
SplineSet
136 730 m 1
 342 730 l 1
 226 0 l 1
 21 0 l 1
 136 730 l 1
392 962 m 0
 426 942 451 916 466 883 c 0
 482 850 487 812 480 770 c 1
 314 770 l 1
 315 801 310 823 300 838 c 0
 289 853 272 860 249 860 c 0
 226 860 206 853 192 838 c 0
 176 823 165 801 157 770 c 1
 -10 770 l 1
 -3 812 13 850 40 883 c 0
 66 916 99 942 139 962 c 0
 179 980 223 990 270 990 c 0
 317 990 358 980 392 962 c 0
EndSplineSet
EndChar

StartChar: Imacron
Encoding: 298 298 83
Width: 354
Flags: W
LayerCount: 2
Fore
SplineSet
136 730 m 1
 342 730 l 1
 226 0 l 1
 21 0 l 1
 136 730 l 1
52 945 m 1
 463 945 l 1
 441 805 l 1
 29 805 l 1
 52 945 l 1
EndSplineSet
EndChar

StartChar: Iogonek
Encoding: 302 302 84
Width: 345
Flags: W
LayerCount: 2
Fore
SplineSet
287 -200 m 1
 250 -213 208 -220 162 -220 c 0
 95 -220 45 -208 12 -184 c 0
 -21 -160 -34 -126 -27 -82 c 0
 -22 -49 -4 -17 25 14 c 1
 139 730 l 1
 345 730 l 1
 229 0 l 1
 179 -19 152 -38 149 -57 c 0
 148 -66 151 -73 158 -78 c 0
 166 -83 178 -85 195 -85 c 0
 210 -85 226 -83 244 -80 c 0
 261 -76 278 -71 294 -65 c 1
 287 -200 l 1
EndSplineSet
EndChar

StartChar: Itilde
Encoding: 296 296 85
Width: 354
Flags: W
LayerCount: 2
Fore
SplineSet
136 730 m 1
 342 730 l 1
 226 0 l 1
 21 0 l 1
 136 730 l 1
200 812 m 0
 178 827 161 835 148 835 c 0
 139 835 133 831 128 822 c 0
 124 814 120 797 116 770 c 1
 -29 770 l 1
 -17 845 2 900 28 936 c 0
 53 972 87 990 128 990 c 0
 170 990 216 973 265 938 c 0
 287 923 304 915 317 915 c 0
 326 915 332 919 336 928 c 0
 341 936 345 953 349 980 c 1
 494 980 l 1
 482 905 463 850 438 814 c 0
 413 778 379 760 337 760 c 0
 295 760 249 777 200 812 c 0
EndSplineSet
EndChar

StartChar: J
Encoding: 74 74 86
Width: 568
Flags: W
LayerCount: 2
Fore
SplineSet
72 2 m 0
 32 11 -4 23 -36 39 c 1
 35 209 l 1
 102 180 156 165 198 165 c 0
 231 165 257 174 276 193 c 0
 295 212 307 241 314 280 c 2
 385 730 l 1
 586 730 l 1
 515 280 l 2
 499 179 465 105 413 59 c 0
 361 13 286 -10 189 -10 c 0
 151 -10 112 -6 72 2 c 0
EndSplineSet
EndChar

StartChar: Jcircumflex
Encoding: 308 308 87
Width: 585
Flags: W
LayerCount: 2
Fore
SplineSet
72 2 m 0
 32 11 -4 23 -36 39 c 1
 35 209 l 1
 102 180 156 165 198 165 c 0
 231 165 257 174 276 193 c 0
 295 212 307 241 314 280 c 2
 385 730 l 1
 586 730 l 1
 515 280 l 2
 499 179 465 105 413 59 c 0
 361 13 286 -10 189 -10 c 0
 151 -10 112 -6 72 2 c 0
251 980 m 1
 545 980 l 1
 630 770 l 1
 424 770 l 1
 388 910 l 1
 386 910 l 1
 306 770 l 1
 101 770 l 1
 251 980 l 1
EndSplineSet
EndChar

StartChar: K
Encoding: 75 75 88
Width: 688
Flags: W
LayerCount: 2
Fore
SplineSet
130 730 m 1
 326 730 l 1
 277 420 l 1
 279 420 l 1
 512 730 l 1
 737 730 l 1
 457 380 l 1
 632 0 l 1
 406 0 l 1
 266 340 l 1
 264 340 l 1
 210 0 l 1
 14 0 l 1
 130 730 l 1
EndSplineSet
EndChar

StartChar: uni0136
Encoding: 310 310 89
Width: 708
Flags: W
LayerCount: 2
Fore
SplineSet
130 730 m 1
 326 730 l 1
 277 420 l 1
 279 420 l 1
 512 730 l 1
 737 730 l 1
 457 380 l 1
 632 0 l 1
 406 0 l 1
 266 340 l 1
 264 340 l 1
 210 0 l 1
 14 0 l 1
 130 730 l 1
225 -250 m 1
 59 -250 l 1
 151 -40 l 1
 376 -40 l 1
 225 -250 l 1
EndSplineSet
EndChar

StartChar: L
Encoding: 76 76 90
Width: 572
Flags: W
LayerCount: 2
Fore
SplineSet
130 730 m 1
 331 730 l 1
 242 170 l 1
 531 170 l 1
 504 0 l 1
 14 0 l 1
 130 730 l 1
EndSplineSet
EndChar

StartChar: uni01C7
Encoding: 455 455 91
Width: 1196
Flags: W
LayerCount: 2
Fore
SplineSet
130 730 m 1
 331 730 l 1
 242 170 l 1
 531 170 l 1
 504 0 l 1
 14 0 l 1
 130 730 l 1
683 2 m 0
 643 11 607 23 575 39 c 1
 646 209 l 1
 713 180 767 165 809 165 c 0
 842 165 868 174 887 193 c 0
 906 212 918 241 925 280 c 2
 996 730 l 1
 1197 730 l 1
 1126 280 l 2
 1110 179 1076 105 1024 59 c 0
 972 13 897 -10 800 -10 c 0
 762 -10 723 -6 683 2 c 0
EndSplineSet
EndChar

StartChar: Lacute
Encoding: 313 313 92
Width: 591
Flags: W
LayerCount: 2
Fore
SplineSet
130 730 m 1
 331 730 l 1
 242 170 l 1
 531 170 l 1
 504 0 l 1
 14 0 l 1
 130 730 l 1
454 770 m 1
 287 770 l 1
 379 980 l 1
 605 980 l 1
 454 770 l 1
EndSplineSet
EndChar

StartChar: Lcaron
Encoding: 317 317 93
Width: 629
Flags: W
LayerCount: 2
Fore
SplineSet
130 730 m 1
 331 730 l 1
 242 170 l 1
 531 170 l 1
 504 0 l 1
 14 0 l 1
 130 730 l 1
478 770 m 1
 683 770 l 1
 518 470 l 1
 371 470 l 1
 478 770 l 1
EndSplineSet
EndChar

StartChar: uni013B
Encoding: 315 315 94
Width: 591
Flags: W
LayerCount: 2
Fore
SplineSet
130 730 m 1
 331 730 l 1
 242 170 l 1
 531 170 l 1
 504 0 l 1
 14 0 l 1
 130 730 l 1
181 -250 m 1
 15 -250 l 1
 107 -40 l 1
 332 -40 l 1
 181 -250 l 1
EndSplineSet
EndChar

StartChar: Ldot
Encoding: 319 319 95
Width: 626
Flags: W
LayerCount: 2
Fore
SplineSet
130 730 m 1
 331 730 l 1
 242 170 l 1
 531 170 l 1
 504 0 l 1
 14 0 l 1
 130 730 l 1
381 475 m 1
 577 475 l 1
 546 275 l 1
 350 275 l 1
 381 475 l 1
EndSplineSet
EndChar

StartChar: uni01C8
Encoding: 456 456 96
Width: 966
Flags: W
LayerCount: 2
Fore
SplineSet
130 730 m 1
 331 730 l 1
 242 170 l 1
 531 170 l 1
 504 0 l 1
 14 0 l 1
 130 730 l 1
772 750 m 1
 960 750 l 1
 934 590 l 1
 746 590 l 1
 772 750 l 1
588 -77 m 0
 610 -72 626 -61 636 -44 c 0
 645 -28 653 0 659 40 c 2
 735 520 l 1
 923 520 l 1
 847 40 l 2
 836 -31 817 -85 790 -124 c 0
 764 -162 726 -189 674 -206 c 0
 624 -222 553 -230 464 -230 c 1
 478 -85 l 1
 529 -85 566 -82 588 -77 c 0
EndSplineSet
EndChar

StartChar: Lslash
Encoding: 321 321 97
Width: 673
Flags: W
LayerCount: 2
Fore
SplineSet
343 170 m 1
 632 170 l 1
 605 0 l 1
 115 0 l 1
 154 247 l 1
 48 207 l 1
 15 337 l 1
 178 399 l 1
 231 730 l 1
 432 730 l 1
 392 481 l 1
 504 523 l 1
 537 393 l 1
 368 329 l 1
 343 170 l 1
EndSplineSet
EndChar

StartChar: M
Encoding: 77 77 98
Width: 863
Flags: W
LayerCount: 2
Fore
SplineSet
130 730 m 1
 373 730 l 1
 439 340 l 1
 441 340 l 1
 632 730 l 1
 875 730 l 1
 759 0 l 1
 563 0 l 1
 629 420 l 1
 628 420 l 1
 499 155 l 1
 323 155 l 1
 279 420 l 1
 277 420 l 1
 210 0 l 1
 14 0 l 1
 130 730 l 1
EndSplineSet
EndChar

StartChar: N
Encoding: 78 78 99
Width: 716
Flags: W
LayerCount: 2
Fore
SplineSet
130 730 m 1
 326 730 l 1
 466 330 l 1
 468 330 l 1
 532 730 l 1
 728 730 l 1
 612 0 l 1
 416 0 l 1
 275 400 l 1
 274 400 l 1
 210 0 l 1
 14 0 l 1
 130 730 l 1
EndSplineSet
EndChar

StartChar: uni01CA
Encoding: 458 458 100
Width: 1325
Flags: W
LayerCount: 2
Fore
SplineSet
130 730 m 1
 326 730 l 1
 466 330 l 1
 468 330 l 1
 532 730 l 1
 728 730 l 1
 612 0 l 1
 416 0 l 1
 275 400 l 1
 274 400 l 1
 210 0 l 1
 14 0 l 1
 130 730 l 1
812 2 m 0
 772 11 736 23 704 39 c 1
 775 209 l 1
 842 180 896 165 938 165 c 0
 971 165 997 174 1016 193 c 0
 1035 212 1047 241 1054 280 c 2
 1125 730 l 1
 1326 730 l 1
 1255 280 l 2
 1239 179 1205 105 1153 59 c 0
 1101 13 1026 -10 929 -10 c 0
 891 -10 852 -6 812 2 c 0
EndSplineSet
EndChar

StartChar: Nacute
Encoding: 323 323 101
Width: 740
Flags: W
LayerCount: 2
Fore
SplineSet
130 730 m 1
 326 730 l 1
 466 330 l 1
 468 330 l 1
 532 730 l 1
 728 730 l 1
 612 0 l 1
 416 0 l 1
 275 400 l 1
 274 400 l 1
 210 0 l 1
 14 0 l 1
 130 730 l 1
528 770 m 1
 361 770 l 1
 453 980 l 1
 679 980 l 1
 528 770 l 1
EndSplineSet
EndChar

StartChar: Ncaron
Encoding: 327 327 102
Width: 740
Flags: W
LayerCount: 2
Fore
SplineSet
130 730 m 1
 326 730 l 1
 466 330 l 1
 468 330 l 1
 532 730 l 1
 728 730 l 1
 612 0 l 1
 416 0 l 1
 275 400 l 1
 274 400 l 1
 210 0 l 1
 14 0 l 1
 130 730 l 1
201 980 m 1
 407 980 l 1
 442 840 l 1
 444 840 l 1
 524 980 l 1
 730 980 l 1
 579 770 l 1
 285 770 l 1
 201 980 l 1
EndSplineSet
EndChar

StartChar: uni0145
Encoding: 325 325 103
Width: 740
Flags: W
LayerCount: 2
Fore
SplineSet
130 730 m 1
 326 730 l 1
 466 330 l 1
 468 330 l 1
 532 730 l 1
 728 730 l 1
 612 0 l 1
 416 0 l 1
 275 400 l 1
 274 400 l 1
 210 0 l 1
 14 0 l 1
 130 730 l 1
255 -250 m 1
 89 -250 l 1
 181 -40 l 1
 406 -40 l 1
 255 -250 l 1
EndSplineSet
EndChar

StartChar: Eng
Encoding: 330 330 104
Width: 716
Flags: W
LayerCount: 2
Fore
SplineSet
728 730 m 1
 612 0 l 2
 603 -57 588 -102 570 -134 c 0
 550 -168 525 -192 492 -206 c 0
 460 -222 419 -229 368 -229 c 0
 325 -229 278 -224 227 -214 c 1
 271 -59 l 1
 298 -66 325 -70 351 -70 c 0
 371 -70 386 -65 394 -56 c 0
 404 -46 411 -27 416 1 c 1
 272 380 l 1
 270 380 l 1
 210 0 l 1
 14 0 l 1
 130 730 l 1
 326 730 l 1
 469 350 l 1
 471 350 l 1
 532 730 l 1
 728 730 l 1
EndSplineSet
EndChar

StartChar: uni01CB
Encoding: 459 459 105
Width: 1115
Flags: W
LayerCount: 2
Fore
SplineSet
130 730 m 1
 326 730 l 1
 466 330 l 1
 468 330 l 1
 532 730 l 1
 728 730 l 1
 612 0 l 1
 416 0 l 1
 275 400 l 1
 274 400 l 1
 210 0 l 1
 14 0 l 1
 130 730 l 1
921 750 m 1
 1109 750 l 1
 1083 590 l 1
 895 590 l 1
 921 750 l 1
737 -77 m 0
 759 -72 775 -61 784 -44 c 0
 794 -28 802 0 808 40 c 2
 884 520 l 1
 1072 520 l 1
 996 40 l 2
 985 -31 966 -85 940 -124 c 0
 913 -162 874 -189 824 -206 c 0
 772 -222 702 -230 613 -230 c 1
 627 -85 l 1
 678 -85 715 -82 737 -77 c 0
EndSplineSet
EndChar

StartChar: Ntilde
Encoding: 209 209 106
Width: 740
Flags: W
LayerCount: 2
Fore
SplineSet
130 730 m 1
 326 730 l 1
 466 330 l 1
 468 330 l 1
 532 730 l 1
 728 730 l 1
 612 0 l 1
 416 0 l 1
 275 400 l 1
 274 400 l 1
 210 0 l 1
 14 0 l 1
 130 730 l 1
393 812 m 0
 371 827 354 835 341 835 c 0
 332 835 326 831 322 822 c 0
 317 814 313 797 309 770 c 1
 164 770 l 1
 176 845 195 900 220 936 c 0
 246 972 280 990 321 990 c 0
 363 990 409 973 458 938 c 0
 480 923 497 915 510 915 c 0
 519 915 525 919 530 928 c 0
 534 936 538 953 542 980 c 1
 687 980 l 1
 675 905 656 850 631 814 c 0
 606 778 572 760 530 760 c 0
 488 760 442 777 393 812 c 0
EndSplineSet
EndChar

StartChar: O
Encoding: 79 79 107
Width: 793
Flags: W
LayerCount: 2
Fore
SplineSet
160 34 m 0
 109 64 74 107 54 164 c 0
 33 220 29 287 42 365 c 0
 55 443 80 510 118 566 c 0
 155 623 204 666 264 696 c 0
 324 725 392 740 469 740 c 0
 546 740 609 725 660 696 c 0
 710 666 745 623 765 566 c 0
 785 510 789 443 777 365 c 0
 764 287 739 220 701 164 c 0
 663 107 614 64 554 34 c 0
 495 5 427 -10 350 -10 c 0
 273 -10 210 5 160 34 c 0
576 365 m 0
 597 502 553 570 442 570 c 0
 331 570 264 502 243 365 c 0
 222 228 266 160 377 160 c 0
 488 160 555 228 576 365 c 0
EndSplineSet
EndChar

StartChar: Oacute
Encoding: 211 211 108
Width: 814
Flags: W
LayerCount: 2
Fore
SplineSet
160 34 m 0
 109 64 74 107 54 164 c 0
 33 220 29 287 42 365 c 0
 55 443 80 510 118 566 c 0
 155 623 204 666 264 696 c 0
 324 725 392 740 469 740 c 0
 546 740 609 725 660 696 c 0
 710 666 745 623 765 566 c 0
 785 510 789 443 777 365 c 0
 764 287 739 220 701 164 c 0
 663 107 614 64 554 34 c 0
 495 5 427 -10 350 -10 c 0
 273 -10 210 5 160 34 c 0
576 365 m 0
 597 502 553 570 442 570 c 0
 331 570 264 502 243 365 c 0
 222 228 266 160 377 160 c 0
 488 160 555 228 576 365 c 0
565 770 m 1
 398 770 l 1
 490 980 l 1
 716 980 l 1
 565 770 l 1
EndSplineSet
EndChar

StartChar: Obreve
Encoding: 334 334 109
Width: 814
Flags: W
LayerCount: 2
Fore
SplineSet
160 34 m 0
 109 64 74 107 54 164 c 0
 33 220 29 287 42 365 c 0
 55 443 80 510 118 566 c 0
 155 623 204 666 264 696 c 0
 324 725 392 740 469 740 c 0
 546 740 609 725 660 696 c 0
 710 666 745 623 765 566 c 0
 785 510 789 443 777 365 c 0
 764 287 739 220 701 164 c 0
 663 107 614 64 554 34 c 0
 495 5 427 -10 350 -10 c 0
 273 -10 210 5 160 34 c 0
576 365 m 0
 597 502 553 570 442 570 c 0
 331 570 264 502 243 365 c 0
 222 228 266 160 377 160 c 0
 488 160 555 228 576 365 c 0
342 788 m 0
 307 808 282 834 266 867 c 0
 251 900 246 938 253 980 c 1
 420 980 l 1
 419 949 423 927 434 912 c 0
 444 897 461 890 484 890 c 0
 507 890 526 897 541 912 c 0
 556 927 568 949 577 980 c 1
 743 980 l 1
 736 938 720 900 694 867 c 0
 668 834 635 808 594 788 c 0
 554 770 511 760 464 760 c 0
 417 760 376 770 342 788 c 0
EndSplineSet
EndChar

StartChar: Ocircumflex
Encoding: 212 212 110
Width: 814
Flags: W
LayerCount: 2
Fore
SplineSet
160 34 m 0
 109 64 74 107 54 164 c 0
 33 220 29 287 42 365 c 0
 55 443 80 510 118 566 c 0
 155 623 204 666 264 696 c 0
 324 725 392 740 469 740 c 0
 546 740 609 725 660 696 c 0
 710 666 745 623 765 566 c 0
 785 510 789 443 777 365 c 0
 764 287 739 220 701 164 c 0
 663 107 614 64 554 34 c 0
 495 5 427 -10 350 -10 c 0
 273 -10 210 5 160 34 c 0
576 365 m 0
 597 502 553 570 442 570 c 0
 331 570 264 502 243 365 c 0
 222 228 266 160 377 160 c 0
 488 160 555 228 576 365 c 0
365 980 m 1
 659 980 l 1
 744 770 l 1
 538 770 l 1
 502 910 l 1
 500 910 l 1
 420 770 l 1
 215 770 l 1
 365 980 l 1
EndSplineSet
EndChar

StartChar: uni1ED0
Encoding: 7888 7888 111
Width: 795
Flags: W
LayerCount: 2
Fore
SplineSet
495 910 m 1
 415 770 l 1
 209 770 l 1
 360 980 l 1
 633 980 l 1
 712 1160 l 1
 937 1160 l 1
 786 950 l 1
 666 950 l 1
 738 770 l 1
 532 770 l 1
 497 910 l 1
 495 910 l 1
659 696 m 0
 710 666 745 623 765 566 c 0
 785 510 789 443 777 365 c 0
 764 287 739 220 701 164 c 0
 663 107 614 64 554 34 c 0
 495 5 427 -10 350 -10 c 0
 273 -10 210 5 160 34 c 0
 109 64 74 107 54 164 c 0
 33 220 29 287 42 365 c 0
 55 443 80 510 118 566 c 0
 155 623 204 666 264 696 c 0
 324 725 392 740 469 740 c 0
 545 740 608 725 659 696 c 0
576 365 m 0
 597 502 553 570 442 570 c 0
 331 570 264 502 243 365 c 0
 222 228 266 160 377 160 c 0
 488 160 555 228 576 365 c 0
EndSplineSet
EndChar

StartChar: uni1ED8
Encoding: 7896 7896 112
Width: 814
Flags: W
LayerCount: 2
Fore
SplineSet
160 34 m 0
 109 64 74 107 54 164 c 0
 33 220 29 287 42 365 c 0
 55 443 80 510 118 566 c 0
 155 623 204 666 264 696 c 0
 324 725 392 740 469 740 c 0
 546 740 609 725 660 696 c 0
 710 666 745 623 765 566 c 0
 785 510 789 443 777 365 c 0
 764 287 739 220 701 164 c 0
 663 107 614 64 554 34 c 0
 495 5 427 -10 350 -10 c 0
 273 -10 210 5 160 34 c 0
576 365 m 0
 597 502 553 570 442 570 c 0
 331 570 264 502 243 365 c 0
 222 228 266 160 377 160 c 0
 488 160 555 228 576 365 c 0
278 -50 m 1
 464 -50 l 1
 434 -240 l 1
 248 -240 l 1
 278 -50 l 1
365 980 m 1
 659 980 l 1
 744 770 l 1
 538 770 l 1
 502 910 l 1
 500 910 l 1
 420 770 l 1
 215 770 l 1
 365 980 l 1
EndSplineSet
EndChar

StartChar: uni1ED2
Encoding: 7890 7890 113
Width: 795
Flags: W
LayerCount: 2
Fore
SplineSet
341 950 m 1
 220 950 l 1
 136 1160 l 1
 361 1160 l 1
 383 980 l 1
 656 980 l 1
 741 770 l 1
 535 770 l 1
 499 910 l 1
 497 910 l 1
 417 770 l 1
 211 770 l 1
 341 950 l 1
662 696 m 0
 712 666 747 623 768 566 c 0
 788 510 792 443 779 365 c 0
 766 287 741 220 704 164 c 0
 666 107 617 64 557 34 c 0
 497 5 429 -10 352 -10 c 0
 275 -10 212 5 162 34 c 0
 111 64 76 107 56 164 c 0
 36 220 32 287 44 365 c 0
 57 443 82 510 120 566 c 0
 158 623 207 666 267 696 c 0
 327 725 395 740 471 740 c 0
 548 740 611 725 662 696 c 0
578 365 m 0
 599 502 555 570 444 570 c 0
 333 570 266 502 245 365 c 0
 224 228 268 160 379 160 c 0
 490 160 557 228 578 365 c 0
EndSplineSet
EndChar

StartChar: uni1ED4
Encoding: 7892 7892 114
Width: 793
Flags: W
LayerCount: 2
Fore
SplineSet
415 770 m 1
 209 770 l 1
 360 980 l 1
 635 980 l 1
 639 991 642 1001 643 1010 c 0
 645 1022 643 1030 638 1034 c 0
 633 1038 621 1040 604 1040 c 0
 582 1040 557 1038 529 1034 c 0
 501 1029 474 1023 448 1015 c 1
 454 1150 l 1
 483 1156 515 1161 550 1164 c 0
 586 1168 619 1170 649 1170 c 0
 700 1170 738 1167 764 1162 c 0
 791 1156 808 1146 818 1133 c 0
 826 1120 829 1100 825 1075 c 0
 822 1056 817 1035 808 1012 c 0
 799 989 790 968 780 950 c 1
 666 950 l 1
 738 770 l 1
 532 770 l 1
 497 910 l 1
 495 910 l 1
 415 770 l 1
659 696 m 0
 710 666 745 623 765 566 c 0
 785 510 789 443 777 365 c 0
 764 287 739 220 701 164 c 0
 663 107 614 64 554 34 c 0
 495 5 427 -10 350 -10 c 0
 273 -10 210 5 160 34 c 0
 109 64 74 107 54 164 c 0
 33 220 29 287 42 365 c 0
 55 443 80 510 118 566 c 0
 155 623 204 666 264 696 c 0
 324 725 392 740 469 740 c 0
 545 740 608 725 659 696 c 0
576 365 m 0
 597 502 553 570 442 570 c 0
 331 570 264 502 243 365 c 0
 222 228 266 160 377 160 c 0
 488 160 555 228 576 365 c 0
EndSplineSet
EndChar

StartChar: uni1ED6
Encoding: 7894 7894 115
Width: 814
Flags: W
LayerCount: 2
Fore
SplineSet
160 34 m 0
 109 64 74 107 54 164 c 0
 33 220 29 287 42 365 c 0
 55 443 80 510 118 566 c 0
 155 623 204 666 264 696 c 0
 324 725 392 740 469 740 c 0
 546 740 609 725 660 696 c 0
 710 666 745 623 765 566 c 0
 785 510 789 443 777 365 c 0
 764 287 739 220 701 164 c 0
 663 107 614 64 554 34 c 0
 495 5 427 -10 350 -10 c 0
 273 -10 210 5 160 34 c 0
576 365 m 0
 597 502 553 570 442 570 c 0
 331 570 264 502 243 365 c 0
 222 228 266 160 377 160 c 0
 488 160 555 228 576 365 c 0
365 980 m 1
 659 980 l 1
 744 770 l 1
 538 770 l 1
 502 910 l 1
 500 910 l 1
 420 770 l 1
 215 770 l 1
 365 980 l 1
470 1062 m 0
 448 1077 431 1085 418 1085 c 0
 409 1085 403 1081 398 1072 c 0
 394 1064 390 1047 386 1020 c 1
 241 1020 l 1
 253 1095 272 1150 298 1186 c 0
 323 1222 357 1240 398 1240 c 0
 440 1240 486 1223 535 1188 c 0
 557 1173 574 1165 587 1165 c 0
 596 1165 602 1169 606 1178 c 0
 611 1186 615 1203 619 1230 c 1
 764 1230 l 1
 752 1155 733 1100 708 1064 c 0
 683 1028 649 1010 607 1010 c 0
 565 1010 519 1027 470 1062 c 0
EndSplineSet
EndChar

StartChar: uni020C
Encoding: 524 524 116
Width: 814
Flags: W
LayerCount: 2
Fore
SplineSet
160 34 m 0
 109 64 74 107 54 164 c 0
 33 220 29 287 42 365 c 0
 55 443 80 510 118 566 c 0
 155 623 204 666 264 696 c 0
 324 725 392 740 469 740 c 0
 546 740 609 725 660 696 c 0
 710 666 745 623 765 566 c 0
 785 510 789 443 777 365 c 0
 764 287 739 220 701 164 c 0
 663 107 614 64 554 34 c 0
 495 5 427 -10 350 -10 c 0
 273 -10 210 5 160 34 c 0
576 365 m 0
 597 502 553 570 442 570 c 0
 331 570 264 502 243 365 c 0
 222 228 266 160 377 160 c 0
 488 160 555 228 576 365 c 0
177 980 m 1
 403 980 l 1
 428 770 l 1
 262 770 l 1
 177 980 l 1
442 980 m 1
 667 980 l 1
 693 770 l 1
 526 770 l 1
 442 980 l 1
EndSplineSet
EndChar

StartChar: Odieresis
Encoding: 214 214 117
Width: 814
Flags: W
LayerCount: 2
Fore
SplineSet
160 34 m 0
 109 64 74 107 54 164 c 0
 33 220 29 287 42 365 c 0
 55 443 80 510 118 566 c 0
 155 623 204 666 264 696 c 0
 324 725 392 740 469 740 c 0
 546 740 609 725 660 696 c 0
 710 666 745 623 765 566 c 0
 785 510 789 443 777 365 c 0
 764 287 739 220 701 164 c 0
 663 107 614 64 554 34 c 0
 495 5 427 -10 350 -10 c 0
 273 -10 210 5 160 34 c 0
576 365 m 0
 597 502 553 570 442 570 c 0
 331 570 264 502 243 365 c 0
 222 228 266 160 377 160 c 0
 488 160 555 228 576 365 c 0
279 970 m 1
 465 970 l 1
 435 780 l 1
 249 780 l 1
 279 970 l 1
544 970 m 1
 730 970 l 1
 700 780 l 1
 514 780 l 1
 544 970 l 1
EndSplineSet
EndChar

StartChar: uni022A
Encoding: 554 554 118
Width: 814
Flags: W
LayerCount: 2
Fore
SplineSet
160 34 m 0
 109 64 74 107 54 164 c 0
 33 220 29 287 42 365 c 0
 55 443 80 510 118 566 c 0
 155 623 204 666 264 696 c 0
 324 725 392 740 469 740 c 0
 546 740 609 725 660 696 c 0
 710 666 745 623 765 566 c 0
 785 510 789 443 777 365 c 0
 764 287 739 220 701 164 c 0
 663 107 614 64 554 34 c 0
 495 5 427 -10 350 -10 c 0
 273 -10 210 5 160 34 c 0
576 365 m 0
 597 502 553 570 442 570 c 0
 331 570 264 502 243 365 c 0
 222 228 266 160 377 160 c 0
 488 160 555 228 576 365 c 0
279 970 m 1
 465 970 l 1
 435 780 l 1
 249 780 l 1
 279 970 l 1
544 970 m 1
 730 970 l 1
 700 780 l 1
 514 780 l 1
 544 970 l 1
320 1185 m 1
 731 1185 l 1
 709 1045 l 1
 297 1045 l 1
 320 1185 l 1
EndSplineSet
EndChar

StartChar: uni0230
Encoding: 560 560 119
Width: 814
Flags: W
LayerCount: 2
Fore
SplineSet
160 34 m 0
 109 64 74 107 54 164 c 0
 33 220 29 287 42 365 c 0
 55 443 80 510 118 566 c 0
 155 623 204 666 264 696 c 0
 324 725 392 740 469 740 c 0
 546 740 609 725 660 696 c 0
 710 666 745 623 765 566 c 0
 785 510 789 443 777 365 c 0
 764 287 739 220 701 164 c 0
 663 107 614 64 554 34 c 0
 495 5 427 -10 350 -10 c 0
 273 -10 210 5 160 34 c 0
576 365 m 0
 597 502 553 570 442 570 c 0
 331 570 264 502 243 365 c 0
 222 228 266 160 377 160 c 0
 488 160 555 228 576 365 c 0
440 970 m 1
 626 970 l 1
 596 780 l 1
 410 780 l 1
 440 970 l 1
320 1185 m 1
 731 1185 l 1
 709 1045 l 1
 297 1045 l 1
 320 1185 l 1
EndSplineSet
EndChar

StartChar: uni1ECC
Encoding: 7884 7884 120
Width: 814
Flags: W
LayerCount: 2
Fore
SplineSet
160 34 m 0
 109 64 74 107 54 164 c 0
 33 220 29 287 42 365 c 0
 55 443 80 510 118 566 c 0
 155 623 204 666 264 696 c 0
 324 725 392 740 469 740 c 0
 546 740 609 725 660 696 c 0
 710 666 745 623 765 566 c 0
 785 510 789 443 777 365 c 0
 764 287 739 220 701 164 c 0
 663 107 614 64 554 34 c 0
 495 5 427 -10 350 -10 c 0
 273 -10 210 5 160 34 c 0
576 365 m 0
 597 502 553 570 442 570 c 0
 331 570 264 502 243 365 c 0
 222 228 266 160 377 160 c 0
 488 160 555 228 576 365 c 0
278 -50 m 1
 464 -50 l 1
 434 -240 l 1
 248 -240 l 1
 278 -50 l 1
EndSplineSet
EndChar

StartChar: Ograve
Encoding: 210 210 121
Width: 814
Flags: W
LayerCount: 2
Fore
SplineSet
160 34 m 0
 109 64 74 107 54 164 c 0
 33 220 29 287 42 365 c 0
 55 443 80 510 118 566 c 0
 155 623 204 666 264 696 c 0
 324 725 392 740 469 740 c 0
 546 740 609 725 660 696 c 0
 710 666 745 623 765 566 c 0
 785 510 789 443 777 365 c 0
 764 287 739 220 701 164 c 0
 663 107 614 64 554 34 c 0
 495 5 427 -10 350 -10 c 0
 273 -10 210 5 160 34 c 0
576 365 m 0
 597 502 553 570 442 570 c 0
 331 570 264 502 243 365 c 0
 222 228 266 160 377 160 c 0
 488 160 555 228 576 365 c 0
321 980 m 1
 547 980 l 1
 572 770 l 1
 406 770 l 1
 321 980 l 1
EndSplineSet
EndChar

StartChar: uni1ECE
Encoding: 7886 7886 122
Width: 814
Flags: W
LayerCount: 2
Fore
SplineSet
160 34 m 0
 109 64 74 107 54 164 c 0
 33 220 29 287 42 365 c 0
 55 443 80 510 118 566 c 0
 155 623 204 666 264 696 c 0
 324 725 392 740 469 740 c 0
 546 740 609 725 660 696 c 0
 710 666 745 623 765 566 c 0
 785 510 789 443 777 365 c 0
 764 287 739 220 701 164 c 0
 663 107 614 64 554 34 c 0
 495 5 427 -10 350 -10 c 0
 273 -10 210 5 160 34 c 0
576 365 m 0
 597 502 553 570 442 570 c 0
 331 570 264 502 243 365 c 0
 222 228 266 160 377 160 c 0
 488 160 555 228 576 365 c 0
546 830 m 0
 548 842 546 850 541 854 c 0
 536 858 524 860 507 860 c 0
 485 860 460 858 432 854 c 0
 404 849 377 843 351 835 c 1
 358 970 l 1
 387 976 419 981 454 984 c 0
 489 988 522 990 552 990 c 0
 603 990 641 987 668 982 c 0
 694 976 712 966 720 953 c 0
 730 940 732 920 728 895 c 0
 725 876 720 855 712 832 c 0
 703 809 694 788 684 770 c 1
 527 770 l 1
 537 795 543 815 546 830 c 0
EndSplineSet
EndChar

StartChar: Ohorn
Encoding: 416 416 123
Width: 826
Flags: W
LayerCount: 2
Fore
SplineSet
866 580 m 0
 842 550 813 530 777 521 c 1
 786 476 786 424 777 365 c 0
 764 287 739 220 701 164 c 0
 663 107 614 64 554 34 c 0
 495 5 427 -10 350 -10 c 0
 273 -10 210 5 160 34 c 0
 109 64 74 107 54 164 c 0
 33 220 29 287 42 365 c 0
 55 443 80 510 118 566 c 0
 155 623 204 666 264 696 c 0
 324 725 392 740 469 740 c 0
 571 740 649 714 703 662 c 1
 713 665 721 672 728 681 c 0
 735 690 739 702 741 715 c 0
 743 730 744 749 743 774 c 0
 742 798 740 818 736 835 c 1
 912 835 l 1
 920 793 920 747 912 697 c 0
 904 648 888 609 866 580 c 0
576 365 m 0
 597 502 553 570 442 570 c 0
 331 570 264 502 243 365 c 0
 222 228 266 160 377 160 c 0
 488 160 555 228 576 365 c 0
EndSplineSet
EndChar

StartChar: uni1EDA
Encoding: 7898 7898 124
Width: 844
Flags: W
LayerCount: 2
Fore
SplineSet
866 580 m 0
 842 550 813 530 777 521 c 1
 786 476 786 424 777 365 c 0
 764 287 739 220 701 164 c 0
 663 107 614 64 554 34 c 0
 495 5 427 -10 350 -10 c 0
 273 -10 210 5 160 34 c 0
 109 64 74 107 54 164 c 0
 33 220 29 287 42 365 c 0
 55 443 80 510 118 566 c 0
 155 623 204 666 264 696 c 0
 324 725 392 740 469 740 c 0
 571 740 649 714 703 662 c 1
 713 665 721 672 728 681 c 0
 735 690 739 702 741 715 c 0
 743 730 744 749 743 774 c 0
 742 798 740 818 736 835 c 1
 912 835 l 1
 920 793 920 747 912 697 c 0
 904 648 888 609 866 580 c 0
576 365 m 0
 597 502 553 570 442 570 c 0
 331 570 264 502 243 365 c 0
 222 228 266 160 377 160 c 0
 488 160 555 228 576 365 c 0
565 770 m 1
 398 770 l 1
 490 980 l 1
 716 980 l 1
 565 770 l 1
EndSplineSet
EndChar

StartChar: uni1EE2
Encoding: 7906 7906 125
Width: 844
Flags: W
LayerCount: 2
Fore
SplineSet
866 580 m 0
 842 550 813 530 777 521 c 1
 786 476 786 424 777 365 c 0
 764 287 739 220 701 164 c 0
 663 107 614 64 554 34 c 0
 495 5 427 -10 350 -10 c 0
 273 -10 210 5 160 34 c 0
 109 64 74 107 54 164 c 0
 33 220 29 287 42 365 c 0
 55 443 80 510 118 566 c 0
 155 623 204 666 264 696 c 0
 324 725 392 740 469 740 c 0
 571 740 649 714 703 662 c 1
 713 665 721 672 728 681 c 0
 735 690 739 702 741 715 c 0
 743 730 744 749 743 774 c 0
 742 798 740 818 736 835 c 1
 912 835 l 1
 920 793 920 747 912 697 c 0
 904 648 888 609 866 580 c 0
576 365 m 0
 597 502 553 570 442 570 c 0
 331 570 264 502 243 365 c 0
 222 228 266 160 377 160 c 0
 488 160 555 228 576 365 c 0
278 -50 m 1
 464 -50 l 1
 434 -240 l 1
 248 -240 l 1
 278 -50 l 1
EndSplineSet
EndChar

StartChar: uni1EDC
Encoding: 7900 7900 126
Width: 844
Flags: W
LayerCount: 2
Fore
SplineSet
866 580 m 0
 842 550 813 530 777 521 c 1
 786 476 786 424 777 365 c 0
 764 287 739 220 701 164 c 0
 663 107 614 64 554 34 c 0
 495 5 427 -10 350 -10 c 0
 273 -10 210 5 160 34 c 0
 109 64 74 107 54 164 c 0
 33 220 29 287 42 365 c 0
 55 443 80 510 118 566 c 0
 155 623 204 666 264 696 c 0
 324 725 392 740 469 740 c 0
 571 740 649 714 703 662 c 1
 713 665 721 672 728 681 c 0
 735 690 739 702 741 715 c 0
 743 730 744 749 743 774 c 0
 742 798 740 818 736 835 c 1
 912 835 l 1
 920 793 920 747 912 697 c 0
 904 648 888 609 866 580 c 0
576 365 m 0
 597 502 553 570 442 570 c 0
 331 570 264 502 243 365 c 0
 222 228 266 160 377 160 c 0
 488 160 555 228 576 365 c 0
321 980 m 1
 547 980 l 1
 572 770 l 1
 406 770 l 1
 321 980 l 1
EndSplineSet
EndChar

StartChar: uni1EDE
Encoding: 7902 7902 127
Width: 844
Flags: W
LayerCount: 2
Fore
SplineSet
866 580 m 0
 842 550 813 530 777 521 c 1
 786 476 786 424 777 365 c 0
 764 287 739 220 701 164 c 0
 663 107 614 64 554 34 c 0
 495 5 427 -10 350 -10 c 0
 273 -10 210 5 160 34 c 0
 109 64 74 107 54 164 c 0
 33 220 29 287 42 365 c 0
 55 443 80 510 118 566 c 0
 155 623 204 666 264 696 c 0
 324 725 392 740 469 740 c 0
 571 740 649 714 703 662 c 1
 713 665 721 672 728 681 c 0
 735 690 739 702 741 715 c 0
 743 730 744 749 743 774 c 0
 742 798 740 818 736 835 c 1
 912 835 l 1
 920 793 920 747 912 697 c 0
 904 648 888 609 866 580 c 0
576 365 m 0
 597 502 553 570 442 570 c 0
 331 570 264 502 243 365 c 0
 222 228 266 160 377 160 c 0
 488 160 555 228 576 365 c 0
546 830 m 0
 548 842 546 850 541 854 c 0
 536 858 524 860 507 860 c 0
 485 860 460 858 432 854 c 0
 404 849 377 843 351 835 c 1
 358 970 l 1
 387 976 419 981 454 984 c 0
 489 988 522 990 552 990 c 0
 603 990 641 987 668 982 c 0
 694 976 712 966 720 953 c 0
 730 940 732 920 728 895 c 0
 725 876 720 855 712 832 c 0
 703 809 694 788 684 770 c 1
 527 770 l 1
 537 795 543 815 546 830 c 0
EndSplineSet
EndChar

StartChar: uni1EE0
Encoding: 7904 7904 128
Width: 844
Flags: W
LayerCount: 2
Fore
SplineSet
866 580 m 0
 842 550 813 530 777 521 c 1
 786 476 786 424 777 365 c 0
 764 287 739 220 701 164 c 0
 663 107 614 64 554 34 c 0
 495 5 427 -10 350 -10 c 0
 273 -10 210 5 160 34 c 0
 109 64 74 107 54 164 c 0
 33 220 29 287 42 365 c 0
 55 443 80 510 118 566 c 0
 155 623 204 666 264 696 c 0
 324 725 392 740 469 740 c 0
 571 740 649 714 703 662 c 1
 713 665 721 672 728 681 c 0
 735 690 739 702 741 715 c 0
 743 730 744 749 743 774 c 0
 742 798 740 818 736 835 c 1
 912 835 l 1
 920 793 920 747 912 697 c 0
 904 648 888 609 866 580 c 0
576 365 m 0
 597 502 553 570 442 570 c 0
 331 570 264 502 243 365 c 0
 222 228 266 160 377 160 c 0
 488 160 555 228 576 365 c 0
430 812 m 0
 408 827 391 835 378 835 c 0
 369 835 363 831 358 822 c 0
 354 814 350 797 346 770 c 1
 201 770 l 1
 213 845 232 900 258 936 c 0
 283 972 317 990 358 990 c 0
 400 990 446 973 495 938 c 0
 517 923 534 915 547 915 c 0
 556 915 562 919 566 928 c 0
 571 936 575 953 579 980 c 1
 724 980 l 1
 712 905 693 850 668 814 c 0
 643 778 609 760 567 760 c 0
 525 760 479 777 430 812 c 0
EndSplineSet
EndChar

StartChar: Ohungarumlaut
Encoding: 336 336 129
Width: 814
Flags: W
LayerCount: 2
Fore
SplineSet
160 34 m 0
 109 64 74 107 54 164 c 0
 33 220 29 287 42 365 c 0
 55 443 80 510 118 566 c 0
 155 623 204 666 264 696 c 0
 324 725 392 740 469 740 c 0
 546 740 609 725 660 696 c 0
 710 666 745 623 765 566 c 0
 785 510 789 443 777 365 c 0
 764 287 739 220 701 164 c 0
 663 107 614 64 554 34 c 0
 495 5 427 -10 350 -10 c 0
 273 -10 210 5 160 34 c 0
576 365 m 0
 597 502 553 570 442 570 c 0
 331 570 264 502 243 365 c 0
 222 228 266 160 377 160 c 0
 488 160 555 228 576 365 c 0
435 770 m 1
 268 770 l 1
 360 980 l 1
 586 980 l 1
 435 770 l 1
705 770 m 1
 538 770 l 1
 630 980 l 1
 856 980 l 1
 705 770 l 1
EndSplineSet
EndChar

StartChar: uni020E
Encoding: 526 526 130
Width: 814
Flags: W
LayerCount: 2
Fore
SplineSet
160 34 m 0
 109 64 74 107 54 164 c 0
 33 220 29 287 42 365 c 0
 55 443 80 510 118 566 c 0
 155 623 204 666 264 696 c 0
 324 725 392 740 469 740 c 0
 546 740 609 725 660 696 c 0
 710 666 745 623 765 566 c 0
 785 510 789 443 777 365 c 0
 764 287 739 220 701 164 c 0
 663 107 614 64 554 34 c 0
 495 5 427 -10 350 -10 c 0
 273 -10 210 5 160 34 c 0
576 365 m 0
 597 502 553 570 442 570 c 0
 331 570 264 502 243 365 c 0
 222 228 266 160 377 160 c 0
 488 160 555 228 576 365 c 0
622 962 m 0
 656 942 681 916 696 883 c 0
 712 850 717 812 710 770 c 1
 544 770 l 1
 545 801 540 823 530 838 c 0
 519 853 502 860 479 860 c 0
 456 860 436 853 422 838 c 0
 406 823 395 801 387 770 c 1
 220 770 l 1
 227 812 243 850 270 883 c 0
 296 916 329 942 369 962 c 0
 409 980 453 990 500 990 c 0
 547 990 588 980 622 962 c 0
EndSplineSet
EndChar

StartChar: Omacron
Encoding: 332 332 131
Width: 814
Flags: W
LayerCount: 2
Fore
SplineSet
160 34 m 0
 109 64 74 107 54 164 c 0
 33 220 29 287 42 365 c 0
 55 443 80 510 118 566 c 0
 155 623 204 666 264 696 c 0
 324 725 392 740 469 740 c 0
 546 740 609 725 660 696 c 0
 710 666 745 623 765 566 c 0
 785 510 789 443 777 365 c 0
 764 287 739 220 701 164 c 0
 663 107 614 64 554 34 c 0
 495 5 427 -10 350 -10 c 0
 273 -10 210 5 160 34 c 0
576 365 m 0
 597 502 553 570 442 570 c 0
 331 570 264 502 243 365 c 0
 222 228 266 160 377 160 c 0
 488 160 555 228 576 365 c 0
282 945 m 1
 693 945 l 1
 671 805 l 1
 259 805 l 1
 282 945 l 1
EndSplineSet
EndChar

StartChar: uni01EA
Encoding: 490 490 132
Width: 793
Flags: W
LayerCount: 2
Fore
SplineSet
344 -57 m 0
 343 -66 346 -73 354 -78 c 0
 361 -83 373 -85 389 -85 c 0
 404 -85 420 -83 438 -80 c 0
 455 -76 472 -71 488 -65 c 1
 482 -200 l 1
 445 -213 403 -220 356 -220 c 0
 289 -220 239 -208 206 -184 c 0
 173 -160 160 -126 167 -82 c 0
 172 -51 188 -20 216 9 c 1
 146 32 96 75 66 136 c 0
 35 197 27 274 42 365 c 0
 55 443 80 510 118 566 c 0
 155 623 204 666 264 696 c 0
 324 725 392 740 469 740 c 0
 546 740 609 725 660 696 c 0
 710 666 745 623 765 566 c 0
 785 510 789 443 777 365 c 0
 760 256 718 170 654 105 c 0
 588 40 505 3 404 -7 c 1
 367 -24 347 -40 344 -57 c 0
243 365 m 0
 222 228 266 160 377 160 c 0
 488 160 555 228 576 365 c 0
 597 502 553 570 442 570 c 0
 331 570 264 502 243 365 c 0
EndSplineSet
EndChar

StartChar: Oslash
Encoding: 216 216 133
Width: 793
Flags: W
LayerCount: 2
Fore
SplineSet
777 365 m 0
 764 287 739 220 701 164 c 0
 663 107 614 64 554 34 c 0
 495 5 427 -10 350 -10 c 0
 291 -10 239 -1 193 18 c 1
 127 -55 l 1
 24 35 l 1
 85 103 l 1
 39 168 25 256 42 365 c 0
 55 443 80 510 118 566 c 0
 155 623 204 666 264 696 c 0
 324 725 392 740 469 740 c 0
 528 740 580 731 626 712 c 1
 692 785 l 1
 795 695 l 1
 734 627 l 1
 780 562 794 474 777 365 c 0
239 277 m 1
 495 564 l 1
 479 568 461 570 442 570 c 0
 331 570 264 502 243 365 c 0
 238 330 236 301 239 277 c 1
576 365 m 0
 581 400 583 429 580 453 c 1
 324 166 l 1
 340 162 358 160 377 160 c 0
 488 160 555 228 576 365 c 0
EndSplineSet
EndChar

StartChar: Oslashacute
Encoding: 510 510 134
Width: 814
Flags: W
LayerCount: 2
Fore
SplineSet
777 365 m 0
 764 287 739 220 701 164 c 0
 663 107 614 64 554 34 c 0
 495 5 427 -10 350 -10 c 0
 291 -10 239 -1 193 18 c 1
 127 -55 l 1
 24 35 l 1
 85 103 l 1
 39 168 25 256 42 365 c 0
 55 443 80 510 118 566 c 0
 155 623 204 666 264 696 c 0
 324 725 392 740 469 740 c 0
 528 740 580 731 626 712 c 1
 692 785 l 1
 795 695 l 1
 734 627 l 1
 780 562 794 474 777 365 c 0
239 277 m 1
 495 564 l 1
 479 568 461 570 442 570 c 0
 331 570 264 502 243 365 c 0
 238 330 236 301 239 277 c 1
576 365 m 0
 581 400 583 429 580 453 c 1
 324 166 l 1
 340 162 358 160 377 160 c 0
 488 160 555 228 576 365 c 0
565 770 m 1
 398 770 l 1
 490 980 l 1
 716 980 l 1
 565 770 l 1
EndSplineSet
EndChar

StartChar: Otilde
Encoding: 213 213 135
Width: 814
Flags: W
LayerCount: 2
Fore
SplineSet
160 34 m 0
 109 64 74 107 54 164 c 0
 33 220 29 287 42 365 c 0
 55 443 80 510 118 566 c 0
 155 623 204 666 264 696 c 0
 324 725 392 740 469 740 c 0
 546 740 609 725 660 696 c 0
 710 666 745 623 765 566 c 0
 785 510 789 443 777 365 c 0
 764 287 739 220 701 164 c 0
 663 107 614 64 554 34 c 0
 495 5 427 -10 350 -10 c 0
 273 -10 210 5 160 34 c 0
576 365 m 0
 597 502 553 570 442 570 c 0
 331 570 264 502 243 365 c 0
 222 228 266 160 377 160 c 0
 488 160 555 228 576 365 c 0
430 812 m 0
 408 827 391 835 378 835 c 0
 369 835 363 831 358 822 c 0
 354 814 350 797 346 770 c 1
 201 770 l 1
 213 845 232 900 258 936 c 0
 283 972 317 990 358 990 c 0
 400 990 446 973 495 938 c 0
 517 923 534 915 547 915 c 0
 556 915 562 919 566 928 c 0
 571 936 575 953 579 980 c 1
 724 980 l 1
 712 905 693 850 668 814 c 0
 643 778 609 760 567 760 c 0
 525 760 479 777 430 812 c 0
EndSplineSet
EndChar

StartChar: uni022C
Encoding: 556 556 136
Width: 814
Flags: W
LayerCount: 2
Fore
SplineSet
160 34 m 0
 109 64 74 107 54 164 c 0
 33 220 29 287 42 365 c 0
 55 443 80 510 118 566 c 0
 155 623 204 666 264 696 c 0
 324 725 392 740 469 740 c 0
 546 740 609 725 660 696 c 0
 710 666 745 623 765 566 c 0
 785 510 789 443 777 365 c 0
 764 287 739 220 701 164 c 0
 663 107 614 64 554 34 c 0
 495 5 427 -10 350 -10 c 0
 273 -10 210 5 160 34 c 0
576 365 m 0
 597 502 553 570 442 570 c 0
 331 570 264 502 243 365 c 0
 222 228 266 160 377 160 c 0
 488 160 555 228 576 365 c 0
430 812 m 0
 408 827 391 835 378 835 c 0
 369 835 363 831 358 822 c 0
 354 814 350 797 346 770 c 1
 201 770 l 1
 213 845 232 900 258 936 c 0
 283 972 317 990 358 990 c 0
 400 990 446 973 495 938 c 0
 517 923 534 915 547 915 c 0
 556 915 562 919 566 928 c 0
 571 936 575 953 579 980 c 1
 724 980 l 1
 712 905 693 850 668 814 c 0
 643 778 609 760 567 760 c 0
 525 760 479 777 430 812 c 0
323 1205 m 1
 734 1205 l 1
 712 1065 l 1
 300 1065 l 1
 323 1205 l 1
EndSplineSet
EndChar

StartChar: OE
Encoding: 338 338 137
Width: 1027
Flags: W
LayerCount: 2
Fore
SplineSet
739 570 m 1
 720 453 l 1
 985 453 l 1
 960 298 l 1
 696 298 l 1
 674 160 l 1
 958 160 l 1
 933 0 l 1
 454 0 l 1
 422 -7 387 -10 350 -10 c 0
 273 -10 210 5 160 34 c 0
 109 64 74 107 54 164 c 0
 33 220 29 287 42 365 c 0
 55 443 80 510 118 566 c 0
 155 623 204 666 264 696 c 0
 324 725 392 740 469 740 c 0
 506 740 540 737 569 730 c 1
 1048 730 l 1
 1023 570 l 1
 739 570 l 1
377 160 m 0
 418 160 453 170 482 189 c 1
 538 541 l 1
 514 560 482 570 442 570 c 0
 331 570 264 502 243 365 c 0
 221 228 266 160 377 160 c 0
EndSplineSet
EndChar

StartChar: P
Encoding: 80 80 138
Width: 641
Flags: W
LayerCount: 2
Fore
SplineSet
596 667 m 0
 644 625 661 561 648 475 c 0
 635 392 600 329 542 286 c 0
 486 242 409 220 314 220 c 2
 245 220 l 1
 210 0 l 1
 14 0 l 1
 130 730 l 1
 355 730 l 2
 468 730 548 709 596 667 c 0
406 403 m 0
 428 418 442 442 447 475 c 0
 452 508 446 532 428 547 c 0
 411 562 381 570 340 570 c 2
 300 570 l 1
 270 380 l 1
 310 380 l 2
 351 380 383 388 406 403 c 0
EndSplineSet
EndChar

StartChar: Thorn
Encoding: 222 222 139
Width: 641
Flags: W
LayerCount: 2
Fore
SplineSet
580 567 m 0
 629 525 646 461 632 375 c 0
 619 292 584 229 526 186 c 0
 470 142 393 120 298 120 c 2
 229 120 l 1
 210 0 l 1
 14 0 l 1
 130 730 l 1
 326 730 l 1
 310 630 l 1
 339 630 l 2
 452 630 532 609 580 567 c 0
390 303 m 0
 412 318 426 342 431 375 c 0
 436 408 430 432 413 447 c 0
 396 462 366 470 324 470 c 2
 285 470 l 1
 254 280 l 1
 294 280 l 2
 335 280 367 288 390 303 c 0
EndSplineSet
EndChar

StartChar: Q
Encoding: 81 81 140
Width: 797
Flags: W
LayerCount: 2
Fore
SplineSet
727 -40 m 1
 553 -150 l 1
 536 -113 519 -84 502 -64 c 0
 485 -45 464 -31 441 -22 c 0
 418 -14 387 -10 350 -10 c 0
 273 -10 210 5 160 34 c 0
 110 64 75 107 54 164 c 0
 33 220 29 287 42 365 c 0
 55 443 80 510 118 566 c 0
 156 623 205 666 264 696 c 0
 324 725 392 740 469 740 c 0
 546 740 610 725 660 696 c 0
 711 666 746 623 766 566 c 0
 785 510 789 443 777 365 c 0
 768 301 749 244 720 195 c 0
 691 146 654 105 608 74 c 1
 659 45 699 7 727 -40 c 1
510 212 m 0
 544 246 566 297 576 365 c 0
 599 502 554 570 442 570 c 0
 332 570 266 502 243 365 c 0
 222 228 267 160 377 160 c 0
 432 160 477 177 510 212 c 0
EndSplineSet
EndChar

StartChar: R
Encoding: 82 82 141
Width: 670
Flags: W
LayerCount: 2
Fore
SplineSet
252 255 m 1
 251 255 l 1
 210 0 l 1
 14 0 l 1
 130 730 l 1
 355 730 l 2
 468 730 548 711 597 672 c 0
 646 633 664 574 651 495 c 0
 642 437 620 389 586 352 c 0
 553 314 508 287 452 272 c 1
 602 0 l 1
 392 0 l 1
 252 255 l 1
300 570 m 1
 274 400 l 1
 313 400 l 2
 355 400 387 407 409 421 c 0
 431 435 444 456 449 485 c 0
 454 514 447 535 429 549 c 0
 411 563 381 570 340 570 c 2
 300 570 l 1
EndSplineSet
EndChar

StartChar: Racute
Encoding: 340 340 142
Width: 691
Flags: W
LayerCount: 2
Fore
SplineSet
252 255 m 1
 251 255 l 1
 210 0 l 1
 14 0 l 1
 130 730 l 1
 355 730 l 2
 468 730 548 711 597 672 c 0
 646 633 664 574 651 495 c 0
 642 437 620 389 586 352 c 0
 553 314 508 287 452 272 c 1
 602 0 l 1
 392 0 l 1
 252 255 l 1
300 570 m 1
 274 400 l 1
 313 400 l 2
 355 400 387 407 409 421 c 0
 431 435 444 456 449 485 c 0
 454 514 447 535 429 549 c 0
 411 563 381 570 340 570 c 2
 300 570 l 1
488 770 m 1
 321 770 l 1
 413 980 l 1
 639 980 l 1
 488 770 l 1
EndSplineSet
EndChar

StartChar: Rcaron
Encoding: 344 344 143
Width: 691
Flags: W
LayerCount: 2
Fore
SplineSet
252 255 m 1
 251 255 l 1
 210 0 l 1
 14 0 l 1
 130 730 l 1
 355 730 l 2
 468 730 548 711 597 672 c 0
 646 633 664 574 651 495 c 0
 642 437 620 389 586 352 c 0
 553 314 508 287 452 272 c 1
 602 0 l 1
 392 0 l 1
 252 255 l 1
300 570 m 1
 274 400 l 1
 313 400 l 2
 355 400 387 407 409 421 c 0
 431 435 444 456 449 485 c 0
 454 514 447 535 429 549 c 0
 411 563 381 570 340 570 c 2
 300 570 l 1
161 980 m 1
 367 980 l 1
 402 840 l 1
 404 840 l 1
 484 980 l 1
 690 980 l 1
 539 770 l 1
 245 770 l 1
 161 980 l 1
EndSplineSet
EndChar

StartChar: uni0156
Encoding: 342 342 144
Width: 691
Flags: W
LayerCount: 2
Fore
SplineSet
252 255 m 1
 251 255 l 1
 210 0 l 1
 14 0 l 1
 130 730 l 1
 355 730 l 2
 468 730 548 711 597 672 c 0
 646 633 664 574 651 495 c 0
 642 437 620 389 586 352 c 0
 553 314 508 287 452 272 c 1
 602 0 l 1
 392 0 l 1
 252 255 l 1
300 570 m 1
 274 400 l 1
 313 400 l 2
 355 400 387 407 409 421 c 0
 431 435 444 456 449 485 c 0
 454 514 447 535 429 549 c 0
 411 563 381 570 340 570 c 2
 300 570 l 1
215 -250 m 1
 49 -250 l 1
 141 -40 l 1
 366 -40 l 1
 215 -250 l 1
EndSplineSet
EndChar

StartChar: uni0210
Encoding: 528 528 145
Width: 691
Flags: W
LayerCount: 2
Fore
SplineSet
252 255 m 1
 251 255 l 1
 210 0 l 1
 14 0 l 1
 130 730 l 1
 355 730 l 2
 468 730 548 711 597 672 c 0
 646 633 664 574 651 495 c 0
 642 437 620 389 586 352 c 0
 553 314 508 287 452 272 c 1
 602 0 l 1
 392 0 l 1
 252 255 l 1
300 570 m 1
 274 400 l 1
 313 400 l 2
 355 400 387 407 409 421 c 0
 431 435 444 456 449 485 c 0
 454 514 447 535 429 549 c 0
 411 563 381 570 340 570 c 2
 300 570 l 1
100 980 m 1
 326 980 l 1
 351 770 l 1
 185 770 l 1
 100 980 l 1
365 980 m 1
 590 980 l 1
 616 770 l 1
 449 770 l 1
 365 980 l 1
EndSplineSet
EndChar

StartChar: uni0212
Encoding: 530 530 146
Width: 691
Flags: W
LayerCount: 2
Fore
SplineSet
252 255 m 1
 251 255 l 1
 210 0 l 1
 14 0 l 1
 130 730 l 1
 355 730 l 2
 468 730 548 711 597 672 c 0
 646 633 664 574 651 495 c 0
 642 437 620 389 586 352 c 0
 553 314 508 287 452 272 c 1
 602 0 l 1
 392 0 l 1
 252 255 l 1
300 570 m 1
 274 400 l 1
 313 400 l 2
 355 400 387 407 409 421 c 0
 431 435 444 456 449 485 c 0
 454 514 447 535 429 549 c 0
 411 563 381 570 340 570 c 2
 300 570 l 1
545 962 m 0
 579 942 604 916 620 883 c 0
 635 850 640 812 633 770 c 1
 467 770 l 1
 468 801 463 823 452 838 c 0
 442 853 425 860 402 860 c 0
 379 860 360 853 344 838 c 0
 330 823 318 801 310 770 c 1
 143 770 l 1
 150 812 166 850 192 883 c 0
 219 916 252 942 292 962 c 0
 332 980 376 990 423 990 c 0
 470 990 511 980 545 962 c 0
EndSplineSet
EndChar

StartChar: S
Encoding: 83 83 147
Width: 619
Flags: W
LayerCount: 2
Fore
SplineSet
104 6 m 0
 61 18 26 33 -1 54 c 1
 83 212 l 1
 112 194 143 180 177 170 c 0
 211 160 244 155 275 155 c 0
 302 155 323 160 338 169 c 0
 354 178 364 192 367 210 c 0
 369 225 365 236 356 246 c 0
 346 254 327 264 299 275 c 0
 238 297 191 320 157 344 c 0
 123 367 100 394 88 422 c 0
 75 452 72 486 79 525 c 0
 90 594 122 648 177 684 c 0
 232 722 305 740 397 740 c 0
 441 740 484 736 526 727 c 0
 567 718 602 707 631 692 c 1
 547 534 l 1
 492 561 437 575 380 575 c 0
 321 575 289 558 284 525 c 0
 282 511 286 499 298 490 c 0
 308 480 328 469 357 458 c 0
 417 435 463 411 496 388 c 0
 529 364 551 338 564 310 c 0
 576 281 579 248 573 210 c 0
 562 139 528 85 472 47 c 0
 416 9 342 -10 249 -10 c 0
 195 -10 147 -4 104 6 c 0
EndSplineSet
EndChar

StartChar: Sacute
Encoding: 346 346 148
Width: 638
Flags: W
LayerCount: 2
Fore
SplineSet
104 6 m 0
 61 18 26 33 -1 54 c 1
 83 212 l 1
 112 194 143 180 177 170 c 0
 211 160 244 155 275 155 c 0
 302 155 323 160 338 169 c 0
 354 178 364 192 367 210 c 0
 369 225 365 236 356 246 c 0
 346 254 327 264 299 275 c 0
 238 297 191 320 157 344 c 0
 123 367 100 394 88 422 c 0
 75 452 72 486 79 525 c 0
 90 594 122 648 177 684 c 0
 232 722 305 740 397 740 c 0
 441 740 484 736 526 727 c 0
 567 718 602 707 631 692 c 1
 547 534 l 1
 492 561 437 575 380 575 c 0
 321 575 289 558 284 525 c 0
 282 511 286 499 298 490 c 0
 308 480 328 469 357 458 c 0
 417 435 463 411 496 388 c 0
 529 364 551 338 564 310 c 0
 576 281 579 248 573 210 c 0
 562 139 528 85 472 47 c 0
 416 9 342 -10 249 -10 c 0
 195 -10 147 -4 104 6 c 0
476 770 m 1
 309 770 l 1
 401 980 l 1
 627 980 l 1
 476 770 l 1
EndSplineSet
EndChar

StartChar: Scaron
Encoding: 352 352 149
Width: 638
Flags: W
LayerCount: 2
Fore
SplineSet
104 6 m 0
 61 18 26 33 -1 54 c 1
 83 212 l 1
 112 194 143 180 177 170 c 0
 211 160 244 155 275 155 c 0
 302 155 323 160 338 169 c 0
 354 178 364 192 367 210 c 0
 369 225 365 236 356 246 c 0
 346 254 327 264 299 275 c 0
 238 297 191 320 157 344 c 0
 123 367 100 394 88 422 c 0
 75 452 72 486 79 525 c 0
 90 594 122 648 177 684 c 0
 232 722 305 740 397 740 c 0
 441 740 484 736 526 727 c 0
 567 718 602 707 631 692 c 1
 547 534 l 1
 492 561 437 575 380 575 c 0
 321 575 289 558 284 525 c 0
 282 511 286 499 298 490 c 0
 308 480 328 469 357 458 c 0
 417 435 463 411 496 388 c 0
 529 364 551 338 564 310 c 0
 576 281 579 248 573 210 c 0
 562 139 528 85 472 47 c 0
 416 9 342 -10 249 -10 c 0
 195 -10 147 -4 104 6 c 0
149 980 m 1
 355 980 l 1
 390 840 l 1
 392 840 l 1
 472 980 l 1
 678 980 l 1
 527 770 l 1
 233 770 l 1
 149 980 l 1
EndSplineSet
EndChar

StartChar: Scedilla
Encoding: 350 350 150
Width: 619
Flags: W
LayerCount: 2
Fore
SplineSet
517 87 m 0
 488 54 448 29 399 12 c 1
 418 -17 425 -49 420 -82 c 0
 413 -126 390 -160 350 -184 c 0
 309 -208 255 -220 188 -220 c 0
 141 -220 102 -213 69 -200 c 1
 105 -65 l 1
 119 -71 134 -76 151 -80 c 0
 168 -83 183 -85 198 -85 c 0
 214 -85 227 -83 236 -78 c 0
 245 -73 251 -66 252 -57 c 0
 255 -40 241 -24 210 -9 c 1
 117 -4 47 17 -1 54 c 1
 83 212 l 1
 112 194 143 180 177 170 c 0
 211 160 244 155 275 155 c 0
 302 155 323 160 338 169 c 0
 354 178 364 192 367 210 c 0
 369 225 365 236 356 246 c 0
 346 254 327 264 299 275 c 0
 238 297 191 320 157 344 c 0
 123 367 100 394 88 422 c 0
 75 452 72 486 79 525 c 0
 90 594 122 648 177 684 c 0
 232 722 305 740 397 740 c 0
 441 740 484 736 526 727 c 0
 567 718 602 707 631 692 c 1
 547 534 l 1
 492 561 437 575 380 575 c 0
 321 575 289 558 284 525 c 0
 282 511 286 499 298 490 c 0
 308 480 328 469 357 458 c 0
 417 435 463 411 496 388 c 0
 529 364 551 338 564 310 c 0
 576 281 579 248 573 210 c 0
 565 161 546 120 517 87 c 0
EndSplineSet
EndChar

StartChar: Scircumflex
Encoding: 348 348 151
Width: 638
Flags: W
LayerCount: 2
Fore
SplineSet
104 6 m 0
 61 18 26 33 -1 54 c 1
 83 212 l 1
 112 194 143 180 177 170 c 0
 211 160 244 155 275 155 c 0
 302 155 323 160 338 169 c 0
 354 178 364 192 367 210 c 0
 369 225 365 236 356 246 c 0
 346 254 327 264 299 275 c 0
 238 297 191 320 157 344 c 0
 123 367 100 394 88 422 c 0
 75 452 72 486 79 525 c 0
 90 594 122 648 177 684 c 0
 232 722 305 740 397 740 c 0
 441 740 484 736 526 727 c 0
 567 718 602 707 631 692 c 1
 547 534 l 1
 492 561 437 575 380 575 c 0
 321 575 289 558 284 525 c 0
 282 511 286 499 298 490 c 0
 308 480 328 469 357 458 c 0
 417 435 463 411 496 388 c 0
 529 364 551 338 564 310 c 0
 576 281 579 248 573 210 c 0
 562 139 528 85 472 47 c 0
 416 9 342 -10 249 -10 c 0
 195 -10 147 -4 104 6 c 0
276 980 m 1
 570 980 l 1
 655 770 l 1
 449 770 l 1
 413 910 l 1
 411 910 l 1
 331 770 l 1
 126 770 l 1
 276 980 l 1
EndSplineSet
EndChar

StartChar: uni0218
Encoding: 536 536 152
Width: 638
Flags: W
LayerCount: 2
Fore
SplineSet
104 6 m 0
 61 18 26 33 -1 54 c 1
 83 212 l 1
 112 194 143 180 177 170 c 0
 211 160 244 155 275 155 c 0
 302 155 323 160 338 169 c 0
 354 178 364 192 367 210 c 0
 369 225 365 236 356 246 c 0
 346 254 327 264 299 275 c 0
 238 297 191 320 157 344 c 0
 123 367 100 394 88 422 c 0
 75 452 72 486 79 525 c 0
 90 594 122 648 177 684 c 0
 232 722 305 740 397 740 c 0
 441 740 484 736 526 727 c 0
 567 718 602 707 631 692 c 1
 547 534 l 1
 492 561 437 575 380 575 c 0
 321 575 289 558 284 525 c 0
 282 511 286 499 298 490 c 0
 308 480 328 469 357 458 c 0
 417 435 463 411 496 388 c 0
 529 364 551 338 564 310 c 0
 576 281 579 248 573 210 c 0
 562 139 528 85 472 47 c 0
 416 9 342 -10 249 -10 c 0
 195 -10 147 -4 104 6 c 0
203 -250 m 1
 37 -250 l 1
 129 -40 l 1
 354 -40 l 1
 203 -250 l 1
EndSplineSet
EndChar

StartChar: uni1E9E
Encoding: 7838 7838 153
Width: 697
Flags: W
LayerCount: 2
Fore
SplineSet
262 15 m 1
 312 180 l 1
 342 167 369 160 392 160 c 0
 435 160 459 180 465 220 c 0
 468 236 466 248 460 256 c 0
 454 265 442 271 425 274 c 0
 408 278 382 280 348 280 c 1
 367 400 l 1
 456 500 l 1
 460 525 456 543 446 554 c 0
 434 565 414 570 384 570 c 0
 354 570 332 565 317 554 c 0
 302 543 293 525 289 500 c 2
 210 0 l 1
 14 0 l 1
 93 500 l 2
 118 660 224 740 411 740 c 0
 597 740 677 660 652 500 c 1
 550 397 l 1
 550 395 l 1
 596 386 629 365 648 334 c 0
 667 303 673 261 665 210 c 0
 654 139 625 84 578 46 c 0
 531 9 470 -10 395 -10 c 0
 347 -10 303 -2 262 15 c 1
EndSplineSet
EndChar

StartChar: uni018F
Encoding: 399 399 154
Width: 742
Flags: W
LayerCount: 2
Fore
SplineSet
666 643 m 0
 725 578 745 486 726 365 c 0
 714 288 690 221 652 164 c 0
 616 108 568 65 511 35 c 0
 454 5 389 -10 317 -10 c 0
 247 -10 189 4 143 32 c 0
 97 61 65 102 47 156 c 0
 29 211 26 276 38 351 c 0
 41 369 44 388 48 408 c 0
 52 427 55 441 58 448 c 1
 542 448 l 1
 547 492 536 523 508 542 c 0
 482 561 435 570 370 570 c 0
 297 570 224 559 151 536 c 1
 144 701 l 1
 176 713 213 722 256 730 c 0
 299 736 341 740 384 740 c 0
 513 740 607 708 666 643 c 0
456 192 m 0
 482 212 502 245 515 290 c 1
 227 290 l 1
 226 245 235 212 256 192 c 0
 276 170 308 160 351 160 c 0
 394 160 428 170 456 192 c 0
EndSplineSet
EndChar

StartChar: T
Encoding: 84 84 155
Width: 632
Flags: W
LayerCount: 2
Fore
SplineSet
259 560 m 1
 67 560 l 1
 94 730 l 1
 679 730 l 1
 652 560 l 1
 460 560 l 1
 372 0 l 1
 171 0 l 1
 259 560 l 1
EndSplineSet
EndChar

StartChar: Tbar
Encoding: 358 358 156
Width: 679
Flags: W
LayerCount: 2
Fore
SplineSet
676 560 m 1
 484 560 l 1
 456 385 l 1
 601 385 l 1
 579 245 l 1
 434 245 l 1
 395 0 l 1
 194 0 l 1
 233 245 l 1
 89 245 l 1
 111 385 l 1
 255 385 l 1
 283 560 l 1
 91 560 l 1
 118 730 l 1
 703 730 l 1
 676 560 l 1
EndSplineSet
EndChar

StartChar: Tcaron
Encoding: 356 356 157
Width: 649
Flags: W
LayerCount: 2
Fore
SplineSet
259 560 m 1
 67 560 l 1
 94 730 l 1
 679 730 l 1
 652 560 l 1
 460 560 l 1
 372 0 l 1
 171 0 l 1
 259 560 l 1
156 980 m 1
 362 980 l 1
 397 840 l 1
 399 840 l 1
 479 980 l 1
 685 980 l 1
 534 770 l 1
 240 770 l 1
 156 980 l 1
EndSplineSet
EndChar

StartChar: uni0162
Encoding: 354 354 158
Width: 632
Flags: W
LayerCount: 2
Fore
SplineSet
460 560 m 1
 375 20 l 1
 398 -13 406 -47 401 -82 c 0
 394 -126 371 -160 330 -184 c 0
 289 -208 235 -220 168 -220 c 0
 121 -220 82 -213 49 -200 c 1
 85 -65 l 1
 99 -71 114 -76 131 -80 c 0
 148 -83 163 -85 178 -85 c 0
 194 -85 207 -83 216 -78 c 0
 225 -73 231 -66 232 -57 c 0
 235 -38 215 -19 171 0 c 1
 259 560 l 1
 67 560 l 1
 94 730 l 1
 679 730 l 1
 652 560 l 1
 460 560 l 1
EndSplineSet
EndChar

StartChar: uni021A
Encoding: 538 538 159
Width: 649
Flags: W
LayerCount: 2
Fore
SplineSet
259 560 m 1
 67 560 l 1
 94 730 l 1
 679 730 l 1
 652 560 l 1
 460 560 l 1
 372 0 l 1
 171 0 l 1
 259 560 l 1
210 -250 m 1
 44 -250 l 1
 136 -40 l 1
 361 -40 l 1
 210 -250 l 1
EndSplineSet
EndChar

StartChar: U
Encoding: 85 85 160
Width: 695
Flags: W
LayerCount: 2
Fore
SplineSet
94 62 m 0
 51 110 37 179 51 270 c 2
 124 730 l 1
 320 730 l 1
 251 295 l 2
 243 244 245 209 256 190 c 0
 267 170 291 160 328 160 c 0
 365 160 392 170 409 190 c 0
 426 209 439 244 447 295 c 2
 516 730 l 1
 712 730 l 1
 639 270 l 2
 624 179 588 110 530 62 c 0
 473 14 396 -10 301 -10 c 0
 206 -10 137 14 94 62 c 0
EndSplineSet
EndChar

StartChar: Uacute
Encoding: 218 218 161
Width: 718
Flags: W
LayerCount: 2
Fore
SplineSet
94 62 m 0
 51 110 37 179 51 270 c 2
 124 730 l 1
 320 730 l 1
 251 295 l 2
 243 244 245 209 256 190 c 0
 267 170 291 160 328 160 c 0
 365 160 392 170 409 190 c 0
 426 209 439 244 447 295 c 2
 516 730 l 1
 712 730 l 1
 639 270 l 2
 624 179 588 110 530 62 c 0
 473 14 396 -10 301 -10 c 0
 206 -10 137 14 94 62 c 0
517 770 m 1
 350 770 l 1
 442 980 l 1
 668 980 l 1
 517 770 l 1
EndSplineSet
EndChar

StartChar: Ubreve
Encoding: 364 364 162
Width: 718
Flags: W
LayerCount: 2
Fore
SplineSet
94 62 m 0
 51 110 37 179 51 270 c 2
 124 730 l 1
 320 730 l 1
 251 295 l 2
 243 244 245 209 256 190 c 0
 267 170 291 160 328 160 c 0
 365 160 392 170 409 190 c 0
 426 209 439 244 447 295 c 2
 516 730 l 1
 712 730 l 1
 639 270 l 2
 624 179 588 110 530 62 c 0
 473 14 396 -10 301 -10 c 0
 206 -10 137 14 94 62 c 0
294 788 m 0
 259 808 234 834 218 867 c 0
 203 900 198 938 205 980 c 1
 372 980 l 1
 371 949 375 927 386 912 c 0
 396 897 413 890 436 890 c 0
 459 890 478 897 493 912 c 0
 508 927 520 949 529 980 c 1
 695 980 l 1
 688 938 672 900 646 867 c 0
 620 834 587 808 546 788 c 0
 506 770 463 760 416 760 c 0
 369 760 328 770 294 788 c 0
EndSplineSet
EndChar

StartChar: Ucircumflex
Encoding: 219 219 163
Width: 718
Flags: W
LayerCount: 2
Fore
SplineSet
94 62 m 0
 51 110 37 179 51 270 c 2
 124 730 l 1
 320 730 l 1
 251 295 l 2
 243 244 245 209 256 190 c 0
 267 170 291 160 328 160 c 0
 365 160 392 170 409 190 c 0
 426 209 439 244 447 295 c 2
 516 730 l 1
 712 730 l 1
 639 270 l 2
 624 179 588 110 530 62 c 0
 473 14 396 -10 301 -10 c 0
 206 -10 137 14 94 62 c 0
317 980 m 1
 611 980 l 1
 696 770 l 1
 490 770 l 1
 454 910 l 1
 452 910 l 1
 372 770 l 1
 167 770 l 1
 317 980 l 1
EndSplineSet
EndChar

StartChar: uni0214
Encoding: 532 532 164
Width: 718
Flags: W
LayerCount: 2
Fore
SplineSet
94 62 m 0
 51 110 37 179 51 270 c 2
 124 730 l 1
 320 730 l 1
 251 295 l 2
 243 244 245 209 256 190 c 0
 267 170 291 160 328 160 c 0
 365 160 392 170 409 190 c 0
 426 209 439 244 447 295 c 2
 516 730 l 1
 712 730 l 1
 639 270 l 2
 624 179 588 110 530 62 c 0
 473 14 396 -10 301 -10 c 0
 206 -10 137 14 94 62 c 0
129 980 m 1
 355 980 l 1
 380 770 l 1
 214 770 l 1
 129 980 l 1
394 980 m 1
 619 980 l 1
 645 770 l 1
 478 770 l 1
 394 980 l 1
EndSplineSet
EndChar

StartChar: Udieresis
Encoding: 220 220 165
Width: 718
Flags: W
LayerCount: 2
Fore
SplineSet
94 62 m 0
 51 110 37 179 51 270 c 2
 124 730 l 1
 320 730 l 1
 251 295 l 2
 243 244 245 209 256 190 c 0
 267 170 291 160 328 160 c 0
 365 160 392 170 409 190 c 0
 426 209 439 244 447 295 c 2
 516 730 l 1
 712 730 l 1
 639 270 l 2
 624 179 588 110 530 62 c 0
 473 14 396 -10 301 -10 c 0
 206 -10 137 14 94 62 c 0
231 970 m 1
 417 970 l 1
 387 780 l 1
 201 780 l 1
 231 970 l 1
496 970 m 1
 682 970 l 1
 652 780 l 1
 466 780 l 1
 496 970 l 1
EndSplineSet
EndChar

StartChar: uni1EE4
Encoding: 7908 7908 166
Width: 718
Flags: W
LayerCount: 2
Fore
SplineSet
94 62 m 0
 51 110 37 179 51 270 c 2
 124 730 l 1
 320 730 l 1
 251 295 l 2
 243 244 245 209 256 190 c 0
 267 170 291 160 328 160 c 0
 365 160 392 170 409 190 c 0
 426 209 439 244 447 295 c 2
 516 730 l 1
 712 730 l 1
 639 270 l 2
 624 179 588 110 530 62 c 0
 473 14 396 -10 301 -10 c 0
 206 -10 137 14 94 62 c 0
230 -50 m 1
 416 -50 l 1
 386 -240 l 1
 200 -240 l 1
 230 -50 l 1
EndSplineSet
EndChar

StartChar: Ugrave
Encoding: 217 217 167
Width: 718
Flags: W
LayerCount: 2
Fore
SplineSet
94 62 m 0
 51 110 37 179 51 270 c 2
 124 730 l 1
 320 730 l 1
 251 295 l 2
 243 244 245 209 256 190 c 0
 267 170 291 160 328 160 c 0
 365 160 392 170 409 190 c 0
 426 209 439 244 447 295 c 2
 516 730 l 1
 712 730 l 1
 639 270 l 2
 624 179 588 110 530 62 c 0
 473 14 396 -10 301 -10 c 0
 206 -10 137 14 94 62 c 0
273 980 m 1
 499 980 l 1
 524 770 l 1
 358 770 l 1
 273 980 l 1
EndSplineSet
EndChar

StartChar: uni1EE6
Encoding: 7910 7910 168
Width: 718
Flags: W
LayerCount: 2
Fore
SplineSet
94 62 m 0
 51 110 37 179 51 270 c 2
 124 730 l 1
 320 730 l 1
 251 295 l 2
 243 244 245 209 256 190 c 0
 267 170 291 160 328 160 c 0
 365 160 392 170 409 190 c 0
 426 209 439 244 447 295 c 2
 516 730 l 1
 712 730 l 1
 639 270 l 2
 624 179 588 110 530 62 c 0
 473 14 396 -10 301 -10 c 0
 206 -10 137 14 94 62 c 0
498 830 m 0
 500 842 498 850 493 854 c 0
 488 858 476 860 459 860 c 0
 437 860 412 858 384 854 c 0
 356 849 329 843 303 835 c 1
 310 970 l 1
 339 976 371 981 406 984 c 0
 441 988 474 990 504 990 c 0
 555 990 593 987 620 982 c 0
 646 976 664 966 672 953 c 0
 682 940 684 920 680 895 c 0
 677 876 672 855 664 832 c 0
 655 809 646 788 636 770 c 1
 479 770 l 1
 489 795 495 815 498 830 c 0
EndSplineSet
EndChar

StartChar: Uhorn
Encoding: 431 431 169
Width: 857
Flags: W
LayerCount: 2
Fore
SplineSet
934 697 m 0
 925 638 904 592 873 562 c 0
 842 530 801 515 752 515 c 0
 729 515 705 519 680 527 c 1
 639 270 l 2
 624 179 588 110 530 62 c 0
 473 14 396 -10 301 -10 c 0
 206 -10 137 14 94 62 c 0
 51 110 37 179 51 270 c 2
 124 730 l 1
 320 730 l 1
 251 295 l 2
 243 244 245 209 256 190 c 0
 267 170 291 160 328 160 c 0
 365 160 392 170 409 190 c 0
 426 209 439 244 447 295 c 2
 516 730 l 1
 712 730 l 1
 701 661 l 2
 703 660 706 660 711 660 c 0
 725 660 737 665 746 674 c 0
 755 684 761 698 764 715 c 0
 766 730 766 749 766 774 c 0
 764 798 762 818 758 835 c 1
 935 835 l 1
 942 793 942 747 934 697 c 0
EndSplineSet
EndChar

StartChar: uni1EE8
Encoding: 7912 7912 170
Width: 878
Flags: W
LayerCount: 2
Fore
SplineSet
934 697 m 0
 925 638 904 592 873 562 c 0
 842 530 801 515 752 515 c 0
 729 515 705 519 680 527 c 1
 639 270 l 2
 624 179 588 110 530 62 c 0
 473 14 396 -10 301 -10 c 0
 206 -10 137 14 94 62 c 0
 51 110 37 179 51 270 c 2
 124 730 l 1
 320 730 l 1
 251 295 l 2
 243 244 245 209 256 190 c 0
 267 170 291 160 328 160 c 0
 365 160 392 170 409 190 c 0
 426 209 439 244 447 295 c 2
 516 730 l 1
 712 730 l 1
 701 661 l 2
 703 660 706 660 711 660 c 0
 725 660 737 665 746 674 c 0
 755 684 761 698 764 715 c 0
 766 730 766 749 766 774 c 0
 764 798 762 818 758 835 c 1
 935 835 l 1
 942 793 942 747 934 697 c 0
517 770 m 1
 350 770 l 1
 442 980 l 1
 668 980 l 1
 517 770 l 1
EndSplineSet
EndChar

StartChar: uni1EF0
Encoding: 7920 7920 171
Width: 878
Flags: W
LayerCount: 2
Fore
SplineSet
934 697 m 0
 925 638 904 592 873 562 c 0
 842 530 801 515 752 515 c 0
 729 515 705 519 680 527 c 1
 639 270 l 2
 624 179 588 110 530 62 c 0
 473 14 396 -10 301 -10 c 0
 206 -10 137 14 94 62 c 0
 51 110 37 179 51 270 c 2
 124 730 l 1
 320 730 l 1
 251 295 l 2
 243 244 245 209 256 190 c 0
 267 170 291 160 328 160 c 0
 365 160 392 170 409 190 c 0
 426 209 439 244 447 295 c 2
 516 730 l 1
 712 730 l 1
 701 661 l 2
 703 660 706 660 711 660 c 0
 725 660 737 665 746 674 c 0
 755 684 761 698 764 715 c 0
 766 730 766 749 766 774 c 0
 764 798 762 818 758 835 c 1
 935 835 l 1
 942 793 942 747 934 697 c 0
230 -50 m 1
 416 -50 l 1
 386 -240 l 1
 200 -240 l 1
 230 -50 l 1
EndSplineSet
EndChar

StartChar: uni1EEA
Encoding: 7914 7914 172
Width: 878
Flags: W
LayerCount: 2
Fore
SplineSet
934 697 m 0
 925 638 904 592 873 562 c 0
 842 530 801 515 752 515 c 0
 729 515 705 519 680 527 c 1
 639 270 l 2
 624 179 588 110 530 62 c 0
 473 14 396 -10 301 -10 c 0
 206 -10 137 14 94 62 c 0
 51 110 37 179 51 270 c 2
 124 730 l 1
 320 730 l 1
 251 295 l 2
 243 244 245 209 256 190 c 0
 267 170 291 160 328 160 c 0
 365 160 392 170 409 190 c 0
 426 209 439 244 447 295 c 2
 516 730 l 1
 712 730 l 1
 701 661 l 2
 703 660 706 660 711 660 c 0
 725 660 737 665 746 674 c 0
 755 684 761 698 764 715 c 0
 766 730 766 749 766 774 c 0
 764 798 762 818 758 835 c 1
 935 835 l 1
 942 793 942 747 934 697 c 0
273 980 m 1
 499 980 l 1
 524 770 l 1
 358 770 l 1
 273 980 l 1
EndSplineSet
EndChar

StartChar: uni1EEC
Encoding: 7916 7916 173
Width: 878
Flags: W
LayerCount: 2
Fore
SplineSet
934 697 m 0
 925 638 904 592 873 562 c 0
 842 530 801 515 752 515 c 0
 729 515 705 519 680 527 c 1
 639 270 l 2
 624 179 588 110 530 62 c 0
 473 14 396 -10 301 -10 c 0
 206 -10 137 14 94 62 c 0
 51 110 37 179 51 270 c 2
 124 730 l 1
 320 730 l 1
 251 295 l 2
 243 244 245 209 256 190 c 0
 267 170 291 160 328 160 c 0
 365 160 392 170 409 190 c 0
 426 209 439 244 447 295 c 2
 516 730 l 1
 712 730 l 1
 701 661 l 2
 703 660 706 660 711 660 c 0
 725 660 737 665 746 674 c 0
 755 684 761 698 764 715 c 0
 766 730 766 749 766 774 c 0
 764 798 762 818 758 835 c 1
 935 835 l 1
 942 793 942 747 934 697 c 0
498 830 m 0
 500 842 498 850 493 854 c 0
 488 858 476 860 459 860 c 0
 437 860 412 858 384 854 c 0
 356 849 329 843 303 835 c 1
 310 970 l 1
 339 976 371 981 406 984 c 0
 441 988 474 990 504 990 c 0
 555 990 593 987 620 982 c 0
 646 976 664 966 672 953 c 0
 682 940 684 920 680 895 c 0
 677 876 672 855 664 832 c 0
 655 809 646 788 636 770 c 1
 479 770 l 1
 489 795 495 815 498 830 c 0
EndSplineSet
EndChar

StartChar: uni1EEE
Encoding: 7918 7918 174
Width: 878
Flags: W
LayerCount: 2
Fore
SplineSet
934 697 m 0
 925 638 904 592 873 562 c 0
 842 530 801 515 752 515 c 0
 729 515 705 519 680 527 c 1
 639 270 l 2
 624 179 588 110 530 62 c 0
 473 14 396 -10 301 -10 c 0
 206 -10 137 14 94 62 c 0
 51 110 37 179 51 270 c 2
 124 730 l 1
 320 730 l 1
 251 295 l 2
 243 244 245 209 256 190 c 0
 267 170 291 160 328 160 c 0
 365 160 392 170 409 190 c 0
 426 209 439 244 447 295 c 2
 516 730 l 1
 712 730 l 1
 701 661 l 2
 703 660 706 660 711 660 c 0
 725 660 737 665 746 674 c 0
 755 684 761 698 764 715 c 0
 766 730 766 749 766 774 c 0
 764 798 762 818 758 835 c 1
 935 835 l 1
 942 793 942 747 934 697 c 0
382 812 m 0
 360 827 343 835 330 835 c 0
 321 835 315 831 310 822 c 0
 306 814 302 797 298 770 c 1
 153 770 l 1
 165 845 184 900 210 936 c 0
 235 972 269 990 310 990 c 0
 352 990 398 973 447 938 c 0
 469 923 486 915 499 915 c 0
 508 915 514 919 518 928 c 0
 523 936 527 953 531 980 c 1
 676 980 l 1
 664 905 645 850 620 814 c 0
 595 778 561 760 519 760 c 0
 477 760 431 777 382 812 c 0
EndSplineSet
EndChar

StartChar: Uhungarumlaut
Encoding: 368 368 175
Width: 718
Flags: W
LayerCount: 2
Fore
SplineSet
94 62 m 0
 51 110 37 179 51 270 c 2
 124 730 l 1
 320 730 l 1
 251 295 l 2
 243 244 245 209 256 190 c 0
 267 170 291 160 328 160 c 0
 365 160 392 170 409 190 c 0
 426 209 439 244 447 295 c 2
 516 730 l 1
 712 730 l 1
 639 270 l 2
 624 179 588 110 530 62 c 0
 473 14 396 -10 301 -10 c 0
 206 -10 137 14 94 62 c 0
387 770 m 1
 220 770 l 1
 312 980 l 1
 538 980 l 1
 387 770 l 1
657 770 m 1
 490 770 l 1
 582 980 l 1
 808 980 l 1
 657 770 l 1
EndSplineSet
EndChar

StartChar: uni0216
Encoding: 534 534 176
Width: 718
Flags: W
LayerCount: 2
Fore
SplineSet
94 62 m 0
 51 110 37 179 51 270 c 2
 124 730 l 1
 320 730 l 1
 251 295 l 2
 243 244 245 209 256 190 c 0
 267 170 291 160 328 160 c 0
 365 160 392 170 409 190 c 0
 426 209 439 244 447 295 c 2
 516 730 l 1
 712 730 l 1
 639 270 l 2
 624 179 588 110 530 62 c 0
 473 14 396 -10 301 -10 c 0
 206 -10 137 14 94 62 c 0
574 962 m 0
 608 942 633 916 648 883 c 0
 664 850 669 812 662 770 c 1
 496 770 l 1
 497 801 492 823 482 838 c 0
 471 853 454 860 431 860 c 0
 408 860 388 853 374 838 c 0
 358 823 347 801 339 770 c 1
 172 770 l 1
 179 812 195 850 222 883 c 0
 248 916 281 942 321 962 c 0
 361 980 405 990 452 990 c 0
 499 990 540 980 574 962 c 0
EndSplineSet
EndChar

StartChar: Umacron
Encoding: 362 362 177
Width: 718
Flags: W
LayerCount: 2
Fore
SplineSet
94 62 m 0
 51 110 37 179 51 270 c 2
 124 730 l 1
 320 730 l 1
 251 295 l 2
 243 244 245 209 256 190 c 0
 267 170 291 160 328 160 c 0
 365 160 392 170 409 190 c 0
 426 209 439 244 447 295 c 2
 516 730 l 1
 712 730 l 1
 639 270 l 2
 624 179 588 110 530 62 c 0
 473 14 396 -10 301 -10 c 0
 206 -10 137 14 94 62 c 0
234 945 m 1
 645 945 l 1
 623 805 l 1
 211 805 l 1
 234 945 l 1
EndSplineSet
EndChar

StartChar: Uogonek
Encoding: 370 370 178
Width: 695
Flags: W
LayerCount: 2
Fore
SplineSet
712 730 m 1
 639 270 l 2
 628 201 605 145 569 100 c 0
 533 55 485 24 426 7 c 1
 381 -11 358 -29 355 -47 c 0
 354 -56 357 -63 364 -68 c 0
 372 -73 384 -75 401 -75 c 0
 416 -75 432 -73 450 -70 c 0
 467 -66 484 -61 500 -55 c 1
 493 -190 l 1
 456 -203 414 -210 367 -210 c 0
 300 -210 250 -198 217 -174 c 0
 184 -150 172 -116 179 -72 c 0
 183 -47 193 -23 209 -1 c 1
 145 13 100 43 74 89 c 0
 47 135 40 195 51 270 c 2
 124 730 l 1
 320 730 l 1
 251 295 l 2
 243 244 245 209 256 190 c 0
 267 170 291 160 328 160 c 0
 365 160 392 170 409 190 c 0
 426 209 439 244 447 295 c 2
 516 730 l 1
 712 730 l 1
EndSplineSet
EndChar

StartChar: Uring
Encoding: 366 366 179
Width: 695
Flags: W
LayerCount: 2
Fore
SplineSet
712 730 m 1
 639 270 l 2
 624 179 588 110 530 62 c 0
 473 14 396 -10 301 -10 c 0
 206 -10 137 14 94 62 c 0
 51 110 37 179 51 270 c 2
 124 730 l 1
 296 730 l 1
 285 745 277 763 272 782 c 0
 267 802 267 823 270 845 c 0
 275 876 287 904 306 930 c 0
 325 956 349 977 376 992 c 0
 404 1007 433 1015 463 1015 c 0
 493 1015 520 1007 543 992 c 0
 566 977 583 956 594 930 c 0
 605 904 608 876 603 845 c 0
 600 823 592 802 582 782 c 0
 570 763 557 745 541 730 c 1
 712 730 l 1
404 884 m 0
 392 873 385 860 383 845 c 0
 380 830 383 817 392 806 c 0
 401 795 413 790 428 790 c 0
 443 790 457 795 469 806 c 0
 481 817 488 830 490 845 c 0
 493 860 490 873 481 884 c 0
 472 895 460 900 445 900 c 0
 430 900 417 895 404 884 c 0
409 190 m 0
 426 209 439 244 447 295 c 2
 513 707 l 1
 480 686 446 675 410 675 c 0
 374 675 343 686 317 707 c 1
 251 295 l 2
 243 244 245 209 256 190 c 0
 267 170 291 160 328 160 c 0
 365 160 392 170 409 190 c 0
EndSplineSet
EndChar

StartChar: Utilde
Encoding: 360 360 180
Width: 718
Flags: W
LayerCount: 2
Fore
SplineSet
94 62 m 0
 51 110 37 179 51 270 c 2
 124 730 l 1
 320 730 l 1
 251 295 l 2
 243 244 245 209 256 190 c 0
 267 170 291 160 328 160 c 0
 365 160 392 170 409 190 c 0
 426 209 439 244 447 295 c 2
 516 730 l 1
 712 730 l 1
 639 270 l 2
 624 179 588 110 530 62 c 0
 473 14 396 -10 301 -10 c 0
 206 -10 137 14 94 62 c 0
382 812 m 0
 360 827 343 835 330 835 c 0
 321 835 315 831 310 822 c 0
 306 814 302 797 298 770 c 1
 153 770 l 1
 165 845 184 900 210 936 c 0
 235 972 269 990 310 990 c 0
 352 990 398 973 447 938 c 0
 469 923 486 915 499 915 c 0
 508 915 514 919 518 928 c 0
 523 936 527 953 531 980 c 1
 676 980 l 1
 664 905 645 850 620 814 c 0
 595 778 561 760 519 760 c 0
 477 760 431 777 382 812 c 0
EndSplineSet
EndChar

StartChar: V
Encoding: 86 86 181
Width: 688
Flags: W
LayerCount: 2
Fore
SplineSet
77 730 m 1
 293 730 l 1
 330 200 l 1
 332 200 l 1
 538 730 l 1
 753 730 l 1
 427 0 l 1
 172 0 l 1
 77 730 l 1
EndSplineSet
EndChar

StartChar: W
Encoding: 87 87 182
Width: 939
Flags: W
LayerCount: 2
Fore
SplineSet
505 530 m 1
 503 530 l 1
 347 0 l 1
 121 0 l 1
 85 730 l 1
 283 730 l 1
 272 200 l 1
 274 200 l 1
 420 730 l 1
 656 730 l 1
 634 200 l 1
 636 200 l 1
 793 730 l 1
 987 730 l 1
 719 0 l 1
 494 0 l 1
 505 530 l 1
EndSplineSet
EndChar

StartChar: Wacute
Encoding: 7810 7810 183
Width: 962
Flags: W
LayerCount: 2
Fore
SplineSet
505 530 m 1
 503 530 l 1
 347 0 l 1
 121 0 l 1
 85 730 l 1
 283 730 l 1
 272 200 l 1
 274 200 l 1
 420 730 l 1
 656 730 l 1
 634 200 l 1
 636 200 l 1
 793 730 l 1
 987 730 l 1
 719 0 l 1
 494 0 l 1
 505 530 l 1
639 770 m 1
 472 770 l 1
 564 980 l 1
 790 980 l 1
 639 770 l 1
EndSplineSet
EndChar

StartChar: Wcircumflex
Encoding: 372 372 184
Width: 962
Flags: W
LayerCount: 2
Fore
SplineSet
505 530 m 1
 503 530 l 1
 347 0 l 1
 121 0 l 1
 85 730 l 1
 283 730 l 1
 272 200 l 1
 274 200 l 1
 420 730 l 1
 656 730 l 1
 634 200 l 1
 636 200 l 1
 793 730 l 1
 987 730 l 1
 719 0 l 1
 494 0 l 1
 505 530 l 1
439 980 m 1
 733 980 l 1
 818 770 l 1
 612 770 l 1
 576 910 l 1
 574 910 l 1
 494 770 l 1
 289 770 l 1
 439 980 l 1
EndSplineSet
EndChar

StartChar: Wdieresis
Encoding: 7812 7812 185
Width: 962
Flags: W
LayerCount: 2
Fore
SplineSet
505 530 m 1
 503 530 l 1
 347 0 l 1
 121 0 l 1
 85 730 l 1
 283 730 l 1
 272 200 l 1
 274 200 l 1
 420 730 l 1
 656 730 l 1
 634 200 l 1
 636 200 l 1
 793 730 l 1
 987 730 l 1
 719 0 l 1
 494 0 l 1
 505 530 l 1
353 970 m 1
 539 970 l 1
 509 780 l 1
 323 780 l 1
 353 970 l 1
618 970 m 1
 804 970 l 1
 774 780 l 1
 588 780 l 1
 618 970 l 1
EndSplineSet
EndChar

StartChar: Wgrave
Encoding: 7808 7808 186
Width: 962
Flags: W
LayerCount: 2
Fore
SplineSet
505 530 m 1
 503 530 l 1
 347 0 l 1
 121 0 l 1
 85 730 l 1
 283 730 l 1
 272 200 l 1
 274 200 l 1
 420 730 l 1
 656 730 l 1
 634 200 l 1
 636 200 l 1
 793 730 l 1
 987 730 l 1
 719 0 l 1
 494 0 l 1
 505 530 l 1
395 980 m 1
 621 980 l 1
 646 770 l 1
 480 770 l 1
 395 980 l 1
EndSplineSet
EndChar

StartChar: X
Encoding: 88 88 187
Width: 679
Flags: W
LayerCount: 2
Fore
SplineSet
206 365 m 1
 97 730 l 1
 318 730 l 1
 369 475 l 1
 371 475 l 1
 504 730 l 1
 724 730 l 1
 500 365 l 1
 609 0 l 1
 388 0 l 1
 336 255 l 1
 334 255 l 1
 202 0 l 1
 -19 0 l 1
 206 365 l 1
EndSplineSet
EndChar

StartChar: Y
Encoding: 89 89 188
Width: 673
Flags: W
LayerCount: 2
Fore
SplineSet
232 270 m 1
 74 730 l 1
 290 730 l 1
 361 440 l 1
 363 440 l 1
 525 730 l 1
 741 730 l 1
 438 270 l 1
 395 0 l 1
 189 0 l 1
 232 270 l 1
EndSplineSet
EndChar

StartChar: Yacute
Encoding: 221 221 189
Width: 688
Flags: W
LayerCount: 2
Fore
SplineSet
232 270 m 1
 74 730 l 1
 290 730 l 1
 361 440 l 1
 363 440 l 1
 525 730 l 1
 741 730 l 1
 438 270 l 1
 395 0 l 1
 189 0 l 1
 232 270 l 1
502 770 m 1
 335 770 l 1
 427 980 l 1
 653 980 l 1
 502 770 l 1
EndSplineSet
EndChar

StartChar: Ycircumflex
Encoding: 374 374 190
Width: 688
Flags: W
LayerCount: 2
Fore
SplineSet
232 270 m 1
 74 730 l 1
 290 730 l 1
 361 440 l 1
 363 440 l 1
 525 730 l 1
 741 730 l 1
 438 270 l 1
 395 0 l 1
 189 0 l 1
 232 270 l 1
302 980 m 1
 596 980 l 1
 681 770 l 1
 475 770 l 1
 439 910 l 1
 437 910 l 1
 357 770 l 1
 152 770 l 1
 302 980 l 1
EndSplineSet
EndChar

StartChar: Ydieresis
Encoding: 376 376 191
Width: 688
Flags: W
LayerCount: 2
Fore
SplineSet
232 270 m 1
 74 730 l 1
 290 730 l 1
 361 440 l 1
 363 440 l 1
 525 730 l 1
 741 730 l 1
 438 270 l 1
 395 0 l 1
 189 0 l 1
 232 270 l 1
216 970 m 1
 402 970 l 1
 372 780 l 1
 186 780 l 1
 216 970 l 1
481 970 m 1
 667 970 l 1
 637 780 l 1
 451 780 l 1
 481 970 l 1
EndSplineSet
EndChar

StartChar: uni1EF4
Encoding: 7924 7924 192
Width: 688
Flags: W
LayerCount: 2
Fore
SplineSet
232 270 m 1
 74 730 l 1
 290 730 l 1
 361 440 l 1
 363 440 l 1
 525 730 l 1
 741 730 l 1
 438 270 l 1
 395 0 l 1
 189 0 l 1
 232 270 l 1
215 -50 m 1
 401 -50 l 1
 371 -240 l 1
 185 -240 l 1
 215 -50 l 1
EndSplineSet
EndChar

StartChar: Ygrave
Encoding: 7922 7922 193
Width: 688
Flags: W
LayerCount: 2
Fore
SplineSet
232 270 m 1
 74 730 l 1
 290 730 l 1
 361 440 l 1
 363 440 l 1
 525 730 l 1
 741 730 l 1
 438 270 l 1
 395 0 l 1
 189 0 l 1
 232 270 l 1
258 980 m 1
 484 980 l 1
 509 770 l 1
 343 770 l 1
 258 980 l 1
EndSplineSet
EndChar

StartChar: uni1EF6
Encoding: 7926 7926 194
Width: 688
Flags: W
LayerCount: 2
Fore
SplineSet
232 270 m 1
 74 730 l 1
 290 730 l 1
 361 440 l 1
 363 440 l 1
 525 730 l 1
 741 730 l 1
 438 270 l 1
 395 0 l 1
 189 0 l 1
 232 270 l 1
483 830 m 0
 485 842 483 850 478 854 c 0
 473 858 461 860 444 860 c 0
 422 860 397 858 369 854 c 0
 341 849 314 843 288 835 c 1
 295 970 l 1
 324 976 356 981 391 984 c 0
 426 988 459 990 489 990 c 0
 540 990 578 987 604 982 c 0
 631 976 648 966 658 953 c 0
 666 940 669 920 665 895 c 0
 662 876 657 855 648 832 c 0
 640 809 631 788 621 770 c 1
 464 770 l 1
 474 795 480 815 483 830 c 0
EndSplineSet
EndChar

StartChar: uni0232
Encoding: 562 562 195
Width: 688
Flags: W
LayerCount: 2
Fore
SplineSet
232 270 m 1
 74 730 l 1
 290 730 l 1
 361 440 l 1
 363 440 l 1
 525 730 l 1
 741 730 l 1
 438 270 l 1
 395 0 l 1
 189 0 l 1
 232 270 l 1
219 945 m 1
 630 945 l 1
 608 805 l 1
 196 805 l 1
 219 945 l 1
EndSplineSet
EndChar

StartChar: uni1EF8
Encoding: 7928 7928 196
Width: 688
Flags: W
LayerCount: 2
Fore
SplineSet
232 270 m 1
 74 730 l 1
 290 730 l 1
 361 440 l 1
 363 440 l 1
 525 730 l 1
 741 730 l 1
 438 270 l 1
 395 0 l 1
 189 0 l 1
 232 270 l 1
367 812 m 0
 345 827 328 835 315 835 c 0
 306 835 300 831 296 822 c 0
 291 814 287 797 283 770 c 1
 138 770 l 1
 150 845 169 900 194 936 c 0
 220 972 254 990 295 990 c 0
 337 990 383 973 432 938 c 0
 454 923 471 915 484 915 c 0
 493 915 499 919 504 928 c 0
 508 936 512 953 516 980 c 1
 661 980 l 1
 649 905 630 850 605 814 c 0
 580 778 546 760 504 760 c 0
 462 760 416 777 367 812 c 0
EndSplineSet
EndChar

StartChar: Z
Encoding: 90 90 197
Width: 623
Flags: W
LayerCount: 2
Fore
SplineSet
28 165 m 1
 390 563 l 1
 391 565 l 1
 92 565 l 1
 118 730 l 1
 647 730 l 1
 621 565 l 1
 259 167 l 1
 259 165 l 1
 558 165 l 1
 532 0 l 1
 2 0 l 1
 28 165 l 1
EndSplineSet
EndChar

StartChar: Zacute
Encoding: 377 377 198
Width: 644
Flags: W
LayerCount: 2
Fore
SplineSet
28 165 m 1
 390 563 l 1
 391 565 l 1
 92 565 l 1
 118 730 l 1
 647 730 l 1
 621 565 l 1
 259 167 l 1
 259 165 l 1
 558 165 l 1
 532 0 l 1
 2 0 l 1
 28 165 l 1
480 770 m 1
 313 770 l 1
 405 980 l 1
 631 980 l 1
 480 770 l 1
EndSplineSet
EndChar

StartChar: Zcaron
Encoding: 381 381 199
Width: 644
Flags: W
LayerCount: 2
Fore
SplineSet
28 165 m 1
 390 563 l 1
 391 565 l 1
 92 565 l 1
 118 730 l 1
 647 730 l 1
 621 565 l 1
 259 167 l 1
 259 165 l 1
 558 165 l 1
 532 0 l 1
 2 0 l 1
 28 165 l 1
153 980 m 1
 359 980 l 1
 394 840 l 1
 396 840 l 1
 476 980 l 1
 682 980 l 1
 531 770 l 1
 237 770 l 1
 153 980 l 1
EndSplineSet
EndChar

StartChar: Zdotaccent
Encoding: 379 379 200
Width: 644
Flags: W
LayerCount: 2
Fore
SplineSet
28 165 m 1
 390 563 l 1
 391 565 l 1
 92 565 l 1
 118 730 l 1
 647 730 l 1
 621 565 l 1
 259 167 l 1
 259 165 l 1
 558 165 l 1
 532 0 l 1
 2 0 l 1
 28 165 l 1
355 970 m 1
 541 970 l 1
 511 780 l 1
 325 780 l 1
 355 970 l 1
EndSplineSet
EndChar

StartChar: a
Encoding: 97 97 201
Width: 546
Flags: W
LayerCount: 2
Fore
SplineSet
476 481 m 0
 506 448 515 395 504 320 c 2
 453 0 l 1
 278 0 l 1
 286 60 l 1
 284 60 l 1
 239 13 188 -10 131 -10 c 0
 85 -10 50 5 26 34 c 0
 1 64 -7 103 1 150 c 0
 10 207 41 252 92 283 c 0
 143 314 212 330 298 330 c 2
 321 330 l 1
 325 355 324 371 318 378 c 0
 312 386 297 390 274 390 c 0
 245 390 215 386 182 378 c 0
 149 371 117 360 84 346 c 1
 68 481 l 1
 105 497 144 509 186 518 c 0
 227 526 269 530 311 530 c 0
 391 530 446 514 476 481 c 0
271 144 m 0
 286 157 296 174 300 195 c 2
 304 225 l 1
 281 225 l 2
 245 225 218 221 200 212 c 0
 183 203 172 189 169 170 c 0
 167 155 170 144 178 136 c 0
 185 129 197 125 214 125 c 0
 237 125 256 131 271 144 c 0
EndSplineSet
EndChar

StartChar: aacute
Encoding: 225 225 202
Width: 582
Flags: W
LayerCount: 2
Fore
SplineSet
476 481 m 0
 506 448 515 395 504 320 c 2
 453 0 l 1
 278 0 l 1
 286 60 l 1
 284 60 l 1
 239 13 188 -10 131 -10 c 0
 85 -10 50 5 26 34 c 0
 1 64 -7 103 1 150 c 0
 10 207 41 252 92 283 c 0
 143 314 212 330 298 330 c 2
 321 330 l 1
 325 355 324 371 318 378 c 0
 312 386 297 390 274 390 c 0
 245 390 215 386 182 378 c 0
 149 371 117 360 84 346 c 1
 68 481 l 1
 105 497 144 509 186 518 c 0
 227 526 269 530 311 530 c 0
 391 530 446 514 476 481 c 0
271 144 m 0
 286 157 296 174 300 195 c 2
 304 225 l 1
 281 225 l 2
 245 225 218 221 200 212 c 0
 183 203 172 189 169 170 c 0
 167 155 170 144 178 136 c 0
 185 129 197 125 214 125 c 0
 237 125 256 131 271 144 c 0
405 560 m 1
 238 560 l 1
 330 770 l 1
 556 770 l 1
 405 560 l 1
EndSplineSet
EndChar

StartChar: abreve
Encoding: 259 259 203
Width: 582
Flags: W
LayerCount: 2
Fore
SplineSet
476 481 m 0
 506 448 515 395 504 320 c 2
 453 0 l 1
 278 0 l 1
 286 60 l 1
 284 60 l 1
 239 13 188 -10 131 -10 c 0
 85 -10 50 5 26 34 c 0
 1 64 -7 103 1 150 c 0
 10 207 41 252 92 283 c 0
 143 314 212 330 298 330 c 2
 321 330 l 1
 325 355 324 371 318 378 c 0
 312 386 297 390 274 390 c 0
 245 390 215 386 182 378 c 0
 149 371 117 360 84 346 c 1
 68 481 l 1
 105 497 144 509 186 518 c 0
 227 526 269 530 311 530 c 0
 391 530 446 514 476 481 c 0
271 144 m 0
 286 157 296 174 300 195 c 2
 304 225 l 1
 281 225 l 2
 245 225 218 221 200 212 c 0
 183 203 172 189 169 170 c 0
 167 155 170 144 178 136 c 0
 185 129 197 125 214 125 c 0
 237 125 256 131 271 144 c 0
182 578 m 0
 147 598 122 624 106 657 c 0
 91 690 86 728 93 770 c 1
 260 770 l 1
 259 739 263 717 274 702 c 0
 284 687 301 680 324 680 c 0
 347 680 366 687 381 702 c 0
 396 717 408 739 417 770 c 1
 583 770 l 1
 576 728 560 690 534 657 c 0
 508 624 475 598 434 578 c 0
 394 560 351 550 304 550 c 0
 257 550 216 560 182 578 c 0
EndSplineSet
EndChar

StartChar: uni1EAF
Encoding: 7855 7855 204
Width: 546
Flags: W
LayerCount: 2
Fore
SplineSet
188 578 m 0
 155 598 132 624 116 657 c 0
 102 690 97 728 104 770 c 1
 235 770 l 1
 321 970 l 1
 538 970 l 1
 392 760 l 1
 264 760 l 1
 264 733 269 712 279 700 c 0
 289 686 305 680 326 680 c 0
 348 680 366 687 381 702 c 0
 396 717 407 739 416 770 c 1
 576 770 l 1
 569 728 553 690 528 657 c 0
 503 624 470 598 432 578 c 0
 392 560 350 550 305 550 c 0
 260 550 221 560 188 578 c 0
476 481 m 0
 506 448 515 395 504 320 c 2
 453 0 l 1
 278 0 l 1
 286 60 l 1
 284 60 l 1
 239 13 188 -10 131 -10 c 0
 85 -10 50 5 26 34 c 0
 1 64 -7 103 1 150 c 0
 10 207 41 252 92 283 c 0
 143 314 212 330 298 330 c 2
 321 330 l 1
 325 355 324 371 318 378 c 0
 312 386 297 390 274 390 c 0
 245 390 215 386 182 378 c 0
 149 371 117 360 84 346 c 1
 68 481 l 1
 105 497 144 509 186 518 c 0
 227 526 269 530 311 530 c 0
 391 530 446 514 476 481 c 0
271 144 m 0
 286 157 296 174 300 195 c 2
 304 225 l 1
 281 225 l 2
 245 225 218 221 200 212 c 0
 183 203 172 189 169 170 c 0
 167 155 170 144 178 136 c 0
 185 129 197 125 214 125 c 0
 237 125 256 131 271 144 c 0
EndSplineSet
EndChar

StartChar: uni1EB7
Encoding: 7863 7863 205
Width: 582
Flags: W
LayerCount: 2
Fore
SplineSet
476 481 m 0
 506 448 515 395 504 320 c 2
 453 0 l 1
 278 0 l 1
 286 60 l 1
 284 60 l 1
 239 13 188 -10 131 -10 c 0
 85 -10 50 5 26 34 c 0
 1 64 -7 103 1 150 c 0
 10 207 41 252 92 283 c 0
 143 314 212 330 298 330 c 2
 321 330 l 1
 325 355 324 371 318 378 c 0
 312 386 297 390 274 390 c 0
 245 390 215 386 182 378 c 0
 149 371 117 360 84 346 c 1
 68 481 l 1
 105 497 144 509 186 518 c 0
 227 526 269 530 311 530 c 0
 391 530 446 514 476 481 c 0
271 144 m 0
 286 157 296 174 300 195 c 2
 304 225 l 1
 281 225 l 2
 245 225 218 221 200 212 c 0
 183 203 172 189 169 170 c 0
 167 155 170 144 178 136 c 0
 185 129 197 125 214 125 c 0
 237 125 256 131 271 144 c 0
151 -50 m 1
 337 -50 l 1
 307 -240 l 1
 121 -240 l 1
 151 -50 l 1
182 578 m 0
 147 598 122 624 106 657 c 0
 91 690 86 728 93 770 c 1
 260 770 l 1
 259 739 263 717 274 702 c 0
 284 687 301 680 324 680 c 0
 347 680 366 687 381 702 c 0
 396 717 408 739 417 770 c 1
 583 770 l 1
 576 728 560 690 534 657 c 0
 508 624 475 598 434 578 c 0
 394 560 351 550 304 550 c 0
 257 550 216 560 182 578 c 0
EndSplineSet
EndChar

StartChar: uni1EB1
Encoding: 7857 7857 206
Width: 546
Flags: W
LayerCount: 2
Fore
SplineSet
378 700 m 0
 393 712 404 733 413 760 c 1
 285 760 l 1
 206 970 l 1
 423 970 l 1
 445 770 l 1
 576 770 l 1
 569 728 553 690 528 657 c 0
 503 624 470 598 432 578 c 0
 392 560 350 550 305 550 c 0
 260 550 221 560 188 578 c 0
 155 598 132 624 116 657 c 0
 102 690 97 728 104 770 c 1
 264 770 l 1
 262 739 266 717 276 702 c 0
 287 687 303 680 326 680 c 0
 347 680 364 686 378 700 c 0
476 481 m 0
 506 448 515 395 504 320 c 2
 453 0 l 1
 278 0 l 1
 286 60 l 1
 284 60 l 1
 239 13 188 -10 131 -10 c 0
 85 -10 50 5 26 34 c 0
 1 64 -7 103 1 150 c 0
 10 207 41 252 92 283 c 0
 143 314 212 330 298 330 c 2
 321 330 l 1
 325 355 324 371 318 378 c 0
 312 386 297 390 274 390 c 0
 245 390 215 386 182 378 c 0
 149 371 117 360 84 346 c 1
 68 481 l 1
 105 497 144 509 186 518 c 0
 227 526 269 530 311 530 c 0
 391 530 446 514 476 481 c 0
271 144 m 0
 286 157 296 174 300 195 c 2
 304 225 l 1
 281 225 l 2
 245 225 218 221 200 212 c 0
 183 203 172 189 169 170 c 0
 167 155 170 144 178 136 c 0
 185 129 197 125 214 125 c 0
 237 125 256 131 271 144 c 0
EndSplineSet
EndChar

StartChar: uni1EB3
Encoding: 7859 7859 207
Width: 545
Flags: W
LayerCount: 2
Fore
SplineSet
378 700 m 0
 393 712 404 733 413 760 c 1
 348 760 l 1
 358 785 364 805 367 820 c 0
 369 832 368 840 362 844 c 0
 358 848 346 850 329 850 c 0
 308 850 284 848 257 844 c 0
 230 839 204 833 179 825 c 1
 186 960 l 1
 213 966 244 971 278 974 c 0
 313 978 344 980 373 980 c 0
 422 980 460 977 484 972 c 0
 510 966 526 956 535 943 c 0
 544 930 546 910 542 885 c 0
 539 868 535 848 528 828 c 0
 521 806 513 787 504 770 c 1
 575 770 l 1
 568 728 552 690 527 657 c 0
 502 624 470 598 431 578 c 0
 392 560 350 550 305 550 c 0
 260 550 221 560 188 578 c 0
 155 598 132 624 116 657 c 0
 102 690 97 728 104 770 c 1
 264 770 l 1
 262 739 266 717 276 702 c 0
 287 687 303 680 326 680 c 0
 347 680 364 686 378 700 c 0
476 481 m 0
 506 448 515 395 503 320 c 2
 453 0 l 1
 278 0 l 1
 285 60 l 1
 283 60 l 1
 238 13 188 -10 131 -10 c 0
 85 -10 50 5 26 34 c 0
 1 64 -7 103 1 150 c 0
 10 207 41 252 92 283 c 0
 143 314 212 330 298 330 c 2
 321 330 l 1
 325 355 324 371 318 378 c 0
 311 386 296 390 273 390 c 0
 245 390 215 386 182 378 c 0
 149 371 117 360 84 346 c 1
 68 481 l 1
 105 497 144 509 186 518 c 0
 227 526 269 530 310 530 c 0
 391 530 446 514 476 481 c 0
270 144 m 0
 286 157 296 174 299 195 c 2
 304 225 l 1
 281 225 l 2
 245 225 218 221 200 212 c 0
 183 203 172 189 169 170 c 0
 167 155 170 144 178 136 c 0
 185 129 197 125 214 125 c 0
 236 125 255 131 270 144 c 0
EndSplineSet
EndChar

StartChar: uni1EB5
Encoding: 7861 7861 208
Width: 582
Flags: W
LayerCount: 2
Fore
SplineSet
476 481 m 0
 506 448 515 395 504 320 c 2
 453 0 l 1
 278 0 l 1
 286 60 l 1
 284 60 l 1
 239 13 188 -10 131 -10 c 0
 85 -10 50 5 26 34 c 0
 1 64 -7 103 1 150 c 0
 10 207 41 252 92 283 c 0
 143 314 212 330 298 330 c 2
 321 330 l 1
 325 355 324 371 318 378 c 0
 312 386 297 390 274 390 c 0
 245 390 215 386 182 378 c 0
 149 371 117 360 84 346 c 1
 68 481 l 1
 105 497 144 509 186 518 c 0
 227 526 269 530 311 530 c 0
 391 530 446 514 476 481 c 0
271 144 m 0
 286 157 296 174 300 195 c 2
 304 225 l 1
 281 225 l 2
 245 225 218 221 200 212 c 0
 183 203 172 189 169 170 c 0
 167 155 170 144 178 136 c 0
 185 129 197 125 214 125 c 0
 237 125 256 131 271 144 c 0
182 578 m 0
 147 598 122 624 106 657 c 0
 91 690 86 728 93 770 c 1
 260 770 l 1
 259 739 263 717 274 702 c 0
 284 687 301 680 324 680 c 0
 347 680 366 687 381 702 c 0
 396 717 408 739 417 770 c 1
 583 770 l 1
 576 728 560 690 534 657 c 0
 508 624 475 598 434 578 c 0
 394 560 351 550 304 550 c 0
 257 550 216 560 182 578 c 0
310 852 m 0
 288 867 271 875 258 875 c 0
 249 875 243 871 238 862 c 0
 234 854 230 837 226 810 c 1
 81 810 l 1
 93 885 112 940 138 976 c 0
 163 1012 197 1030 238 1030 c 0
 280 1030 326 1013 375 978 c 0
 397 963 414 955 427 955 c 0
 436 955 442 959 446 968 c 0
 451 976 455 993 459 1020 c 1
 604 1020 l 1
 592 945 573 890 548 854 c 0
 523 818 489 800 447 800 c 0
 405 800 359 817 310 852 c 0
EndSplineSet
EndChar

StartChar: acircumflex
Encoding: 226 226 209
Width: 582
Flags: W
LayerCount: 2
Fore
SplineSet
476 481 m 0
 506 448 515 395 504 320 c 2
 453 0 l 1
 278 0 l 1
 286 60 l 1
 284 60 l 1
 239 13 188 -10 131 -10 c 0
 85 -10 50 5 26 34 c 0
 1 64 -7 103 1 150 c 0
 10 207 41 252 92 283 c 0
 143 314 212 330 298 330 c 2
 321 330 l 1
 325 355 324 371 318 378 c 0
 312 386 297 390 274 390 c 0
 245 390 215 386 182 378 c 0
 149 371 117 360 84 346 c 1
 68 481 l 1
 105 497 144 509 186 518 c 0
 227 526 269 530 311 530 c 0
 391 530 446 514 476 481 c 0
271 144 m 0
 286 157 296 174 300 195 c 2
 304 225 l 1
 281 225 l 2
 245 225 218 221 200 212 c 0
 183 203 172 189 169 170 c 0
 167 155 170 144 178 136 c 0
 185 129 197 125 214 125 c 0
 237 125 256 131 271 144 c 0
205 770 m 1
 499 770 l 1
 584 560 l 1
 378 560 l 1
 342 700 l 1
 340 700 l 1
 260 560 l 1
 55 560 l 1
 205 770 l 1
EndSplineSet
EndChar

StartChar: uni1EA5
Encoding: 7845 7845 210
Width: 553
Flags: W
LayerCount: 2
Fore
SplineSet
757 950 m 1
 610 740 l 1
 494 740 l 1
 562 560 l 1
 364 560 l 1
 331 700 l 1
 329 700 l 1
 251 560 l 1
 53 560 l 1
 199 770 l 1
 463 770 l 1
 539 950 l 1
 757 950 l 1
477 481 m 0
 507 448 516 395 504 320 c 2
 453 0 l 1
 279 0 l 1
 286 60 l 1
 284 60 l 1
 239 13 189 -10 132 -10 c 0
 86 -10 51 5 26 34 c 0
 2 64 -6 103 1 150 c 0
 10 207 41 252 92 283 c 0
 143 314 212 330 299 330 c 2
 321 330 l 1
 325 355 324 371 318 378 c 0
 312 386 297 390 274 390 c 0
 245 390 215 386 182 378 c 0
 150 371 118 360 85 346 c 1
 69 481 l 1
 106 497 145 509 186 518 c 0
 228 526 270 530 311 530 c 0
 392 530 447 514 477 481 c 0
272 144 m 0
 287 157 297 174 300 195 c 2
 305 225 l 1
 282 225 l 2
 246 225 219 221 201 212 c 0
 183 203 173 189 170 170 c 0
 168 155 171 144 178 136 c 0
 185 129 198 125 215 125 c 0
 237 125 256 131 272 144 c 0
EndSplineSet
EndChar

StartChar: uni1EAD
Encoding: 7853 7853 211
Width: 582
Flags: W
LayerCount: 2
Fore
SplineSet
476 481 m 0
 506 448 515 395 504 320 c 2
 453 0 l 1
 278 0 l 1
 286 60 l 1
 284 60 l 1
 239 13 188 -10 131 -10 c 0
 85 -10 50 5 26 34 c 0
 1 64 -7 103 1 150 c 0
 10 207 41 252 92 283 c 0
 143 314 212 330 298 330 c 2
 321 330 l 1
 325 355 324 371 318 378 c 0
 312 386 297 390 274 390 c 0
 245 390 215 386 182 378 c 0
 149 371 117 360 84 346 c 1
 68 481 l 1
 105 497 144 509 186 518 c 0
 227 526 269 530 311 530 c 0
 391 530 446 514 476 481 c 0
271 144 m 0
 286 157 296 174 300 195 c 2
 304 225 l 1
 281 225 l 2
 245 225 218 221 200 212 c 0
 183 203 172 189 169 170 c 0
 167 155 170 144 178 136 c 0
 185 129 197 125 214 125 c 0
 237 125 256 131 271 144 c 0
151 -50 m 1
 337 -50 l 1
 307 -240 l 1
 121 -240 l 1
 151 -50 l 1
205 770 m 1
 499 770 l 1
 584 560 l 1
 378 560 l 1
 342 700 l 1
 340 700 l 1
 260 560 l 1
 55 560 l 1
 205 770 l 1
EndSplineSet
EndChar

StartChar: uni1EA7
Encoding: 7847 7847 212
Width: 553
Flags: W
LayerCount: 2
Fore
SplineSet
256 560 m 1
 58 560 l 1
 184 740 l 1
 68 740 l 1
 -13 950 l 1
 205 950 l 1
 224 770 l 1
 488 770 l 1
 568 560 l 1
 370 560 l 1
 336 700 l 1
 334 700 l 1
 256 560 l 1
482 481 m 0
 512 448 521 395 510 320 c 2
 459 0 l 1
 284 0 l 1
 292 60 l 1
 290 60 l 1
 245 13 194 -10 137 -10 c 0
 91 -10 56 5 32 34 c 0
 8 64 0 103 7 150 c 0
 16 207 47 252 98 283 c 0
 149 314 218 330 304 330 c 2
 327 330 l 1
 331 355 330 371 324 378 c 0
 318 386 303 390 280 390 c 0
 251 390 221 386 188 378 c 0
 155 371 123 360 90 346 c 1
 74 481 l 1
 111 497 150 509 192 518 c 0
 234 526 276 530 317 530 c 0
 397 530 452 514 482 481 c 0
278 144 m 0
 293 157 303 174 306 195 c 2
 310 225 l 1
 288 225 l 2
 252 225 225 221 207 212 c 0
 189 203 178 189 175 170 c 0
 173 155 176 144 184 136 c 0
 191 129 203 125 220 125 c 0
 243 125 262 131 278 144 c 0
EndSplineSet
EndChar

StartChar: uni1EA9
Encoding: 7849 7849 213
Width: 548
Flags: W
LayerCount: 2
Fore
SplineSet
630 802 m 0
 622 779 613 758 604 740 c 1
 494 740 l 1
 562 560 l 1
 364 560 l 1
 331 700 l 1
 329 700 l 1
 251 560 l 1
 53 560 l 1
 199 770 l 1
 464 770 l 1
 468 781 471 791 472 800 c 0
 474 812 472 820 468 824 c 0
 462 828 451 830 434 830 c 0
 413 830 388 828 362 824 c 0
 334 819 309 813 284 805 c 1
 291 940 l 1
 318 946 349 951 384 954 c 0
 418 958 449 960 478 960 c 0
 527 960 564 957 590 952 c 0
 614 946 631 936 640 923 c 0
 649 910 651 890 647 865 c 0
 644 846 638 825 630 802 c 0
477 481 m 0
 507 448 516 395 504 320 c 2
 453 0 l 1
 279 0 l 1
 286 60 l 1
 284 60 l 1
 239 13 189 -10 132 -10 c 0
 86 -10 51 5 26 34 c 0
 2 64 -6 103 1 150 c 0
 10 207 41 252 92 283 c 0
 143 314 212 330 299 330 c 2
 321 330 l 1
 325 355 324 371 318 378 c 0
 312 386 297 390 274 390 c 0
 245 390 215 386 182 378 c 0
 150 371 118 360 85 346 c 1
 69 481 l 1
 106 497 145 509 186 518 c 0
 228 526 270 530 311 530 c 0
 392 530 447 514 477 481 c 0
272 144 m 0
 287 157 297 174 300 195 c 2
 305 225 l 1
 282 225 l 2
 246 225 219 221 201 212 c 0
 183 203 173 189 170 170 c 0
 168 155 171 144 178 136 c 0
 185 129 198 125 215 125 c 0
 237 125 256 131 272 144 c 0
EndSplineSet
EndChar

StartChar: uni1EAB
Encoding: 7851 7851 214
Width: 582
Flags: W
LayerCount: 2
Fore
SplineSet
476 481 m 0
 506 448 515 395 504 320 c 2
 453 0 l 1
 278 0 l 1
 286 60 l 1
 284 60 l 1
 239 13 188 -10 131 -10 c 0
 85 -10 50 5 26 34 c 0
 1 64 -7 103 1 150 c 0
 10 207 41 252 92 283 c 0
 143 314 212 330 298 330 c 2
 321 330 l 1
 325 355 324 371 318 378 c 0
 312 386 297 390 274 390 c 0
 245 390 215 386 182 378 c 0
 149 371 117 360 84 346 c 1
 68 481 l 1
 105 497 144 509 186 518 c 0
 227 526 269 530 311 530 c 0
 391 530 446 514 476 481 c 0
271 144 m 0
 286 157 296 174 300 195 c 2
 304 225 l 1
 281 225 l 2
 245 225 218 221 200 212 c 0
 183 203 172 189 169 170 c 0
 167 155 170 144 178 136 c 0
 185 129 197 125 214 125 c 0
 237 125 256 131 271 144 c 0
205 770 m 1
 499 770 l 1
 584 560 l 1
 378 560 l 1
 342 700 l 1
 340 700 l 1
 260 560 l 1
 55 560 l 1
 205 770 l 1
310 852 m 0
 288 867 271 875 258 875 c 0
 249 875 243 871 238 862 c 0
 234 854 230 837 226 810 c 1
 81 810 l 1
 93 885 112 940 138 976 c 0
 163 1012 197 1030 238 1030 c 0
 280 1030 326 1013 375 978 c 0
 397 963 414 955 427 955 c 0
 436 955 442 959 446 968 c 0
 451 976 455 993 459 1020 c 1
 604 1020 l 1
 592 945 573 890 548 854 c 0
 523 818 489 800 447 800 c 0
 405 800 359 817 310 852 c 0
EndSplineSet
EndChar

StartChar: uni0201
Encoding: 513 513 215
Width: 582
Flags: W
LayerCount: 2
Fore
SplineSet
476 481 m 0
 506 448 515 395 504 320 c 2
 453 0 l 1
 278 0 l 1
 286 60 l 1
 284 60 l 1
 239 13 188 -10 131 -10 c 0
 85 -10 50 5 26 34 c 0
 1 64 -7 103 1 150 c 0
 10 207 41 252 92 283 c 0
 143 314 212 330 298 330 c 2
 321 330 l 1
 325 355 324 371 318 378 c 0
 312 386 297 390 274 390 c 0
 245 390 215 386 182 378 c 0
 149 371 117 360 84 346 c 1
 68 481 l 1
 105 497 144 509 186 518 c 0
 227 526 269 530 311 530 c 0
 391 530 446 514 476 481 c 0
271 144 m 0
 286 157 296 174 300 195 c 2
 304 225 l 1
 281 225 l 2
 245 225 218 221 200 212 c 0
 183 203 172 189 169 170 c 0
 167 155 170 144 178 136 c 0
 185 129 197 125 214 125 c 0
 237 125 256 131 271 144 c 0
17 770 m 1
 243 770 l 1
 268 560 l 1
 102 560 l 1
 17 770 l 1
282 770 m 1
 507 770 l 1
 533 560 l 1
 366 560 l 1
 282 770 l 1
EndSplineSet
EndChar

StartChar: adieresis
Encoding: 228 228 216
Width: 582
Flags: W
LayerCount: 2
Fore
SplineSet
476 481 m 0
 506 448 515 395 504 320 c 2
 453 0 l 1
 278 0 l 1
 286 60 l 1
 284 60 l 1
 239 13 188 -10 131 -10 c 0
 85 -10 50 5 26 34 c 0
 1 64 -7 103 1 150 c 0
 10 207 41 252 92 283 c 0
 143 314 212 330 298 330 c 2
 321 330 l 1
 325 355 324 371 318 378 c 0
 312 386 297 390 274 390 c 0
 245 390 215 386 182 378 c 0
 149 371 117 360 84 346 c 1
 68 481 l 1
 105 497 144 509 186 518 c 0
 227 526 269 530 311 530 c 0
 391 530 446 514 476 481 c 0
271 144 m 0
 286 157 296 174 300 195 c 2
 304 225 l 1
 281 225 l 2
 245 225 218 221 200 212 c 0
 183 203 172 189 169 170 c 0
 167 155 170 144 178 136 c 0
 185 129 197 125 214 125 c 0
 237 125 256 131 271 144 c 0
119 760 m 1
 305 760 l 1
 275 570 l 1
 89 570 l 1
 119 760 l 1
384 760 m 1
 570 760 l 1
 540 570 l 1
 354 570 l 1
 384 760 l 1
EndSplineSet
EndChar

StartChar: uni1EA1
Encoding: 7841 7841 217
Width: 582
Flags: W
LayerCount: 2
Fore
SplineSet
476 481 m 0
 506 448 515 395 504 320 c 2
 453 0 l 1
 278 0 l 1
 286 60 l 1
 284 60 l 1
 239 13 188 -10 131 -10 c 0
 85 -10 50 5 26 34 c 0
 1 64 -7 103 1 150 c 0
 10 207 41 252 92 283 c 0
 143 314 212 330 298 330 c 2
 321 330 l 1
 325 355 324 371 318 378 c 0
 312 386 297 390 274 390 c 0
 245 390 215 386 182 378 c 0
 149 371 117 360 84 346 c 1
 68 481 l 1
 105 497 144 509 186 518 c 0
 227 526 269 530 311 530 c 0
 391 530 446 514 476 481 c 0
271 144 m 0
 286 157 296 174 300 195 c 2
 304 225 l 1
 281 225 l 2
 245 225 218 221 200 212 c 0
 183 203 172 189 169 170 c 0
 167 155 170 144 178 136 c 0
 185 129 197 125 214 125 c 0
 237 125 256 131 271 144 c 0
151 -50 m 1
 337 -50 l 1
 307 -240 l 1
 121 -240 l 1
 151 -50 l 1
EndSplineSet
EndChar

StartChar: agrave
Encoding: 224 224 218
Width: 582
Flags: W
LayerCount: 2
Fore
SplineSet
476 481 m 0
 506 448 515 395 504 320 c 2
 453 0 l 1
 278 0 l 1
 286 60 l 1
 284 60 l 1
 239 13 188 -10 131 -10 c 0
 85 -10 50 5 26 34 c 0
 1 64 -7 103 1 150 c 0
 10 207 41 252 92 283 c 0
 143 314 212 330 298 330 c 2
 321 330 l 1
 325 355 324 371 318 378 c 0
 312 386 297 390 274 390 c 0
 245 390 215 386 182 378 c 0
 149 371 117 360 84 346 c 1
 68 481 l 1
 105 497 144 509 186 518 c 0
 227 526 269 530 311 530 c 0
 391 530 446 514 476 481 c 0
271 144 m 0
 286 157 296 174 300 195 c 2
 304 225 l 1
 281 225 l 2
 245 225 218 221 200 212 c 0
 183 203 172 189 169 170 c 0
 167 155 170 144 178 136 c 0
 185 129 197 125 214 125 c 0
 237 125 256 131 271 144 c 0
161 770 m 1
 387 770 l 1
 412 560 l 1
 246 560 l 1
 161 770 l 1
EndSplineSet
EndChar

StartChar: uni1EA3
Encoding: 7843 7843 219
Width: 582
Flags: W
LayerCount: 2
Fore
SplineSet
476 481 m 0
 506 448 515 395 504 320 c 2
 453 0 l 1
 278 0 l 1
 286 60 l 1
 284 60 l 1
 239 13 188 -10 131 -10 c 0
 85 -10 50 5 26 34 c 0
 1 64 -7 103 1 150 c 0
 10 207 41 252 92 283 c 0
 143 314 212 330 298 330 c 2
 321 330 l 1
 325 355 324 371 318 378 c 0
 312 386 297 390 274 390 c 0
 245 390 215 386 182 378 c 0
 149 371 117 360 84 346 c 1
 68 481 l 1
 105 497 144 509 186 518 c 0
 227 526 269 530 311 530 c 0
 391 530 446 514 476 481 c 0
271 144 m 0
 286 157 296 174 300 195 c 2
 304 225 l 1
 281 225 l 2
 245 225 218 221 200 212 c 0
 183 203 172 189 169 170 c 0
 167 155 170 144 178 136 c 0
 185 129 197 125 214 125 c 0
 237 125 256 131 271 144 c 0
386 620 m 0
 388 632 386 640 381 644 c 0
 376 648 364 650 347 650 c 0
 325 650 300 648 272 644 c 0
 244 639 217 633 191 625 c 1
 198 760 l 1
 227 766 259 771 294 774 c 0
 329 778 362 780 392 780 c 0
 443 780 481 777 508 772 c 0
 534 766 552 756 560 743 c 0
 570 730 572 710 568 685 c 0
 565 666 560 645 552 622 c 0
 543 599 534 578 524 560 c 1
 367 560 l 1
 377 585 383 605 386 620 c 0
EndSplineSet
EndChar

StartChar: uni0203
Encoding: 515 515 220
Width: 582
Flags: W
LayerCount: 2
Fore
SplineSet
476 481 m 0
 506 448 515 395 504 320 c 2
 453 0 l 1
 278 0 l 1
 286 60 l 1
 284 60 l 1
 239 13 188 -10 131 -10 c 0
 85 -10 50 5 26 34 c 0
 1 64 -7 103 1 150 c 0
 10 207 41 252 92 283 c 0
 143 314 212 330 298 330 c 2
 321 330 l 1
 325 355 324 371 318 378 c 0
 312 386 297 390 274 390 c 0
 245 390 215 386 182 378 c 0
 149 371 117 360 84 346 c 1
 68 481 l 1
 105 497 144 509 186 518 c 0
 227 526 269 530 311 530 c 0
 391 530 446 514 476 481 c 0
271 144 m 0
 286 157 296 174 300 195 c 2
 304 225 l 1
 281 225 l 2
 245 225 218 221 200 212 c 0
 183 203 172 189 169 170 c 0
 167 155 170 144 178 136 c 0
 185 129 197 125 214 125 c 0
 237 125 256 131 271 144 c 0
462 752 m 0
 496 732 521 706 536 673 c 0
 552 640 557 602 550 560 c 1
 384 560 l 1
 385 591 380 613 370 628 c 0
 359 643 342 650 319 650 c 0
 296 650 276 643 262 628 c 0
 246 613 235 591 227 560 c 1
 60 560 l 1
 67 602 83 640 110 673 c 0
 136 706 169 732 209 752 c 0
 249 770 293 780 340 780 c 0
 387 780 428 770 462 752 c 0
EndSplineSet
EndChar

StartChar: amacron
Encoding: 257 257 221
Width: 582
Flags: W
LayerCount: 2
Fore
SplineSet
476 481 m 0
 506 448 515 395 504 320 c 2
 453 0 l 1
 278 0 l 1
 286 60 l 1
 284 60 l 1
 239 13 188 -10 131 -10 c 0
 85 -10 50 5 26 34 c 0
 1 64 -7 103 1 150 c 0
 10 207 41 252 92 283 c 0
 143 314 212 330 298 330 c 2
 321 330 l 1
 325 355 324 371 318 378 c 0
 312 386 297 390 274 390 c 0
 245 390 215 386 182 378 c 0
 149 371 117 360 84 346 c 1
 68 481 l 1
 105 497 144 509 186 518 c 0
 227 526 269 530 311 530 c 0
 391 530 446 514 476 481 c 0
271 144 m 0
 286 157 296 174 300 195 c 2
 304 225 l 1
 281 225 l 2
 245 225 218 221 200 212 c 0
 183 203 172 189 169 170 c 0
 167 155 170 144 178 136 c 0
 185 129 197 125 214 125 c 0
 237 125 256 131 271 144 c 0
122 735 m 1
 533 735 l 1
 511 595 l 1
 99 595 l 1
 122 735 l 1
EndSplineSet
EndChar

StartChar: aogonek
Encoding: 261 261 222
Width: 549
Flags: W
LayerCount: 2
Fore
SplineSet
508 -200 m 1
 472 -213 432 -220 387 -220 c 0
 322 -220 274 -208 243 -184 c 0
 212 -160 199 -126 206 -82 c 0
 209 -61 217 -40 230 -22 c 0
 242 -2 260 17 283 38 c 1
 283 38 285 60 285 60 c 1
 285 60 283 60 283 60 c 1
 238 13 188 -10 131 -10 c 0
 85 -10 50 5 26 34 c 0
 1 64 -7 103 1 150 c 0
 10 207 41 252 92 283 c 0
 143 314 212 330 298 330 c 2
 320 330 l 1
 324 355 323 371 317 378 c 0
 311 386 296 390 273 390 c 0
 245 390 215 386 182 378 c 0
 149 371 117 360 84 346 c 1
 68 481 l 1
 105 497 144 509 186 518 c 0
 227 526 269 530 310 530 c 0
 391 530 446 514 476 481 c 0
 506 448 515 395 503 320 c 2
 452 0 l 1
 404 -19 379 -38 376 -57 c 0
 375 -66 378 -73 385 -78 c 0
 392 -83 404 -85 419 -85 c 0
 433 -85 449 -83 466 -80 c 0
 483 -76 500 -71 515 -65 c 1
 508 -200 l 1
270 144 m 0
 286 157 296 174 299 195 c 2
 304 225 l 1
 281 225 l 2
 245 225 218 221 200 212 c 0
 183 203 172 189 169 170 c 0
 167 155 170 144 178 136 c 0
 185 129 197 125 214 125 c 0
 236 125 255 131 270 144 c 0
EndSplineSet
EndChar

StartChar: aring
Encoding: 229 229 223
Width: 545
Flags: W
LayerCount: 2
Fore
SplineSet
492 460 m 0
 509 428 513 381 503 320 c 2
 453 0 l 1
 278 0 l 1
 285 60 l 1
 284 60 l 1
 239 13 188 -10 131 -10 c 0
 85 -10 50 5 26 34 c 0
 1 64 -7 103 1 150 c 0
 10 207 41 252 92 283 c 0
 143 314 212 330 298 330 c 2
 321 330 l 1
 325 355 324 371 318 378 c 0
 311 386 296 390 273 390 c 0
 245 390 215 386 182 378 c 0
 149 371 117 360 84 346 c 1
 68 481 l 1
 111 500 159 513 213 522 c 1
 194 538 179 558 170 584 c 0
 161 608 158 636 163 665 c 0
 168 696 179 724 198 750 c 0
 217 776 240 797 266 812 c 0
 294 827 321 835 350 835 c 0
 379 835 404 827 426 812 c 0
 449 797 465 776 476 750 c 0
 486 724 489 696 484 665 c 0
 479 636 468 609 452 584 c 0
 434 559 414 539 390 524 c 1
 440 514 474 493 492 460 c 0
292 704 m 0
 281 693 274 680 271 665 c 0
 268 650 271 637 280 626 c 0
 289 615 300 610 315 610 c 0
 330 610 343 615 354 626 c 0
 366 637 373 650 376 665 c 0
 379 680 376 693 367 704 c 0
 358 715 347 720 332 720 c 0
 317 720 304 715 292 704 c 0
270 144 m 0
 286 157 296 174 299 195 c 2
 304 225 l 1
 281 225 l 2
 245 225 218 221 200 212 c 0
 183 203 172 189 169 170 c 0
 167 155 170 144 178 136 c 0
 185 129 197 125 214 125 c 0
 236 125 255 131 270 144 c 0
EndSplineSet
EndChar

StartChar: aringacute
Encoding: 507 507 224
Width: 545
Flags: W
LayerCount: 2
Fore
SplineSet
492 460 m 0
 509 428 513 381 503 320 c 2
 453 0 l 1
 278 0 l 1
 285 60 l 1
 284 60 l 1
 239 13 188 -10 131 -10 c 0
 85 -10 50 5 26 34 c 0
 1 64 -7 103 1 150 c 0
 10 207 41 252 92 283 c 0
 143 314 212 330 298 330 c 2
 321 330 l 1
 325 355 324 371 318 378 c 0
 311 386 296 390 273 390 c 0
 245 390 215 386 182 378 c 0
 149 371 117 360 84 346 c 1
 68 481 l 1
 111 500 159 513 213 522 c 1
 194 538 179 558 170 584 c 0
 161 608 158 636 163 665 c 0
 167 690 175 713 188 734 c 0
 201 756 217 775 236 792 c 1
 325 1000 l 1
 542 1000 l 1
 416 819 l 1
 441 805 460 784 473 756 c 0
 486 729 489 698 484 665 c 0
 479 636 468 609 452 584 c 0
 434 559 414 539 390 524 c 1
 440 514 474 493 492 460 c 0
292 704 m 0
 281 693 274 680 271 665 c 0
 268 650 271 637 280 626 c 0
 289 615 300 610 315 610 c 0
 330 610 343 615 354 626 c 0
 366 637 373 650 376 665 c 0
 379 680 376 693 367 704 c 0
 358 715 347 720 332 720 c 0
 317 720 304 715 292 704 c 0
270 144 m 0
 286 157 296 174 299 195 c 2
 304 225 l 1
 281 225 l 2
 245 225 218 221 200 212 c 0
 183 203 172 189 169 170 c 0
 167 155 170 144 178 136 c 0
 185 129 197 125 214 125 c 0
 236 125 255 131 270 144 c 0
EndSplineSet
EndChar

StartChar: atilde
Encoding: 227 227 225
Width: 582
Flags: W
LayerCount: 2
Fore
SplineSet
476 481 m 0
 506 448 515 395 504 320 c 2
 453 0 l 1
 278 0 l 1
 286 60 l 1
 284 60 l 1
 239 13 188 -10 131 -10 c 0
 85 -10 50 5 26 34 c 0
 1 64 -7 103 1 150 c 0
 10 207 41 252 92 283 c 0
 143 314 212 330 298 330 c 2
 321 330 l 1
 325 355 324 371 318 378 c 0
 312 386 297 390 274 390 c 0
 245 390 215 386 182 378 c 0
 149 371 117 360 84 346 c 1
 68 481 l 1
 105 497 144 509 186 518 c 0
 227 526 269 530 311 530 c 0
 391 530 446 514 476 481 c 0
271 144 m 0
 286 157 296 174 300 195 c 2
 304 225 l 1
 281 225 l 2
 245 225 218 221 200 212 c 0
 183 203 172 189 169 170 c 0
 167 155 170 144 178 136 c 0
 185 129 197 125 214 125 c 0
 237 125 256 131 271 144 c 0
270 601 m 0
 248 617 231 624 218 624 c 0
 209 624 203 620 198 612 c 0
 194 603 190 586 186 559 c 1
 41 559 l 1
 53 634 72 690 98 726 c 0
 123 762 157 780 198 780 c 0
 240 780 286 763 335 728 c 0
 357 712 374 705 387 705 c 0
 396 705 402 709 406 717 c 0
 411 726 415 743 419 770 c 1
 564 770 l 1
 552 695 533 639 508 603 c 0
 483 567 449 549 407 549 c 0
 365 549 319 566 270 601 c 0
EndSplineSet
EndChar

StartChar: ae
Encoding: 230 230 226
Width: 842
Flags: W
LayerCount: 2
Fore
SplineSet
800 200 m 1
 484 200 l 1
 483 173 491 154 508 142 c 0
 525 131 554 125 594 125 c 0
 641 125 688 133 734 148 c 1
 737 18 l 1
 714 9 687 2 656 -2 c 0
 624 -8 593 -10 562 -10 c 0
 476 -10 411 9 366 48 c 1
 315 9 252 -10 179 -10 c 0
 44 -10 -16 43 1 150 c 0
 10 207 41 252 92 283 c 0
 143 314 212 330 298 330 c 2
 321 330 l 1
 325 355 324 371 318 378 c 0
 312 386 297 390 274 390 c 0
 245 390 215 386 182 378 c 0
 149 371 117 360 84 346 c 1
 68 481 l 1
 105 497 144 509 186 518 c 0
 228 526 270 530 311 530 c 0
 380 530 430 518 461 494 c 1
 504 518 554 530 609 530 c 0
 687 530 744 507 780 462 c 0
 816 416 828 352 815 270 c 0
 810 238 805 215 800 200 c 1
535 383 m 0
 521 368 510 346 503 315 c 1
 647 315 l 1
 649 346 646 368 636 383 c 0
 628 398 612 405 589 405 c 0
 567 405 549 398 535 383 c 0
271 144 m 0
 286 157 296 174 300 195 c 2
 304 225 l 1
 281 225 l 2
 245 225 218 221 200 212 c 0
 183 203 172 189 169 170 c 0
 167 155 170 144 178 136 c 0
 185 129 197 125 214 125 c 0
 237 125 256 131 271 144 c 0
EndSplineSet
EndChar

StartChar: aeacute
Encoding: 509 509 227
Width: 891
Flags: W
LayerCount: 2
Fore
SplineSet
800 200 m 1
 484 200 l 1
 483 173 491 154 508 142 c 0
 525 131 554 125 594 125 c 0
 641 125 688 133 734 148 c 1
 737 18 l 1
 714 9 687 2 656 -2 c 0
 624 -8 593 -10 562 -10 c 0
 476 -10 411 9 366 48 c 1
 315 9 252 -10 179 -10 c 0
 44 -10 -16 43 1 150 c 0
 10 207 41 252 92 283 c 0
 143 314 212 330 298 330 c 2
 321 330 l 1
 325 355 324 371 318 378 c 0
 312 386 297 390 274 390 c 0
 245 390 215 386 182 378 c 0
 149 371 117 360 84 346 c 1
 68 481 l 1
 105 497 144 509 186 518 c 0
 228 526 270 530 311 530 c 0
 380 530 430 518 461 494 c 1
 504 518 554 530 609 530 c 0
 687 530 744 507 780 462 c 0
 816 416 828 352 815 270 c 0
 810 238 805 215 800 200 c 1
535 383 m 0
 521 368 510 346 503 315 c 1
 647 315 l 1
 649 346 646 368 636 383 c 0
 628 398 612 405 589 405 c 0
 567 405 549 398 535 383 c 0
271 144 m 0
 286 157 296 174 300 195 c 2
 304 225 l 1
 281 225 l 2
 245 225 218 221 200 212 c 0
 183 203 172 189 169 170 c 0
 167 155 170 144 178 136 c 0
 185 129 197 125 214 125 c 0
 237 125 256 131 271 144 c 0
573 560 m 1
 406 560 l 1
 498 770 l 1
 724 770 l 1
 573 560 l 1
EndSplineSet
EndChar

StartChar: b
Encoding: 98 98 228
Width: 598
Flags: W
LayerCount: 2
Fore
SplineSet
549 460 m 0
 573 414 578 347 565 260 c 0
 551 173 524 106 486 60 c 0
 446 13 397 -10 338 -10 c 0
 309 -10 284 -4 260 7 c 0
 238 18 216 36 197 60 c 1
 195 60 l 1
 184 0 l 1
 9 0 l 1
 127 750 l 1
 312 750 l 1
 266 460 l 1
 268 460 l 1
 293 484 318 502 342 513 c 0
 368 524 394 530 423 530 c 0
 483 530 525 507 549 460 c 0
351 170 m 0
 367 191 378 221 384 260 c 0
 390 299 388 329 379 350 c 0
 370 370 353 380 328 380 c 0
 304 380 284 370 268 351 c 0
 252 332 241 305 236 270 c 2
 233 250 l 2
 228 215 230 188 240 169 c 0
 249 150 266 140 290 140 c 0
 315 140 335 150 351 170 c 0
EndSplineSet
EndChar

StartChar: c
Encoding: 99 99 229
Width: 519
Flags: W
LayerCount: 2
Fore
SplineSet
66 60 m 0
 24 107 10 173 23 260 c 0
 37 347 72 413 129 460 c 0
 186 507 259 530 350 530 c 0
 413 530 468 517 514 490 c 1
 448 358 l 1
 411 379 375 390 340 390 c 0
 268 390 225 347 211 260 c 0
 197 173 226 130 299 130 c 0
 334 130 374 141 417 162 c 1
 441 30 l 1
 386 3 327 -10 264 -10 c 0
 173 -10 107 13 66 60 c 0
EndSplineSet
EndChar

StartChar: cacute
Encoding: 263 263 230
Width: 552
Flags: W
LayerCount: 2
Fore
SplineSet
66 60 m 0
 24 107 10 173 23 260 c 0
 37 347 72 413 129 460 c 0
 186 507 259 530 350 530 c 0
 413 530 468 517 514 490 c 1
 448 358 l 1
 411 379 375 390 340 390 c 0
 268 390 225 347 211 260 c 0
 197 173 226 130 299 130 c 0
 334 130 374 141 417 162 c 1
 441 30 l 1
 386 3 327 -10 264 -10 c 0
 173 -10 107 13 66 60 c 0
420 560 m 1
 253 560 l 1
 345 770 l 1
 571 770 l 1
 420 560 l 1
EndSplineSet
EndChar

StartChar: ccaron
Encoding: 269 269 231
Width: 552
Flags: W
LayerCount: 2
Fore
SplineSet
66 60 m 0
 24 107 10 173 23 260 c 0
 37 347 72 413 129 460 c 0
 186 507 259 530 350 530 c 0
 413 530 468 517 514 490 c 1
 448 358 l 1
 411 379 375 390 340 390 c 0
 268 390 225 347 211 260 c 0
 197 173 226 130 299 130 c 0
 334 130 374 141 417 162 c 1
 441 30 l 1
 386 3 327 -10 264 -10 c 0
 173 -10 107 13 66 60 c 0
93 770 m 1
 299 770 l 1
 334 630 l 1
 336 630 l 1
 416 770 l 1
 622 770 l 1
 471 560 l 1
 177 560 l 1
 93 770 l 1
EndSplineSet
EndChar

StartChar: ccedilla
Encoding: 231 231 232
Width: 517
Flags: W
LayerCount: 2
Fore
SplineSet
439 30 m 1
 418 19 397 11 377 6 c 1
 392 -22 398 -51 393 -82 c 0
 386 -126 364 -160 324 -184 c 0
 286 -208 234 -220 169 -220 c 0
 124 -220 86 -213 54 -200 c 1
 90 -65 l 1
 103 -71 118 -76 134 -80 c 0
 150 -83 165 -85 179 -85 c 0
 195 -85 207 -83 216 -78 c 0
 225 -73 230 -66 232 -57 c 0
 235 -38 216 -19 174 0 c 1
 115 14 72 43 46 88 c 0
 20 132 12 189 23 260 c 0
 37 347 72 413 128 460 c 0
 185 507 258 530 349 530 c 0
 412 530 466 517 512 490 c 1
 447 358 l 1
 411 379 375 390 340 390 c 0
 268 390 225 347 211 260 c 0
 197 173 226 130 298 130 c 0
 333 130 373 141 416 162 c 1
 439 30 l 1
EndSplineSet
EndChar

StartChar: ccircumflex
Encoding: 265 265 233
Width: 552
Flags: W
LayerCount: 2
Fore
SplineSet
66 60 m 0
 24 107 10 173 23 260 c 0
 37 347 72 413 129 460 c 0
 186 507 259 530 350 530 c 0
 413 530 468 517 514 490 c 1
 448 358 l 1
 411 379 375 390 340 390 c 0
 268 390 225 347 211 260 c 0
 197 173 226 130 299 130 c 0
 334 130 374 141 417 162 c 1
 441 30 l 1
 386 3 327 -10 264 -10 c 0
 173 -10 107 13 66 60 c 0
220 770 m 1
 514 770 l 1
 599 560 l 1
 393 560 l 1
 357 700 l 1
 355 700 l 1
 275 560 l 1
 70 560 l 1
 220 770 l 1
EndSplineSet
EndChar

StartChar: cdotaccent
Encoding: 267 267 234
Width: 552
Flags: W
LayerCount: 2
Fore
SplineSet
66 60 m 0
 24 107 10 173 23 260 c 0
 37 347 72 413 129 460 c 0
 186 507 259 530 350 530 c 0
 413 530 468 517 514 490 c 1
 448 358 l 1
 411 379 375 390 340 390 c 0
 268 390 225 347 211 260 c 0
 197 173 226 130 299 130 c 0
 334 130 374 141 417 162 c 1
 441 30 l 1
 386 3 327 -10 264 -10 c 0
 173 -10 107 13 66 60 c 0
295 760 m 1
 481 760 l 1
 451 570 l 1
 265 570 l 1
 295 760 l 1
EndSplineSet
EndChar

StartChar: d
Encoding: 100 100 235
Width: 598
Flags: W
LayerCount: 2
Fore
SplineSet
619 750 m 1
 500 0 l 1
 325 0 l 1
 333 60 l 1
 331 60 l 1
 304 36 277 18 250 7 c 0
 224 -4 197 -10 168 -10 c 0
 108 -10 66 13 42 60 c 0
 17 106 12 173 26 260 c 0
 40 347 66 414 105 460 c 0
 144 507 193 530 253 530 c 0
 282 530 307 524 328 513 c 0
 350 502 370 484 387 460 c 1
 388 460 l 1
 434 750 l 1
 619 750 l 1
323 169 m 0
 339 188 350 215 355 250 c 2
 358 270 l 2
 363 305 361 332 352 351 c 0
 342 370 325 380 301 380 c 0
 276 380 256 370 240 350 c 0
 224 329 213 299 207 260 c 0
 201 221 203 191 212 170 c 0
 221 150 238 140 263 140 c 0
 287 140 307 150 323 169 c 0
EndSplineSet
EndChar

StartChar: eth
Encoding: 240 240 236
Width: 583
Flags: W
LayerCount: 2
Fore
SplineSet
545 280 m 0
 530 182 497 109 446 62 c 0
 396 14 327 -10 240 -10 c 0
 159 -10 100 13 61 60 c 0
 22 106 9 169 22 250 c 0
 33 323 62 380 109 420 c 0
 156 460 216 480 290 480 c 0
 321 480 349 477 373 470 c 1
 375 471 l 1
 378 502 372 529 358 552 c 1
 146 468 l 1
 115 598 l 1
 230 644 l 1
 203 653 171 658 134 660 c 1
 192 790 l 1
 289 785 366 761 425 720 c 1
 558 773 l 1
 589 643 l 1
 515 614 l 1
 557 530 567 419 545 280 c 0
324 155 m 0
 340 175 351 207 358 250 c 0
 365 293 364 325 354 345 c 0
 346 365 328 375 301 375 c 0
 274 375 253 365 238 345 c 0
 223 325 211 293 204 250 c 0
 197 207 199 175 208 155 c 0
 217 135 235 125 261 125 c 0
 288 125 309 135 324 155 c 0
EndSplineSet
EndChar

StartChar: dcaron
Encoding: 271 271 237
Width: 891
Flags: W
LayerCount: 2
Fore
SplineSet
619 750 m 1
 500 0 l 1
 325 0 l 1
 333 60 l 1
 331 60 l 1
 304 36 277 18 250 7 c 0
 224 -4 197 -10 168 -10 c 0
 108 -10 66 13 42 60 c 0
 17 106 12 173 26 260 c 0
 40 347 66 414 105 460 c 0
 144 507 193 530 253 530 c 0
 282 530 307 524 328 513 c 0
 350 502 370 484 387 460 c 1
 388 460 l 1
 434 750 l 1
 619 750 l 1
323 169 m 0
 339 188 350 215 355 250 c 2
 358 270 l 2
 363 305 361 332 352 351 c 0
 342 370 325 380 301 380 c 0
 276 380 256 370 240 350 c 0
 224 329 213 299 207 260 c 0
 201 221 203 191 212 170 c 0
 221 150 238 140 263 140 c 0
 287 140 307 150 323 169 c 0
748 770 m 1
 953 770 l 1
 788 470 l 1
 641 470 l 1
 748 770 l 1
EndSplineSet
EndChar

StartChar: dcroat
Encoding: 273 273 238
Width: 658
Flags: W
LayerCount: 2
Fore
SplineSet
683 555 m 1
 588 555 l 1
 500 0 l 1
 325 0 l 1
 333 60 l 1
 331 60 l 1
 304 36 277 18 250 7 c 0
 224 -4 197 -10 168 -10 c 0
 108 -10 66 13 42 60 c 0
 17 106 12 173 26 260 c 0
 40 347 66 414 105 460 c 0
 144 507 193 530 253 530 c 0
 282 530 307 524 328 513 c 0
 350 502 370 484 387 460 c 1
 388 460 l 1
 404 555 l 1
 286 555 l 1
 308 695 l 1
 426 695 l 1
 434 750 l 1
 619 750 l 1
 610 695 l 1
 705 695 l 1
 683 555 l 1
323 169 m 0
 339 188 350 215 355 250 c 2
 358 270 l 2
 363 305 361 332 352 351 c 0
 342 370 325 380 301 380 c 0
 276 380 256 370 240 350 c 0
 224 329 213 299 207 260 c 0
 201 221 203 191 212 170 c 0
 221 150 238 140 263 140 c 0
 287 140 307 150 323 169 c 0
EndSplineSet
EndChar

StartChar: uni01C6
Encoding: 454 454 239
Width: 1214
Flags: W
LayerCount: 2
Fore
SplineSet
619 750 m 1
 500 0 l 1
 325 0 l 1
 333 60 l 1
 331 60 l 1
 304 36 277 18 250 7 c 0
 224 -4 197 -10 168 -10 c 0
 108 -10 66 13 42 60 c 0
 17 106 12 173 26 260 c 0
 40 347 66 414 105 460 c 0
 144 507 193 530 253 530 c 0
 282 530 307 524 328 513 c 0
 350 502 370 484 387 460 c 1
 388 460 l 1
 434 750 l 1
 619 750 l 1
323 169 m 0
 339 188 350 215 355 250 c 2
 358 270 l 2
 363 305 361 332 352 351 c 0
 342 370 325 380 301 380 c 0
 276 380 256 370 240 350 c 0
 224 329 213 299 207 260 c 0
 201 221 203 191 212 170 c 0
 221 150 238 140 263 140 c 0
 287 140 307 150 323 169 c 0
663 140 m 1
 913 378 l 1
 913 380 l 1
 701 380 l 1
 724 520 l 1
 1170 520 l 1
 1148 380 l 1
 898 142 l 1
 898 140 l 1
 1110 140 l 1
 1088 0 l 1
 641 0 l 1
 663 140 l 1
724 770 m 1
 930 770 l 1
 965 630 l 1
 967 630 l 1
 1047 770 l 1
 1253 770 l 1
 1102 560 l 1
 808 560 l 1
 724 770 l 1
EndSplineSet
EndChar

StartChar: e
Encoding: 101 101 240
Width: 550
Flags: W
LayerCount: 2
Fore
SplineSet
508 200 m 1
 195 200 l 1
 194 173 202 154 220 142 c 0
 237 131 266 125 305 125 c 0
 352 125 398 133 443 148 c 1
 446 18 l 1
 423 9 396 2 365 -2 c 0
 334 -8 303 -10 272 -10 c 0
 178 -10 110 13 67 60 c 0
 24 106 10 173 23 260 c 0
 36 344 70 410 122 458 c 0
 176 506 241 530 320 530 c 0
 397 530 454 507 490 462 c 0
 525 416 536 352 523 270 c 0
 518 238 513 215 508 200 c 1
246 383 m 0
 233 368 222 346 215 315 c 1
 357 315 l 1
 360 346 356 368 347 383 c 0
 338 398 322 405 300 405 c 0
 278 405 260 398 246 383 c 0
EndSplineSet
EndChar

StartChar: eacute
Encoding: 233 233 241
Width: 588
Flags: W
LayerCount: 2
Fore
SplineSet
508 200 m 1
 195 200 l 1
 194 173 202 154 220 142 c 0
 237 131 266 125 305 125 c 0
 352 125 398 133 443 148 c 1
 446 18 l 1
 423 9 396 2 365 -2 c 0
 334 -8 303 -10 272 -10 c 0
 178 -10 110 13 67 60 c 0
 24 106 10 173 23 260 c 0
 36 344 70 410 122 458 c 0
 176 506 241 530 320 530 c 0
 397 530 454 507 490 462 c 0
 525 416 536 352 523 270 c 0
 518 238 513 215 508 200 c 1
246 383 m 0
 233 368 222 346 215 315 c 1
 357 315 l 1
 360 346 356 368 347 383 c 0
 338 398 322 405 300 405 c 0
 278 405 260 398 246 383 c 0
425 560 m 1
 258 560 l 1
 350 770 l 1
 576 770 l 1
 425 560 l 1
EndSplineSet
EndChar

StartChar: ebreve
Encoding: 277 277 242
Width: 588
Flags: W
LayerCount: 2
Fore
SplineSet
508 200 m 1
 195 200 l 1
 194 173 202 154 220 142 c 0
 237 131 266 125 305 125 c 0
 352 125 398 133 443 148 c 1
 446 18 l 1
 423 9 396 2 365 -2 c 0
 334 -8 303 -10 272 -10 c 0
 178 -10 110 13 67 60 c 0
 24 106 10 173 23 260 c 0
 36 344 70 410 122 458 c 0
 176 506 241 530 320 530 c 0
 397 530 454 507 490 462 c 0
 525 416 536 352 523 270 c 0
 518 238 513 215 508 200 c 1
246 383 m 0
 233 368 222 346 215 315 c 1
 357 315 l 1
 360 346 356 368 347 383 c 0
 338 398 322 405 300 405 c 0
 278 405 260 398 246 383 c 0
202 578 m 0
 167 598 142 624 126 657 c 0
 111 690 106 728 113 770 c 1
 280 770 l 1
 279 739 283 717 294 702 c 0
 304 687 321 680 344 680 c 0
 367 680 386 687 401 702 c 0
 416 717 428 739 437 770 c 1
 603 770 l 1
 596 728 580 690 554 657 c 0
 528 624 495 598 454 578 c 0
 414 560 371 550 324 550 c 0
 277 550 236 560 202 578 c 0
EndSplineSet
EndChar

StartChar: ecaron
Encoding: 283 283 243
Width: 588
Flags: W
LayerCount: 2
Fore
SplineSet
508 200 m 1
 195 200 l 1
 194 173 202 154 220 142 c 0
 237 131 266 125 305 125 c 0
 352 125 398 133 443 148 c 1
 446 18 l 1
 423 9 396 2 365 -2 c 0
 334 -8 303 -10 272 -10 c 0
 178 -10 110 13 67 60 c 0
 24 106 10 173 23 260 c 0
 36 344 70 410 122 458 c 0
 176 506 241 530 320 530 c 0
 397 530 454 507 490 462 c 0
 525 416 536 352 523 270 c 0
 518 238 513 215 508 200 c 1
246 383 m 0
 233 368 222 346 215 315 c 1
 357 315 l 1
 360 346 356 368 347 383 c 0
 338 398 322 405 300 405 c 0
 278 405 260 398 246 383 c 0
98 770 m 1
 304 770 l 1
 339 630 l 1
 341 630 l 1
 421 770 l 1
 627 770 l 1
 476 560 l 1
 182 560 l 1
 98 770 l 1
EndSplineSet
EndChar

StartChar: ecircumflex
Encoding: 234 234 244
Width: 588
Flags: W
LayerCount: 2
Fore
SplineSet
508 200 m 1
 195 200 l 1
 194 173 202 154 220 142 c 0
 237 131 266 125 305 125 c 0
 352 125 398 133 443 148 c 1
 446 18 l 1
 423 9 396 2 365 -2 c 0
 334 -8 303 -10 272 -10 c 0
 178 -10 110 13 67 60 c 0
 24 106 10 173 23 260 c 0
 36 344 70 410 122 458 c 0
 176 506 241 530 320 530 c 0
 397 530 454 507 490 462 c 0
 525 416 536 352 523 270 c 0
 518 238 513 215 508 200 c 1
246 383 m 0
 233 368 222 346 215 315 c 1
 357 315 l 1
 360 346 356 368 347 383 c 0
 338 398 322 405 300 405 c 0
 278 405 260 398 246 383 c 0
225 770 m 1
 519 770 l 1
 604 560 l 1
 398 560 l 1
 362 700 l 1
 360 700 l 1
 280 560 l 1
 75 560 l 1
 225 770 l 1
EndSplineSet
EndChar

StartChar: uni1EBF
Encoding: 7871 7871 245
Width: 556
Flags: W
LayerCount: 2
Fore
SplineSet
773 950 m 1
 626 740 l 1
 510 740 l 1
 579 560 l 1
 381 560 l 1
 348 700 l 1
 346 700 l 1
 268 560 l 1
 71 560 l 1
 217 770 l 1
 479 770 l 1
 556 950 l 1
 773 950 l 1
490 462 m 0
 525 416 536 352 523 270 c 0
 518 238 513 215 508 200 c 1
 195 200 l 1
 194 173 202 154 220 142 c 0
 237 131 266 125 305 125 c 0
 352 125 398 133 443 148 c 1
 446 18 l 1
 423 9 396 2 365 -2 c 0
 334 -8 303 -10 272 -10 c 0
 178 -10 110 13 67 60 c 0
 24 106 10 173 23 260 c 0
 36 344 70 410 122 458 c 0
 176 506 241 530 320 530 c 0
 397 530 454 507 490 462 c 0
246 383 m 0
 233 368 222 346 215 315 c 1
 357 315 l 1
 360 346 356 368 347 383 c 0
 338 398 322 405 300 405 c 0
 278 405 260 398 246 383 c 0
EndSplineSet
EndChar

StartChar: uni1EC7
Encoding: 7879 7879 246
Width: 588
Flags: W
LayerCount: 2
Fore
SplineSet
508 200 m 1
 195 200 l 1
 194 173 202 154 220 142 c 0
 237 131 266 125 305 125 c 0
 352 125 398 133 443 148 c 1
 446 18 l 1
 423 9 396 2 365 -2 c 0
 334 -8 303 -10 272 -10 c 0
 178 -10 110 13 67 60 c 0
 24 106 10 173 23 260 c 0
 36 344 70 410 122 458 c 0
 176 506 241 530 320 530 c 0
 397 530 454 507 490 462 c 0
 525 416 536 352 523 270 c 0
 518 238 513 215 508 200 c 1
246 383 m 0
 233 368 222 346 215 315 c 1
 357 315 l 1
 360 346 356 368 347 383 c 0
 338 398 322 405 300 405 c 0
 278 405 260 398 246 383 c 0
171 -50 m 1
 357 -50 l 1
 327 -240 l 1
 141 -240 l 1
 171 -50 l 1
225 770 m 1
 519 770 l 1
 604 560 l 1
 398 560 l 1
 362 700 l 1
 360 700 l 1
 280 560 l 1
 75 560 l 1
 225 770 l 1
EndSplineSet
EndChar

StartChar: uni1EC1
Encoding: 7873 7873 247
Width: 556
Flags: W
LayerCount: 2
Fore
SplineSet
77 560 m 1
 202 740 l 1
 86 740 l 1
 5 950 l 1
 223 950 l 1
 242 770 l 1
 505 770 l 1
 584 560 l 1
 387 560 l 1
 354 700 l 1
 352 700 l 1
 274 560 l 1
 77 560 l 1
494 462 m 0
 530 416 542 352 529 270 c 0
 524 238 519 215 514 200 c 1
 201 200 l 1
 200 173 208 154 225 142 c 0
 242 131 271 125 310 125 c 0
 357 125 403 133 448 148 c 1
 451 18 l 1
 428 9 402 2 370 -2 c 0
 340 -8 309 -10 278 -10 c 0
 184 -10 116 13 72 60 c 0
 30 106 15 173 29 260 c 0
 42 344 75 410 128 458 c 0
 181 506 247 530 326 530 c 0
 403 530 459 507 494 462 c 0
252 383 m 0
 238 368 227 346 220 315 c 1
 363 315 l 1
 366 346 362 368 353 383 c 0
 344 398 328 405 306 405 c 0
 284 405 266 398 252 383 c 0
EndSplineSet
EndChar

StartChar: uni1EC3
Encoding: 7875 7875 248
Width: 552
Flags: W
LayerCount: 2
Fore
SplineSet
647 802 m 0
 639 779 630 758 620 740 c 1
 510 740 l 1
 579 560 l 1
 381 560 l 1
 348 700 l 1
 346 700 l 1
 268 560 l 1
 71 560 l 1
 217 770 l 1
 481 770 l 1
 485 781 488 791 489 800 c 0
 491 812 490 820 484 824 c 0
 480 828 468 830 451 830 c 0
 430 830 406 828 379 824 c 0
 352 819 327 813 302 805 c 1
 309 940 l 1
 336 946 367 951 401 954 c 0
 435 958 466 960 495 960 c 0
 544 960 581 957 606 952 c 0
 631 946 648 936 657 923 c 0
 666 910 668 890 664 865 c 0
 661 846 655 825 647 802 c 0
490 462 m 0
 525 416 536 352 523 270 c 0
 518 238 513 215 508 200 c 1
 195 200 l 1
 194 173 202 154 220 142 c 0
 237 131 266 125 305 125 c 0
 352 125 398 133 443 148 c 1
 446 18 l 1
 423 9 396 2 365 -2 c 0
 334 -8 303 -10 272 -10 c 0
 178 -10 110 13 67 60 c 0
 24 106 10 173 23 260 c 0
 36 344 70 410 122 458 c 0
 176 506 241 530 320 530 c 0
 397 530 454 507 490 462 c 0
246 383 m 0
 233 368 222 346 215 315 c 1
 357 315 l 1
 360 346 356 368 347 383 c 0
 338 398 322 405 300 405 c 0
 278 405 260 398 246 383 c 0
EndSplineSet
EndChar

StartChar: uni1EC5
Encoding: 7877 7877 249
Width: 588
Flags: W
LayerCount: 2
Fore
SplineSet
508 200 m 1
 195 200 l 1
 194 173 202 154 220 142 c 0
 237 131 266 125 305 125 c 0
 352 125 398 133 443 148 c 1
 446 18 l 1
 423 9 396 2 365 -2 c 0
 334 -8 303 -10 272 -10 c 0
 178 -10 110 13 67 60 c 0
 24 106 10 173 23 260 c 0
 36 344 70 410 122 458 c 0
 176 506 241 530 320 530 c 0
 397 530 454 507 490 462 c 0
 525 416 536 352 523 270 c 0
 518 238 513 215 508 200 c 1
246 383 m 0
 233 368 222 346 215 315 c 1
 357 315 l 1
 360 346 356 368 347 383 c 0
 338 398 322 405 300 405 c 0
 278 405 260 398 246 383 c 0
225 770 m 1
 519 770 l 1
 604 560 l 1
 398 560 l 1
 362 700 l 1
 360 700 l 1
 280 560 l 1
 75 560 l 1
 225 770 l 1
330 852 m 0
 308 867 291 875 278 875 c 0
 269 875 263 871 258 862 c 0
 254 854 250 837 246 810 c 1
 101 810 l 1
 113 885 132 940 158 976 c 0
 183 1012 217 1030 258 1030 c 0
 300 1030 346 1013 395 978 c 0
 417 963 434 955 447 955 c 0
 456 955 462 959 466 968 c 0
 471 976 475 993 479 1020 c 1
 624 1020 l 1
 612 945 593 890 568 854 c 0
 543 818 509 800 467 800 c 0
 425 800 379 817 330 852 c 0
EndSplineSet
EndChar

StartChar: uni0205
Encoding: 517 517 250
Width: 588
Flags: W
LayerCount: 2
Fore
SplineSet
508 200 m 1
 195 200 l 1
 194 173 202 154 220 142 c 0
 237 131 266 125 305 125 c 0
 352 125 398 133 443 148 c 1
 446 18 l 1
 423 9 396 2 365 -2 c 0
 334 -8 303 -10 272 -10 c 0
 178 -10 110 13 67 60 c 0
 24 106 10 173 23 260 c 0
 36 344 70 410 122 458 c 0
 176 506 241 530 320 530 c 0
 397 530 454 507 490 462 c 0
 525 416 536 352 523 270 c 0
 518 238 513 215 508 200 c 1
246 383 m 0
 233 368 222 346 215 315 c 1
 357 315 l 1
 360 346 356 368 347 383 c 0
 338 398 322 405 300 405 c 0
 278 405 260 398 246 383 c 0
37 770 m 1
 263 770 l 1
 288 560 l 1
 122 560 l 1
 37 770 l 1
302 770 m 1
 527 770 l 1
 553 560 l 1
 386 560 l 1
 302 770 l 1
EndSplineSet
EndChar

StartChar: edieresis
Encoding: 235 235 251
Width: 588
Flags: W
LayerCount: 2
Fore
SplineSet
508 200 m 1
 195 200 l 1
 194 173 202 154 220 142 c 0
 237 131 266 125 305 125 c 0
 352 125 398 133 443 148 c 1
 446 18 l 1
 423 9 396 2 365 -2 c 0
 334 -8 303 -10 272 -10 c 0
 178 -10 110 13 67 60 c 0
 24 106 10 173 23 260 c 0
 36 344 70 410 122 458 c 0
 176 506 241 530 320 530 c 0
 397 530 454 507 490 462 c 0
 525 416 536 352 523 270 c 0
 518 238 513 215 508 200 c 1
246 383 m 0
 233 368 222 346 215 315 c 1
 357 315 l 1
 360 346 356 368 347 383 c 0
 338 398 322 405 300 405 c 0
 278 405 260 398 246 383 c 0
139 760 m 1
 325 760 l 1
 295 570 l 1
 109 570 l 1
 139 760 l 1
404 760 m 1
 590 760 l 1
 560 570 l 1
 374 570 l 1
 404 760 l 1
EndSplineSet
EndChar

StartChar: edotaccent
Encoding: 279 279 252
Width: 588
Flags: W
LayerCount: 2
Fore
SplineSet
508 200 m 1
 195 200 l 1
 194 173 202 154 220 142 c 0
 237 131 266 125 305 125 c 0
 352 125 398 133 443 148 c 1
 446 18 l 1
 423 9 396 2 365 -2 c 0
 334 -8 303 -10 272 -10 c 0
 178 -10 110 13 67 60 c 0
 24 106 10 173 23 260 c 0
 36 344 70 410 122 458 c 0
 176 506 241 530 320 530 c 0
 397 530 454 507 490 462 c 0
 525 416 536 352 523 270 c 0
 518 238 513 215 508 200 c 1
246 383 m 0
 233 368 222 346 215 315 c 1
 357 315 l 1
 360 346 356 368 347 383 c 0
 338 398 322 405 300 405 c 0
 278 405 260 398 246 383 c 0
300 760 m 1
 486 760 l 1
 456 570 l 1
 270 570 l 1
 300 760 l 1
EndSplineSet
EndChar

StartChar: uni1EB9
Encoding: 7865 7865 253
Width: 588
Flags: W
LayerCount: 2
Fore
SplineSet
508 200 m 1
 195 200 l 1
 194 173 202 154 220 142 c 0
 237 131 266 125 305 125 c 0
 352 125 398 133 443 148 c 1
 446 18 l 1
 423 9 396 2 365 -2 c 0
 334 -8 303 -10 272 -10 c 0
 178 -10 110 13 67 60 c 0
 24 106 10 173 23 260 c 0
 36 344 70 410 122 458 c 0
 176 506 241 530 320 530 c 0
 397 530 454 507 490 462 c 0
 525 416 536 352 523 270 c 0
 518 238 513 215 508 200 c 1
246 383 m 0
 233 368 222 346 215 315 c 1
 357 315 l 1
 360 346 356 368 347 383 c 0
 338 398 322 405 300 405 c 0
 278 405 260 398 246 383 c 0
171 -50 m 1
 357 -50 l 1
 327 -240 l 1
 141 -240 l 1
 171 -50 l 1
EndSplineSet
EndChar

StartChar: egrave
Encoding: 232 232 254
Width: 588
Flags: W
LayerCount: 2
Fore
SplineSet
508 200 m 1
 195 200 l 1
 194 173 202 154 220 142 c 0
 237 131 266 125 305 125 c 0
 352 125 398 133 443 148 c 1
 446 18 l 1
 423 9 396 2 365 -2 c 0
 334 -8 303 -10 272 -10 c 0
 178 -10 110 13 67 60 c 0
 24 106 10 173 23 260 c 0
 36 344 70 410 122 458 c 0
 176 506 241 530 320 530 c 0
 397 530 454 507 490 462 c 0
 525 416 536 352 523 270 c 0
 518 238 513 215 508 200 c 1
246 383 m 0
 233 368 222 346 215 315 c 1
 357 315 l 1
 360 346 356 368 347 383 c 0
 338 398 322 405 300 405 c 0
 278 405 260 398 246 383 c 0
181 770 m 1
 407 770 l 1
 432 560 l 1
 266 560 l 1
 181 770 l 1
EndSplineSet
EndChar

StartChar: uni1EBB
Encoding: 7867 7867 255
Width: 588
Flags: W
LayerCount: 2
Fore
SplineSet
508 200 m 1
 195 200 l 1
 194 173 202 154 220 142 c 0
 237 131 266 125 305 125 c 0
 352 125 398 133 443 148 c 1
 446 18 l 1
 423 9 396 2 365 -2 c 0
 334 -8 303 -10 272 -10 c 0
 178 -10 110 13 67 60 c 0
 24 106 10 173 23 260 c 0
 36 344 70 410 122 458 c 0
 176 506 241 530 320 530 c 0
 397 530 454 507 490 462 c 0
 525 416 536 352 523 270 c 0
 518 238 513 215 508 200 c 1
246 383 m 0
 233 368 222 346 215 315 c 1
 357 315 l 1
 360 346 356 368 347 383 c 0
 338 398 322 405 300 405 c 0
 278 405 260 398 246 383 c 0
406 620 m 0
 408 632 406 640 401 644 c 0
 396 648 384 650 367 650 c 0
 345 650 320 648 292 644 c 0
 264 639 237 633 211 625 c 1
 218 760 l 1
 247 766 279 771 314 774 c 0
 349 778 382 780 412 780 c 0
 463 780 501 777 528 772 c 0
 554 766 572 756 580 743 c 0
 590 730 592 710 588 685 c 0
 585 666 580 645 572 622 c 0
 563 599 554 578 544 560 c 1
 387 560 l 1
 397 585 403 605 406 620 c 0
EndSplineSet
EndChar

StartChar: uni0207
Encoding: 519 519 256
Width: 588
Flags: W
LayerCount: 2
Fore
SplineSet
508 200 m 1
 195 200 l 1
 194 173 202 154 220 142 c 0
 237 131 266 125 305 125 c 0
 352 125 398 133 443 148 c 1
 446 18 l 1
 423 9 396 2 365 -2 c 0
 334 -8 303 -10 272 -10 c 0
 178 -10 110 13 67 60 c 0
 24 106 10 173 23 260 c 0
 36 344 70 410 122 458 c 0
 176 506 241 530 320 530 c 0
 397 530 454 507 490 462 c 0
 525 416 536 352 523 270 c 0
 518 238 513 215 508 200 c 1
246 383 m 0
 233 368 222 346 215 315 c 1
 357 315 l 1
 360 346 356 368 347 383 c 0
 338 398 322 405 300 405 c 0
 278 405 260 398 246 383 c 0
482 752 m 0
 516 732 541 706 556 673 c 0
 572 640 577 602 570 560 c 1
 404 560 l 1
 405 591 400 613 390 628 c 0
 379 643 362 650 339 650 c 0
 316 650 296 643 282 628 c 0
 266 613 255 591 247 560 c 1
 80 560 l 1
 87 602 103 640 130 673 c 0
 156 706 189 732 229 752 c 0
 269 770 313 780 360 780 c 0
 407 780 448 770 482 752 c 0
EndSplineSet
EndChar

StartChar: emacron
Encoding: 275 275 257
Width: 588
Flags: W
LayerCount: 2
Fore
SplineSet
508 200 m 1
 195 200 l 1
 194 173 202 154 220 142 c 0
 237 131 266 125 305 125 c 0
 352 125 398 133 443 148 c 1
 446 18 l 1
 423 9 396 2 365 -2 c 0
 334 -8 303 -10 272 -10 c 0
 178 -10 110 13 67 60 c 0
 24 106 10 173 23 260 c 0
 36 344 70 410 122 458 c 0
 176 506 241 530 320 530 c 0
 397 530 454 507 490 462 c 0
 525 416 536 352 523 270 c 0
 518 238 513 215 508 200 c 1
246 383 m 0
 233 368 222 346 215 315 c 1
 357 315 l 1
 360 346 356 368 347 383 c 0
 338 398 322 405 300 405 c 0
 278 405 260 398 246 383 c 0
142 735 m 1
 553 735 l 1
 531 595 l 1
 119 595 l 1
 142 735 l 1
EndSplineSet
EndChar

StartChar: eogonek
Encoding: 281 281 258
Width: 553
Flags: W
LayerCount: 2
Fore
SplineSet
501 -182 m 1
 465 -195 425 -202 380 -202 c 0
 315 -202 267 -190 236 -166 c 0
 205 -142 193 -108 200 -64 c 0
 203 -44 210 -25 221 -7 c 1
 144 1 89 28 56 74 c 0
 22 119 11 181 23 260 c 0
 36 344 70 410 122 458 c 0
 176 506 241 530 320 530 c 0
 397 530 454 507 490 462 c 0
 525 416 536 352 523 270 c 0
 518 238 513 215 508 200 c 1
 195 200 l 1
 194 173 202 154 220 142 c 0
 237 131 266 125 305 125 c 0
 352 125 398 133 443 148 c 1
 446 18 l 1
 398 -1 372 -20 369 -39 c 0
 368 -48 371 -55 378 -60 c 0
 385 -65 397 -67 413 -67 c 0
 427 -67 442 -65 460 -62 c 0
 476 -58 493 -53 508 -47 c 1
 501 -182 l 1
246 383 m 0
 233 368 222 346 215 315 c 1
 357 315 l 1
 360 346 356 368 347 383 c 0
 338 398 322 405 300 405 c 0
 278 405 260 398 246 383 c 0
EndSplineSet
EndChar

StartChar: uni1EBD
Encoding: 7869 7869 259
Width: 588
Flags: W
LayerCount: 2
Fore
SplineSet
508 200 m 1
 195 200 l 1
 194 173 202 154 220 142 c 0
 237 131 266 125 305 125 c 0
 352 125 398 133 443 148 c 1
 446 18 l 1
 423 9 396 2 365 -2 c 0
 334 -8 303 -10 272 -10 c 0
 178 -10 110 13 67 60 c 0
 24 106 10 173 23 260 c 0
 36 344 70 410 122 458 c 0
 176 506 241 530 320 530 c 0
 397 530 454 507 490 462 c 0
 525 416 536 352 523 270 c 0
 518 238 513 215 508 200 c 1
246 383 m 0
 233 368 222 346 215 315 c 1
 357 315 l 1
 360 346 356 368 347 383 c 0
 338 398 322 405 300 405 c 0
 278 405 260 398 246 383 c 0
290 602 m 0
 268 617 251 625 238 625 c 0
 229 625 223 621 218 612 c 0
 214 604 210 587 206 560 c 1
 61 560 l 1
 73 635 92 690 118 726 c 0
 143 762 177 780 218 780 c 0
 260 780 306 763 355 728 c 0
 377 713 394 705 407 705 c 0
 416 705 422 709 426 718 c 0
 431 726 435 743 439 770 c 1
 584 770 l 1
 572 695 553 640 528 604 c 0
 503 568 469 550 427 550 c 0
 385 550 339 567 290 602 c 0
EndSplineSet
EndChar

StartChar: uni0259
Encoding: 601 601 260
Width: 550
Flags: W
LayerCount: 2
Fore
SplineSet
476 460 m 0
 520 414 534 347 520 260 c 0
 507 176 474 110 421 62 c 0
 368 14 302 -10 223 -10 c 0
 146 -10 89 13 54 58 c 0
 19 104 7 168 20 250 c 0
 25 282 30 305 35 320 c 1
 348 320 l 1
 349 347 341 366 324 378 c 0
 307 389 278 395 239 395 c 0
 192 395 146 387 100 372 c 1
 98 502 l 1
 121 511 148 518 178 522 c 0
 210 528 240 530 271 530 c 0
 365 530 434 507 476 460 c 0
297 137 m 0
 311 152 322 174 329 205 c 1
 186 205 l 1
 183 174 187 152 196 137 c 0
 205 122 221 115 243 115 c 0
 265 115 283 122 297 137 c 0
EndSplineSet
EndChar

StartChar: f
Encoding: 102 102 261
Width: 480
Flags: W
LayerCount: 2
Fore
SplineSet
32 380 m 1
 54 520 l 1
 168 520 l 1
 171 540 l 2
 182 611 209 666 250 704 c 0
 291 741 345 760 412 760 c 0
 450 760 492 755 537 745 c 1
 491 605 l 1
 467 615 444 620 422 620 c 0
 402 620 387 614 378 604 c 0
 369 592 362 571 357 540 c 2
 354 520 l 1
 492 520 l 1
 469 380 l 1
 332 380 l 1
 271 0 l 1
 85 0 l 1
 146 380 l 1
 32 380 l 1
EndSplineSet
EndChar

StartChar: g
Encoding: 103 103 262
Width: 598
Flags: W
LayerCount: 2
Fore
SplineSet
582 520 m 1
 509 60 l 2
 494 -32 458 -103 400 -154 c 0
 343 -205 269 -230 179 -230 c 0
 112 -230 43 -217 -30 -190 c 1
 23 -60 l 1
 87 -80 137 -90 174 -90 c 0
 259 -90 310 -40 325 60 c 1
 323 60 l 1
 298 36 274 18 248 7 c 0
 224 -4 197 -10 168 -10 c 0
 108 -10 66 13 42 60 c 0
 17 106 12 173 26 260 c 0
 40 347 66 414 105 460 c 0
 144 507 193 530 253 530 c 0
 282 530 308 524 330 513 c 0
 354 502 375 484 394 460 c 1
 396 460 l 1
 407 520 l 1
 582 520 l 1
323 169 m 0
 339 188 350 215 355 250 c 2
 358 270 l 2
 363 305 361 332 352 351 c 0
 342 370 325 380 301 380 c 0
 276 380 256 370 240 350 c 0
 224 329 213 299 207 260 c 0
 201 221 203 191 212 170 c 0
 221 150 238 140 263 140 c 0
 287 140 307 150 323 169 c 0
EndSplineSet
EndChar

StartChar: gbreve
Encoding: 287 287 263
Width: 638
Flags: W
LayerCount: 2
Fore
SplineSet
582 520 m 1
 509 60 l 2
 494 -32 458 -103 400 -154 c 0
 343 -205 269 -230 179 -230 c 0
 112 -230 43 -217 -30 -190 c 1
 23 -60 l 1
 87 -80 137 -90 174 -90 c 0
 259 -90 310 -40 325 60 c 1
 323 60 l 1
 298 36 274 18 248 7 c 0
 224 -4 197 -10 168 -10 c 0
 108 -10 66 13 42 60 c 0
 17 106 12 173 26 260 c 0
 40 347 66 414 105 460 c 0
 144 507 193 530 253 530 c 0
 282 530 308 524 330 513 c 0
 354 502 375 484 394 460 c 1
 396 460 l 1
 407 520 l 1
 582 520 l 1
323 169 m 0
 339 188 350 215 355 250 c 2
 358 270 l 2
 363 305 361 332 352 351 c 0
 342 370 325 380 301 380 c 0
 276 380 256 370 240 350 c 0
 224 329 213 299 207 260 c 0
 201 221 203 191 212 170 c 0
 221 150 238 140 263 140 c 0
 287 140 307 150 323 169 c 0
222 578 m 0
 187 598 162 624 146 657 c 0
 131 690 126 728 133 770 c 1
 300 770 l 1
 299 739 303 717 314 702 c 0
 324 687 341 680 364 680 c 0
 387 680 406 687 421 702 c 0
 436 717 448 739 457 770 c 1
 623 770 l 1
 616 728 600 690 574 657 c 0
 548 624 515 598 474 578 c 0
 434 560 391 550 344 550 c 0
 297 550 256 560 222 578 c 0
EndSplineSet
EndChar

StartChar: gcaron
Encoding: 487 487 264
Width: 638
Flags: W
LayerCount: 2
Fore
SplineSet
582 520 m 1
 509 60 l 2
 494 -32 458 -103 400 -154 c 0
 343 -205 269 -230 179 -230 c 0
 112 -230 43 -217 -30 -190 c 1
 23 -60 l 1
 87 -80 137 -90 174 -90 c 0
 259 -90 310 -40 325 60 c 1
 323 60 l 1
 298 36 274 18 248 7 c 0
 224 -4 197 -10 168 -10 c 0
 108 -10 66 13 42 60 c 0
 17 106 12 173 26 260 c 0
 40 347 66 414 105 460 c 0
 144 507 193 530 253 530 c 0
 282 530 308 524 330 513 c 0
 354 502 375 484 394 460 c 1
 396 460 l 1
 407 520 l 1
 582 520 l 1
323 169 m 0
 339 188 350 215 355 250 c 2
 358 270 l 2
 363 305 361 332 352 351 c 0
 342 370 325 380 301 380 c 0
 276 380 256 370 240 350 c 0
 224 329 213 299 207 260 c 0
 201 221 203 191 212 170 c 0
 221 150 238 140 263 140 c 0
 287 140 307 150 323 169 c 0
118 770 m 1
 324 770 l 1
 359 630 l 1
 361 630 l 1
 441 770 l 1
 647 770 l 1
 496 560 l 1
 202 560 l 1
 118 770 l 1
EndSplineSet
EndChar

StartChar: gcircumflex
Encoding: 285 285 265
Width: 638
Flags: W
LayerCount: 2
Fore
SplineSet
582 520 m 1
 509 60 l 2
 494 -32 458 -103 400 -154 c 0
 343 -205 269 -230 179 -230 c 0
 112 -230 43 -217 -30 -190 c 1
 23 -60 l 1
 87 -80 137 -90 174 -90 c 0
 259 -90 310 -40 325 60 c 1
 323 60 l 1
 298 36 274 18 248 7 c 0
 224 -4 197 -10 168 -10 c 0
 108 -10 66 13 42 60 c 0
 17 106 12 173 26 260 c 0
 40 347 66 414 105 460 c 0
 144 507 193 530 253 530 c 0
 282 530 308 524 330 513 c 0
 354 502 375 484 394 460 c 1
 396 460 l 1
 407 520 l 1
 582 520 l 1
323 169 m 0
 339 188 350 215 355 250 c 2
 358 270 l 2
 363 305 361 332 352 351 c 0
 342 370 325 380 301 380 c 0
 276 380 256 370 240 350 c 0
 224 329 213 299 207 260 c 0
 201 221 203 191 212 170 c 0
 221 150 238 140 263 140 c 0
 287 140 307 150 323 169 c 0
245 770 m 1
 539 770 l 1
 624 560 l 1
 418 560 l 1
 382 700 l 1
 380 700 l 1
 300 560 l 1
 95 560 l 1
 245 770 l 1
EndSplineSet
EndChar

StartChar: uni0123
Encoding: 291 291 266
Width: 638
Flags: W
LayerCount: 2
Fore
SplineSet
582 520 m 1
 509 60 l 2
 494 -32 458 -103 400 -154 c 0
 343 -205 269 -230 179 -230 c 0
 112 -230 43 -217 -30 -190 c 1
 23 -60 l 1
 87 -80 137 -90 174 -90 c 0
 259 -90 310 -40 325 60 c 1
 323 60 l 1
 298 36 274 18 248 7 c 0
 224 -4 197 -10 168 -10 c 0
 108 -10 66 13 42 60 c 0
 17 106 12 173 26 260 c 0
 40 347 66 414 105 460 c 0
 144 507 193 530 253 530 c 0
 282 530 308 524 330 513 c 0
 354 502 375 484 394 460 c 1
 396 460 l 1
 407 520 l 1
 582 520 l 1
323 169 m 0
 339 188 350 215 355 250 c 2
 358 270 l 2
 363 305 361 332 352 351 c 0
 342 370 325 380 301 380 c 0
 276 380 256 370 240 350 c 0
 224 329 213 299 207 260 c 0
 201 221 203 191 212 170 c 0
 221 150 238 140 263 140 c 0
 287 140 307 150 323 169 c 0
400 770 m 1
 566 770 l 1
 474 560 l 1
 249 560 l 1
 400 770 l 1
EndSplineSet
EndChar

StartChar: gdotaccent
Encoding: 289 289 267
Width: 638
Flags: W
LayerCount: 2
Fore
SplineSet
582 520 m 1
 509 60 l 2
 494 -32 458 -103 400 -154 c 0
 343 -205 269 -230 179 -230 c 0
 112 -230 43 -217 -30 -190 c 1
 23 -60 l 1
 87 -80 137 -90 174 -90 c 0
 259 -90 310 -40 325 60 c 1
 323 60 l 1
 298 36 274 18 248 7 c 0
 224 -4 197 -10 168 -10 c 0
 108 -10 66 13 42 60 c 0
 17 106 12 173 26 260 c 0
 40 347 66 414 105 460 c 0
 144 507 193 530 253 530 c 0
 282 530 308 524 330 513 c 0
 354 502 375 484 394 460 c 1
 396 460 l 1
 407 520 l 1
 582 520 l 1
323 169 m 0
 339 188 350 215 355 250 c 2
 358 270 l 2
 363 305 361 332 352 351 c 0
 342 370 325 380 301 380 c 0
 276 380 256 370 240 350 c 0
 224 329 213 299 207 260 c 0
 201 221 203 191 212 170 c 0
 221 150 238 140 263 140 c 0
 287 140 307 150 323 169 c 0
320 760 m 1
 506 760 l 1
 476 570 l 1
 290 570 l 1
 320 760 l 1
EndSplineSet
EndChar

StartChar: h
Encoding: 104 104 268
Width: 591
Flags: W
LayerCount: 2
Fore
SplineSet
536 480 m 0
 557 447 561 393 549 320 c 2
 499 0 l 1
 315 0 l 1
 359 280 l 2
 364 313 364 336 358 350 c 0
 352 363 340 370 322 370 c 0
 302 370 284 364 268 350 c 0
 253 338 243 321 240 300 c 2
 193 0 l 1
 9 0 l 1
 127 750 l 1
 312 750 l 1
 266 460 l 1
 268 460 l 1
 293 485 318 503 342 514 c 0
 365 525 392 530 422 530 c 0
 478 530 516 513 536 480 c 0
EndSplineSet
EndChar

StartChar: hbar
Encoding: 295 295 269
Width: 652
Flags: W
LayerCount: 2
Fore
SplineSet
597 480 m 0
 617 447 621 393 610 320 c 2
 559 0 l 1
 375 0 l 1
 419 280 l 2
 424 313 424 336 418 350 c 0
 413 363 401 370 382 370 c 0
 362 370 344 364 329 350 c 0
 314 338 304 321 301 300 c 2
 253 0 l 1
 69 0 l 1
 157 555 l 1
 62 555 l 1
 84 695 l 1
 179 695 l 1
 188 750 l 1
 372 750 l 1
 363 695 l 1
 481 695 l 1
 459 555 l 1
 341 555 l 1
 326 460 l 1
 328 460 l 1
 353 485 378 503 402 514 c 0
 425 525 452 530 483 530 c 0
 539 530 577 513 597 480 c 0
EndSplineSet
EndChar

StartChar: hcircumflex
Encoding: 293 293 270
Width: 632
Flags: W
LayerCount: 2
Fore
SplineSet
536 480 m 0
 557 447 561 393 549 320 c 2
 499 0 l 1
 315 0 l 1
 359 280 l 2
 364 313 364 336 358 350 c 0
 352 363 340 370 322 370 c 0
 302 370 284 364 268 350 c 0
 253 338 243 321 240 300 c 2
 193 0 l 1
 9 0 l 1
 127 750 l 1
 312 750 l 1
 266 460 l 1
 268 460 l 1
 293 485 318 503 342 514 c 0
 365 525 392 530 422 530 c 0
 478 530 516 513 536 480 c 0
271 1000 m 1
 565 1000 l 1
 650 790 l 1
 444 790 l 1
 408 930 l 1
 406 930 l 1
 326 790 l 1
 121 790 l 1
 271 1000 l 1
EndSplineSet
EndChar

StartChar: i
Encoding: 105 105 271
Width: 306
Flags: W
LayerCount: 2
Fore
SplineSet
133 750 m 1
 321 750 l 1
 296 590 l 1
 108 590 l 1
 133 750 l 1
97 520 m 1
 285 520 l 1
 202 0 l 1
 14 0 l 1
 97 520 l 1
EndSplineSet
EndChar

StartChar: dotlessi
Encoding: 305 305 272
Width: 306
Flags: W
LayerCount: 2
Fore
SplineSet
97 520 m 1
 285 520 l 1
 202 0 l 1
 14 0 l 1
 97 520 l 1
EndSplineSet
EndChar

StartChar: iacute
Encoding: 237 237 273
Width: 330
Flags: W
LayerCount: 2
Fore
SplineSet
97 520 m 1
 285 520 l 1
 202 0 l 1
 14 0 l 1
 97 520 l 1
290 560 m 1
 123 560 l 1
 215 770 l 1
 441 770 l 1
 290 560 l 1
EndSplineSet
EndChar

StartChar: ibreve
Encoding: 301 301 274
Width: 330
Flags: W
LayerCount: 2
Fore
SplineSet
97 520 m 1
 285 520 l 1
 202 0 l 1
 14 0 l 1
 97 520 l 1
66 578 m 0
 32 598 7 624 -8 657 c 0
 -24 690 -29 728 -22 770 c 1
 145 770 l 1
 144 739 148 717 158 702 c 0
 169 687 186 680 209 680 c 0
 232 680 251 687 266 702 c 0
 281 717 293 739 302 770 c 1
 468 770 l 1
 461 728 445 690 419 657 c 0
 393 624 360 598 320 578 c 0
 279 560 236 550 189 550 c 0
 142 550 101 560 66 578 c 0
EndSplineSet
EndChar

StartChar: icircumflex
Encoding: 238 238 275
Width: 330
Flags: W
LayerCount: 2
Fore
SplineSet
97 520 m 1
 285 520 l 1
 202 0 l 1
 14 0 l 1
 97 520 l 1
90 770 m 1
 384 770 l 1
 469 560 l 1
 263 560 l 1
 227 700 l 1
 225 700 l 1
 145 560 l 1
 -60 560 l 1
 90 770 l 1
EndSplineSet
EndChar

StartChar: uni0209
Encoding: 521 521 276
Width: 330
Flags: W
LayerCount: 2
Fore
SplineSet
97 520 m 1
 285 520 l 1
 202 0 l 1
 14 0 l 1
 97 520 l 1
-98 770 m 1
 128 770 l 1
 153 560 l 1
 -13 560 l 1
 -98 770 l 1
167 770 m 1
 392 770 l 1
 418 560 l 1
 251 560 l 1
 167 770 l 1
EndSplineSet
EndChar

StartChar: idieresis
Encoding: 239 239 277
Width: 330
Flags: W
LayerCount: 2
Fore
SplineSet
97 520 m 1
 285 520 l 1
 202 0 l 1
 14 0 l 1
 97 520 l 1
4 760 m 1
 190 760 l 1
 160 570 l 1
 -26 570 l 1
 4 760 l 1
269 760 m 1
 455 760 l 1
 425 570 l 1
 239 570 l 1
 269 760 l 1
EndSplineSet
EndChar

StartChar: i.loclTRK
Encoding: 1114113 -1 278
Width: 330
Flags: W
LayerCount: 2
Fore
SplineSet
97 520 m 1
 285 520 l 1
 202 0 l 1
 14 0 l 1
 97 520 l 1
165 760 m 1
 351 760 l 1
 321 570 l 1
 135 570 l 1
 165 760 l 1
EndSplineSet
EndChar

StartChar: uni1ECB
Encoding: 7883 7883 279
Width: 330
Flags: W
LayerCount: 2
Fore
SplineSet
133 750 m 1
 321 750 l 1
 296 590 l 1
 108 590 l 1
 133 750 l 1
97 520 m 1
 285 520 l 1
 202 0 l 1
 14 0 l 1
 97 520 l 1
36 -50 m 1
 222 -50 l 1
 192 -240 l 1
 6 -240 l 1
 36 -50 l 1
EndSplineSet
EndChar

StartChar: igrave
Encoding: 236 236 280
Width: 330
Flags: W
LayerCount: 2
Fore
SplineSet
97 520 m 1
 285 520 l 1
 202 0 l 1
 14 0 l 1
 97 520 l 1
46 770 m 1
 272 770 l 1
 297 560 l 1
 131 560 l 1
 46 770 l 1
EndSplineSet
EndChar

StartChar: uni1EC9
Encoding: 7881 7881 281
Width: 330
Flags: W
LayerCount: 2
Fore
SplineSet
97 520 m 1
 285 520 l 1
 202 0 l 1
 14 0 l 1
 97 520 l 1
271 620 m 0
 273 632 271 640 266 644 c 0
 261 648 249 650 232 650 c 0
 210 650 185 648 157 644 c 0
 129 639 102 633 76 625 c 1
 83 760 l 1
 112 766 144 771 179 774 c 0
 214 778 247 780 277 780 c 0
 328 780 366 777 392 772 c 0
 419 766 436 756 446 743 c 0
 454 730 457 710 453 685 c 0
 450 666 445 645 436 622 c 0
 428 599 419 578 409 560 c 1
 252 560 l 1
 262 585 268 605 271 620 c 0
EndSplineSet
EndChar

StartChar: uni020B
Encoding: 523 523 282
Width: 330
Flags: W
LayerCount: 2
Fore
SplineSet
97 520 m 1
 285 520 l 1
 202 0 l 1
 14 0 l 1
 97 520 l 1
347 752 m 0
 381 732 406 706 422 673 c 0
 437 640 442 602 435 560 c 1
 269 560 l 1
 270 591 265 613 254 628 c 0
 244 643 227 650 204 650 c 0
 181 650 162 643 146 628 c 0
 132 613 120 591 112 560 c 1
 -55 560 l 1
 -48 602 -32 640 -6 673 c 0
 21 706 54 732 94 752 c 0
 134 770 178 780 225 780 c 0
 272 780 313 770 347 752 c 0
EndSplineSet
EndChar

StartChar: imacron
Encoding: 299 299 283
Width: 330
Flags: W
LayerCount: 2
Fore
SplineSet
97 520 m 1
 285 520 l 1
 202 0 l 1
 14 0 l 1
 97 520 l 1
7 735 m 1
 418 735 l 1
 396 595 l 1
 -16 595 l 1
 7 735 l 1
EndSplineSet
EndChar

StartChar: iogonek
Encoding: 303 303 284
Width: 311
Flags: W
LayerCount: 2
Fore
SplineSet
319 760 m 1
 289 570 l 1
 111 570 l 1
 141 760 l 1
 319 760 l 1
259 -200 m 1
 223 -213 183 -220 138 -220 c 0
 73 -220 25 -208 -6 -184 c 0
 -37 -160 -50 -126 -43 -82 c 0
 -40 -63 -34 -45 -24 -28 c 0
 -13 -11 1 7 20 25 c 1
 98 520 l 1
 286 520 l 1
 204 0 l 1
 156 -19 130 -38 127 -57 c 0
 126 -66 129 -73 136 -78 c 0
 143 -83 155 -85 171 -85 c 0
 185 -85 200 -83 218 -80 c 0
 234 -76 251 -71 266 -65 c 1
 259 -200 l 1
EndSplineSet
EndChar

StartChar: itilde
Encoding: 297 297 285
Width: 330
Flags: W
LayerCount: 2
Fore
SplineSet
97 520 m 1
 285 520 l 1
 202 0 l 1
 14 0 l 1
 97 520 l 1
155 602 m 0
 133 617 116 625 103 625 c 0
 94 625 88 621 84 612 c 0
 79 604 75 587 71 560 c 1
 -74 560 l 1
 -62 635 -43 690 -18 726 c 0
 8 762 42 780 83 780 c 0
 125 780 171 763 220 728 c 0
 242 713 259 705 272 705 c 0
 281 705 287 709 292 718 c 0
 296 726 300 743 304 770 c 1
 449 770 l 1
 437 695 418 640 393 604 c 0
 368 568 334 550 292 550 c 0
 250 550 204 567 155 602 c 0
EndSplineSet
EndChar

StartChar: j
Encoding: 106 106 286
Width: 354
Flags: W
LayerCount: 2
Fore
SplineSet
181 750 m 1
 369 750 l 1
 343 590 l 1
 155 590 l 1
 181 750 l 1
-3 -77 m 0
 19 -72 35 -61 44 -44 c 0
 54 -28 62 0 68 40 c 2
 144 520 l 1
 332 520 l 1
 256 40 l 2
 245 -31 226 -85 200 -124 c 0
 173 -162 134 -189 84 -206 c 0
 32 -222 -38 -230 -127 -230 c 1
 -113 -85 l 1
 -62 -85 -25 -82 -3 -77 c 0
EndSplineSet
EndChar

StartChar: uni0237
Encoding: 567 567 287
Width: 354
Flags: W
LayerCount: 2
Fore
SplineSet
-3 -77 m 0
 19 -72 35 -61 44 -44 c 0
 54 -28 62 0 68 40 c 2
 144 520 l 1
 332 520 l 1
 256 40 l 2
 245 -31 226 -85 200 -124 c 0
 173 -162 134 -189 84 -206 c 0
 32 -222 -38 -230 -127 -230 c 1
 -113 -85 l 1
 -62 -85 -25 -82 -3 -77 c 0
EndSplineSet
EndChar

StartChar: jcircumflex
Encoding: 309 309 288
Width: 375
Flags: W
LayerCount: 2
Fore
SplineSet
-3 -77 m 0
 19 -72 35 -61 44 -44 c 0
 54 -28 62 0 68 40 c 2
 144 520 l 1
 332 520 l 1
 256 40 l 2
 245 -31 226 -85 200 -124 c 0
 173 -162 134 -189 84 -206 c 0
 32 -222 -38 -230 -127 -230 c 1
 -113 -85 l 1
 -62 -85 -25 -82 -3 -77 c 0
113 770 m 1
 407 770 l 1
 492 560 l 1
 286 560 l 1
 250 700 l 1
 248 700 l 1
 168 560 l 1
 -37 560 l 1
 113 770 l 1
EndSplineSet
EndChar

StartChar: k
Encoding: 107 107 289
Width: 594
Flags: W
LayerCount: 2
Fore
SplineSet
127 750 m 1
 312 750 l 1
 244 325 l 1
 246 325 l 1
 403 520 l 1
 616 520 l 1
 391 270 l 1
 539 0 l 1
 325 0 l 1
 229 215 l 1
 227 215 l 1
 193 0 l 1
 9 0 l 1
 127 750 l 1
EndSplineSet
EndChar

StartChar: uni0137
Encoding: 311 311 290
Width: 631
Flags: W
LayerCount: 2
Fore
SplineSet
127 750 m 1
 312 750 l 1
 244 325 l 1
 246 325 l 1
 403 520 l 1
 616 520 l 1
 391 270 l 1
 539 0 l 1
 325 0 l 1
 229 215 l 1
 227 215 l 1
 193 0 l 1
 9 0 l 1
 127 750 l 1
185 -250 m 1
 19 -250 l 1
 111 -40 l 1
 336 -40 l 1
 185 -250 l 1
EndSplineSet
EndChar

StartChar: kgreenlandic
Encoding: 312 312 291
Width: 594
Flags: W
LayerCount: 2
Fore
SplineSet
91 520 m 1
 275 520 l 1
 244 325 l 1
 246 325 l 1
 403 520 l 1
 616 520 l 1
 391 270 l 1
 539 0 l 1
 325 0 l 1
 229 215 l 1
 227 215 l 1
 193 0 l 1
 9 0 l 1
 91 520 l 1
EndSplineSet
EndChar

StartChar: l
Encoding: 108 108 292
Width: 390
Flags: W
LayerCount: 2
Fore
SplineSet
133 750 m 1
 321 750 l 1
 236 210 l 2
 231 178 231 157 236 146 c 0
 241 135 253 130 271 130 c 0
 299 130 328 135 359 145 c 1
 357 10 l 1
 308 -3 256 -10 201 -10 c 0
 136 -10 91 5 66 36 c 0
 41 66 33 114 43 180 c 2
 133 750 l 1
EndSplineSet
EndChar

StartChar: lacute
Encoding: 314 314 293
Width: 390
Flags: W
LayerCount: 2
Fore
SplineSet
133 750 m 1
 321 750 l 1
 236 210 l 2
 231 178 231 157 236 146 c 0
 241 135 253 130 271 130 c 0
 299 130 328 135 359 145 c 1
 357 10 l 1
 308 -3 256 -10 201 -10 c 0
 136 -10 91 5 66 36 c 0
 41 66 33 114 43 180 c 2
 133 750 l 1
326 790 m 1
 159 790 l 1
 251 1000 l 1
 477 1000 l 1
 326 790 l 1
EndSplineSet
EndChar

StartChar: lcaron
Encoding: 318 318 294
Width: 571
Flags: W
LayerCount: 2
Fore
SplineSet
133 750 m 1
 321 750 l 1
 236 210 l 2
 231 178 231 157 236 146 c 0
 241 135 253 130 271 130 c 0
 299 130 328 135 359 145 c 1
 357 10 l 1
 308 -3 256 -10 201 -10 c 0
 136 -10 91 5 66 36 c 0
 41 66 33 114 43 180 c 2
 133 750 l 1
428 770 m 1
 633 770 l 1
 468 470 l 1
 321 470 l 1
 428 770 l 1
EndSplineSet
EndChar

StartChar: uni013C
Encoding: 316 316 295
Width: 390
Flags: W
LayerCount: 2
Fore
SplineSet
133 750 m 1
 321 750 l 1
 236 210 l 2
 231 178 231 157 236 146 c 0
 241 135 253 130 271 130 c 0
 299 130 328 135 359 145 c 1
 357 10 l 1
 308 -3 256 -10 201 -10 c 0
 136 -10 91 5 66 36 c 0
 41 66 33 114 43 180 c 2
 133 750 l 1
130 -250 m 1
 -36 -250 l 1
 56 -40 l 1
 281 -40 l 1
 130 -250 l 1
EndSplineSet
EndChar

StartChar: ldot
Encoding: 320 320 296
Width: 570
Flags: W
LayerCount: 2
Fore
SplineSet
133 750 m 1
 321 750 l 1
 236 210 l 2
 231 178 231 157 236 146 c 0
 241 135 253 130 271 130 c 0
 299 130 328 135 359 145 c 1
 357 10 l 1
 308 -3 256 -10 201 -10 c 0
 136 -10 91 5 66 36 c 0
 41 66 33 114 43 180 c 2
 133 750 l 1
346 475 m 1
 542 475 l 1
 511 275 l 1
 315 275 l 1
 346 475 l 1
EndSplineSet
EndChar

StartChar: uni01C9
Encoding: 457 457 297
Width: 699
Flags: W
LayerCount: 2
Fore
SplineSet
133 750 m 1
 321 750 l 1
 236 210 l 2
 231 178 231 157 236 146 c 0
 241 135 253 130 271 130 c 0
 299 130 328 135 359 145 c 1
 357 10 l 1
 308 -3 256 -10 201 -10 c 0
 136 -10 91 5 66 36 c 0
 41 66 33 114 43 180 c 2
 133 750 l 1
505 750 m 1
 693 750 l 1
 667 590 l 1
 479 590 l 1
 505 750 l 1
321 -77 m 0
 343 -72 359 -61 368 -44 c 0
 378 -28 386 0 392 40 c 2
 468 520 l 1
 656 520 l 1
 580 40 l 2
 569 -31 550 -85 524 -124 c 0
 497 -162 458 -189 408 -206 c 0
 356 -222 286 -230 197 -230 c 1
 211 -85 l 1
 262 -85 299 -82 321 -77 c 0
EndSplineSet
EndChar

StartChar: lslash
Encoding: 322 322 298
Width: 508
Flags: W
LayerCount: 2
Fore
SplineSet
519 393 m 1
 46 207 l 1
 15 337 l 1
 488 523 l 1
 519 393 l 1
234 750 m 1
 422 750 l 1
 337 210 l 2
 332 178 332 157 337 146 c 0
 342 135 354 130 372 130 c 0
 400 130 429 135 460 145 c 1
 458 10 l 1
 409 -3 357 -10 302 -10 c 0
 237 -10 192 5 167 36 c 0
 142 66 134 114 144 180 c 2
 234 750 l 1
EndSplineSet
EndChar

StartChar: m
Encoding: 109 109 299
Width: 825
Flags: W
LayerCount: 2
Fore
SplineSet
775 480 m 0
 792 447 795 393 783 320 c 2
 733 0 l 1
 552 0 l 1
 596 280 l 2
 601 313 602 336 599 350 c 0
 596 363 587 370 573 370 c 0
 558 370 544 363 532 350 c 0
 519 337 511 320 508 300 c 2
 461 0 l 1
 280 0 l 1
 325 280 l 2
 330 313 331 336 328 350 c 0
 324 363 315 370 301 370 c 0
 286 370 272 363 260 350 c 0
 247 337 240 320 237 300 c 2
 189 0 l 1
 9 0 l 1
 91 520 l 1
 262 520 l 1
 255 460 l 1
 256 460 l 1
 279 485 303 502 326 514 c 0
 349 524 375 530 402 530 c 0
 461 530 497 507 511 460 c 1
 513 460 l 1
 539 485 565 502 590 514 c 0
 615 524 643 530 674 530 c 0
 724 530 758 513 775 480 c 0
EndSplineSet
EndChar

StartChar: n
Encoding: 110 110 300
Width: 591
Flags: W
LayerCount: 2
Fore
SplineSet
536 480 m 0
 557 447 561 393 549 320 c 2
 499 0 l 1
 315 0 l 1
 359 280 l 2
 364 313 364 336 358 350 c 0
 352 363 340 370 322 370 c 0
 302 370 284 364 268 350 c 0
 253 338 243 321 240 300 c 2
 193 0 l 1
 9 0 l 1
 91 520 l 1
 266 520 l 1
 258 460 l 1
 260 460 l 1
 286 485 312 502 338 514 c 0
 363 524 391 530 422 530 c 0
 478 530 516 513 536 480 c 0
EndSplineSet
EndChar

StartChar: nacute
Encoding: 324 324 301
Width: 632
Flags: W
LayerCount: 2
Fore
SplineSet
536 480 m 0
 557 447 561 393 549 320 c 2
 499 0 l 1
 315 0 l 1
 359 280 l 2
 364 313 364 336 358 350 c 0
 352 363 340 370 322 370 c 0
 302 370 284 364 268 350 c 0
 253 338 243 321 240 300 c 2
 193 0 l 1
 9 0 l 1
 91 520 l 1
 266 520 l 1
 258 460 l 1
 260 460 l 1
 286 485 312 502 338 514 c 0
 363 524 391 530 422 530 c 0
 478 530 516 513 536 480 c 0
441 560 m 1
 274 560 l 1
 366 770 l 1
 592 770 l 1
 441 560 l 1
EndSplineSet
EndChar

StartChar: ncaron
Encoding: 328 328 302
Width: 632
Flags: W
LayerCount: 2
Fore
SplineSet
536 480 m 0
 557 447 561 393 549 320 c 2
 499 0 l 1
 315 0 l 1
 359 280 l 2
 364 313 364 336 358 350 c 0
 352 363 340 370 322 370 c 0
 302 370 284 364 268 350 c 0
 253 338 243 321 240 300 c 2
 193 0 l 1
 9 0 l 1
 91 520 l 1
 266 520 l 1
 258 460 l 1
 260 460 l 1
 286 485 312 502 338 514 c 0
 363 524 391 530 422 530 c 0
 478 530 516 513 536 480 c 0
114 770 m 1
 320 770 l 1
 355 630 l 1
 357 630 l 1
 437 770 l 1
 643 770 l 1
 492 560 l 1
 198 560 l 1
 114 770 l 1
EndSplineSet
EndChar

StartChar: uni0146
Encoding: 326 326 303
Width: 632
Flags: W
LayerCount: 2
Fore
SplineSet
536 480 m 0
 557 447 561 393 549 320 c 2
 499 0 l 1
 315 0 l 1
 359 280 l 2
 364 313 364 336 358 350 c 0
 352 363 340 370 322 370 c 0
 302 370 284 364 268 350 c 0
 253 338 243 321 240 300 c 2
 193 0 l 1
 9 0 l 1
 91 520 l 1
 266 520 l 1
 258 460 l 1
 260 460 l 1
 286 485 312 502 338 514 c 0
 363 524 391 530 422 530 c 0
 478 530 516 513 536 480 c 0
201 -250 m 1
 35 -250 l 1
 127 -40 l 1
 352 -40 l 1
 201 -250 l 1
EndSplineSet
EndChar

StartChar: eng
Encoding: 331 331 304
Width: 591
Flags: W
LayerCount: 2
Fore
SplineSet
536 480 m 0
 557 447 561 393 549 320 c 2
 499 0 l 2
 490 -57 476 -102 457 -134 c 0
 438 -168 414 -192 382 -206 c 0
 352 -222 311 -229 262 -229 c 0
 221 -229 176 -224 127 -214 c 1
 170 -59 l 1
 197 -66 222 -70 247 -70 c 0
 268 -70 284 -64 294 -54 c 0
 304 -42 311 -21 316 10 c 2
 359 280 l 2
 364 313 364 336 358 350 c 0
 352 363 340 370 322 370 c 0
 302 370 284 364 268 350 c 0
 253 338 243 321 240 300 c 2
 193 0 l 1
 9 0 l 1
 91 520 l 1
 266 520 l 1
 258 460 l 1
 260 460 l 1
 286 485 312 502 338 514 c 0
 363 524 391 530 422 530 c 0
 478 530 516 513 536 480 c 0
EndSplineSet
EndChar

StartChar: uni01CC
Encoding: 460 460 305
Width: 1007
Flags: W
LayerCount: 2
Fore
SplineSet
536 480 m 0
 557 447 561 393 549 320 c 2
 499 0 l 1
 315 0 l 1
 359 280 l 2
 364 313 364 336 358 350 c 0
 352 363 340 370 322 370 c 0
 302 370 284 364 268 350 c 0
 253 338 243 321 240 300 c 2
 193 0 l 1
 9 0 l 1
 91 520 l 1
 266 520 l 1
 258 460 l 1
 260 460 l 1
 286 485 312 502 338 514 c 0
 363 524 391 530 422 530 c 0
 478 530 516 513 536 480 c 0
813 750 m 1
 1001 750 l 1
 975 590 l 1
 787 590 l 1
 813 750 l 1
629 -77 m 0
 651 -72 667 -61 676 -44 c 0
 686 -28 694 0 700 40 c 2
 776 520 l 1
 964 520 l 1
 888 40 l 2
 877 -31 858 -85 832 -124 c 0
 805 -162 766 -189 716 -206 c 0
 664 -222 594 -230 505 -230 c 1
 519 -85 l 1
 570 -85 607 -82 629 -77 c 0
EndSplineSet
EndChar

StartChar: ntilde
Encoding: 241 241 306
Width: 632
Flags: W
LayerCount: 2
Fore
SplineSet
536 480 m 0
 557 447 561 393 549 320 c 2
 499 0 l 1
 315 0 l 1
 359 280 l 2
 364 313 364 336 358 350 c 0
 352 363 340 370 322 370 c 0
 302 370 284 364 268 350 c 0
 253 338 243 321 240 300 c 2
 193 0 l 1
 9 0 l 1
 91 520 l 1
 266 520 l 1
 258 460 l 1
 260 460 l 1
 286 485 312 502 338 514 c 0
 363 524 391 530 422 530 c 0
 478 530 516 513 536 480 c 0
306 602 m 0
 284 617 267 625 254 625 c 0
 245 625 239 621 234 612 c 0
 230 604 226 587 222 560 c 1
 77 560 l 1
 89 635 108 690 134 726 c 0
 159 762 193 780 234 780 c 0
 276 780 322 763 371 728 c 0
 393 713 410 705 423 705 c 0
 432 705 438 709 442 718 c 0
 447 726 451 743 455 770 c 1
 600 770 l 1
 588 695 569 640 544 604 c 0
 519 568 485 550 443 550 c 0
 401 550 355 567 306 602 c 0
EndSplineSet
EndChar

StartChar: o
Encoding: 111 111 307
Width: 573
Flags: W
LayerCount: 2
Fore
SplineSet
58 59 m 0
 21 105 10 172 23 260 c 0
 37 348 70 415 121 461 c 0
 172 507 241 530 326 530 c 0
 410 530 470 507 508 461 c 0
 544 415 556 348 542 260 c 0
 528 172 495 105 444 59 c 0
 392 13 324 -10 240 -10 c 0
 155 -10 95 13 58 59 c 0
324 162 m 0
 339 182 351 215 358 260 c 0
 365 305 364 338 356 358 c 0
 346 380 329 390 303 390 c 0
 277 390 256 380 241 358 c 0
 226 338 215 305 208 260 c 0
 201 215 201 182 210 162 c 0
 219 140 236 130 262 130 c 0
 288 130 309 140 324 162 c 0
EndSplineSet
EndChar

StartChar: oacute
Encoding: 243 243 308
Width: 610
Flags: W
LayerCount: 2
Fore
SplineSet
58 59 m 0
 21 105 10 172 23 260 c 0
 37 348 70 415 121 461 c 0
 172 507 241 530 326 530 c 0
 410 530 470 507 508 461 c 0
 544 415 556 348 542 260 c 0
 528 172 495 105 444 59 c 0
 392 13 324 -10 240 -10 c 0
 155 -10 95 13 58 59 c 0
324 162 m 0
 339 182 351 215 358 260 c 0
 365 305 364 338 356 358 c 0
 346 380 329 390 303 390 c 0
 277 390 256 380 241 358 c 0
 226 338 215 305 208 260 c 0
 201 215 201 182 210 162 c 0
 219 140 236 130 262 130 c 0
 288 130 309 140 324 162 c 0
429 560 m 1
 262 560 l 1
 354 770 l 1
 580 770 l 1
 429 560 l 1
EndSplineSet
EndChar

StartChar: obreve
Encoding: 335 335 309
Width: 610
Flags: W
LayerCount: 2
Fore
SplineSet
58 59 m 0
 21 105 10 172 23 260 c 0
 37 348 70 415 121 461 c 0
 172 507 241 530 326 530 c 0
 410 530 470 507 508 461 c 0
 544 415 556 348 542 260 c 0
 528 172 495 105 444 59 c 0
 392 13 324 -10 240 -10 c 0
 155 -10 95 13 58 59 c 0
324 162 m 0
 339 182 351 215 358 260 c 0
 365 305 364 338 356 358 c 0
 346 380 329 390 303 390 c 0
 277 390 256 380 241 358 c 0
 226 338 215 305 208 260 c 0
 201 215 201 182 210 162 c 0
 219 140 236 130 262 130 c 0
 288 130 309 140 324 162 c 0
206 578 m 0
 171 598 146 624 130 657 c 0
 115 690 110 728 117 770 c 1
 284 770 l 1
 283 739 287 717 298 702 c 0
 308 687 325 680 348 680 c 0
 371 680 390 687 405 702 c 0
 420 717 432 739 441 770 c 1
 607 770 l 1
 600 728 584 690 558 657 c 0
 532 624 499 598 458 578 c 0
 418 560 375 550 328 550 c 0
 281 550 240 560 206 578 c 0
EndSplineSet
EndChar

StartChar: ocircumflex
Encoding: 244 244 310
Width: 610
Flags: W
LayerCount: 2
Fore
SplineSet
58 59 m 0
 21 105 10 172 23 260 c 0
 37 348 70 415 121 461 c 0
 172 507 241 530 326 530 c 0
 410 530 470 507 508 461 c 0
 544 415 556 348 542 260 c 0
 528 172 495 105 444 59 c 0
 392 13 324 -10 240 -10 c 0
 155 -10 95 13 58 59 c 0
324 162 m 0
 339 182 351 215 358 260 c 0
 365 305 364 338 356 358 c 0
 346 380 329 390 303 390 c 0
 277 390 256 380 241 358 c 0
 226 338 215 305 208 260 c 0
 201 215 201 182 210 162 c 0
 219 140 236 130 262 130 c 0
 288 130 309 140 324 162 c 0
229 770 m 1
 523 770 l 1
 608 560 l 1
 402 560 l 1
 366 700 l 1
 364 700 l 1
 284 560 l 1
 79 560 l 1
 229 770 l 1
EndSplineSet
EndChar

StartChar: uni1ED1
Encoding: 7889 7889 311
Width: 578
Flags: W
LayerCount: 2
Fore
SplineSet
561 950 m 1
 779 950 l 1
 631 740 l 1
 516 740 l 1
 584 560 l 1
 386 560 l 1
 352 700 l 1
 351 700 l 1
 272 560 l 1
 75 560 l 1
 221 770 l 1
 485 770 l 1
 561 950 l 1
508 461 m 0
 544 415 556 348 542 260 c 0
 528 172 495 105 444 59 c 0
 392 13 324 -10 240 -10 c 0
 155 -10 95 13 58 59 c 0
 21 105 10 172 23 260 c 0
 37 348 70 415 121 461 c 0
 172 507 241 530 326 530 c 0
 410 530 470 507 508 461 c 0
324 162 m 0
 339 182 351 215 358 260 c 0
 365 305 364 338 356 358 c 0
 346 380 329 390 303 390 c 0
 277 390 256 380 241 358 c 0
 226 338 215 305 208 260 c 0
 201 215 201 182 210 162 c 0
 219 140 236 130 262 130 c 0
 288 130 309 140 324 162 c 0
EndSplineSet
EndChar

StartChar: uni1ED9
Encoding: 7897 7897 312
Width: 610
Flags: W
LayerCount: 2
Fore
SplineSet
58 59 m 0
 21 105 10 172 23 260 c 0
 37 348 70 415 121 461 c 0
 172 507 241 530 326 530 c 0
 410 530 470 507 508 461 c 0
 544 415 556 348 542 260 c 0
 528 172 495 105 444 59 c 0
 392 13 324 -10 240 -10 c 0
 155 -10 95 13 58 59 c 0
324 162 m 0
 339 182 351 215 358 260 c 0
 365 305 364 338 356 358 c 0
 346 380 329 390 303 390 c 0
 277 390 256 380 241 358 c 0
 226 338 215 305 208 260 c 0
 201 215 201 182 210 162 c 0
 219 140 236 130 262 130 c 0
 288 130 309 140 324 162 c 0
175 -50 m 1
 361 -50 l 1
 331 -240 l 1
 145 -240 l 1
 175 -50 l 1
229 770 m 1
 523 770 l 1
 608 560 l 1
 402 560 l 1
 366 700 l 1
 364 700 l 1
 284 560 l 1
 79 560 l 1
 229 770 l 1
EndSplineSet
EndChar

StartChar: uni1ED3
Encoding: 7891 7891 313
Width: 578
Flags: W
LayerCount: 2
Fore
SplineSet
80 560 m 1
 206 740 l 1
 90 740 l 1
 9 950 l 1
 227 950 l 1
 246 770 l 1
 510 770 l 1
 589 560 l 1
 392 560 l 1
 358 700 l 1
 356 700 l 1
 278 560 l 1
 80 560 l 1
512 461 m 0
 549 415 560 348 547 260 c 0
 533 172 500 105 449 59 c 0
 398 13 330 -10 245 -10 c 0
 160 -10 100 13 63 59 c 0
 26 105 15 172 29 260 c 0
 43 348 76 415 127 461 c 0
 178 507 246 530 331 530 c 0
 415 530 476 507 512 461 c 0
330 162 m 0
 345 182 356 215 363 260 c 0
 370 305 370 338 361 358 c 0
 352 380 335 390 309 390 c 0
 283 390 262 380 247 358 c 0
 232 338 220 305 213 260 c 0
 206 215 206 182 216 162 c 0
 224 140 242 130 268 130 c 0
 294 130 315 140 330 162 c 0
EndSplineSet
EndChar

StartChar: uni1ED5
Encoding: 7893 7893 314
Width: 574
Flags: W
LayerCount: 2
Fore
SplineSet
611 952 m 0
 636 946 653 936 662 923 c 0
 671 910 673 890 669 865 c 0
 666 846 661 825 652 802 c 0
 644 779 635 758 626 740 c 1
 516 740 l 1
 584 560 l 1
 386 560 l 1
 352 700 l 1
 351 700 l 1
 272 560 l 1
 75 560 l 1
 221 770 l 1
 487 770 l 1
 491 781 493 791 494 800 c 0
 496 812 494 820 490 824 c 0
 484 828 473 830 456 830 c 0
 435 830 410 828 384 824 c 0
 356 819 330 813 305 805 c 1
 313 940 l 1
 340 946 371 951 405 954 c 0
 439 958 471 960 500 960 c 0
 549 960 586 957 611 952 c 0
508 461 m 0
 544 415 556 348 542 260 c 0
 528 172 495 105 444 59 c 0
 392 13 324 -10 240 -10 c 0
 155 -10 95 13 58 59 c 0
 21 105 10 172 23 260 c 0
 37 348 70 415 121 461 c 0
 172 507 241 530 326 530 c 0
 410 530 470 507 508 461 c 0
324 162 m 0
 339 182 351 215 358 260 c 0
 365 305 364 338 356 358 c 0
 346 380 329 390 303 390 c 0
 277 390 256 380 241 358 c 0
 226 338 215 305 208 260 c 0
 201 215 201 182 210 162 c 0
 219 140 236 130 262 130 c 0
 288 130 309 140 324 162 c 0
EndSplineSet
EndChar

StartChar: uni1ED7
Encoding: 7895 7895 315
Width: 610
Flags: W
LayerCount: 2
Fore
SplineSet
58 59 m 0
 21 105 10 172 23 260 c 0
 37 348 70 415 121 461 c 0
 172 507 241 530 326 530 c 0
 410 530 470 507 508 461 c 0
 544 415 556 348 542 260 c 0
 528 172 495 105 444 59 c 0
 392 13 324 -10 240 -10 c 0
 155 -10 95 13 58 59 c 0
324 162 m 0
 339 182 351 215 358 260 c 0
 365 305 364 338 356 358 c 0
 346 380 329 390 303 390 c 0
 277 390 256 380 241 358 c 0
 226 338 215 305 208 260 c 0
 201 215 201 182 210 162 c 0
 219 140 236 130 262 130 c 0
 288 130 309 140 324 162 c 0
229 770 m 1
 523 770 l 1
 608 560 l 1
 402 560 l 1
 366 700 l 1
 364 700 l 1
 284 560 l 1
 79 560 l 1
 229 770 l 1
334 852 m 0
 312 867 295 875 282 875 c 0
 273 875 267 871 262 862 c 0
 258 854 254 837 250 810 c 1
 105 810 l 1
 117 885 136 940 162 976 c 0
 187 1012 221 1030 262 1030 c 0
 304 1030 350 1013 399 978 c 0
 421 963 438 955 451 955 c 0
 460 955 466 959 470 968 c 0
 475 976 479 993 483 1020 c 1
 628 1020 l 1
 616 945 597 890 572 854 c 0
 547 818 513 800 471 800 c 0
 429 800 383 817 334 852 c 0
EndSplineSet
EndChar

